{"glyphs":{"0":{"ha":786,"x_min":82,"x_max":703,"o":"m 394 754 q 548 706 478 754 q 660 573 618 658 q 703 374 703 488 q 666 179 703 267 q 560 40 629 92 q 394 -11 492 -11 q 235 40 306 -11 q 123 178 164 92 q 82 371 82 265 q 122 572 82 486 q 233 706 163 658 q 394 754 304 754 m 394 685 q 266 644 321 685 q 181 532 211 603 q 151 371 151 461 q 182 217 151 289 q 267 102 213 146 q 394 58 322 58 q 526 103 474 58 q 606 219 579 147 q 633 374 633 290 q 602 533 633 463 q 517 644 571 603 q 394 685 463 685 z "},"1":{"ha":456,"x_min":69,"x_max":319,"o":"m 285 0 q 260 10 271 0 q 250 35 250 21 l 250 650 l 121 579 q 104 575 113 575 q 80 585 90 575 q 69 610 69 596 q 88 640 69 629 l 268 739 q 285 743 276 743 q 310 733 300 743 q 319 708 319 724 l 319 35 q 310 10 319 21 q 285 0 300 0 z "},"2":{"ha":706,"x_min":71,"x_max":629,"o":"m 106 0 q 81 10 92 0 q 71 35 71 21 q 81 58 71 46 l 326 293 q 437 404 396 360 q 496 485 478 449 q 514 563 514 522 q 474 649 514 611 q 358 686 433 686 q 167 631 258 686 q 158 627 163 629 q 149 625 154 625 q 125 634 136 625 q 114 660 114 643 q 131 689 114 679 q 358 756 238 756 q 486 727 436 756 q 560 655 536 699 q 583 563 583 611 q 565 474 583 517 q 502 376 547 431 q 374 243 457 322 l 192 69 l 594 69 q 619 59 610 69 q 629 35 629 49 q 619 10 629 21 q 594 0 610 0 l 106 0 z "},"3":{"ha":711,"x_min":101,"x_max":628,"o":"m 354 -6 q 228 8 286 -6 q 122 40 169 21 q 101 72 101 50 q 112 97 101 88 q 136 107 122 107 q 169 96 143 107 q 247 74 196 85 q 354 64 297 64 q 506 106 453 64 q 558 218 558 149 q 507 325 558 286 q 369 364 456 364 q 307 360 338 364 q 251 350 276 357 q 231 344 238 346 q 222 343 225 343 q 197 353 208 343 q 186 376 186 363 q 190 394 186 388 q 204 410 194 401 l 485 674 l 160 674 q 135 684 146 674 q 125 708 125 694 q 135 733 125 724 q 160 743 146 743 l 572 743 q 597 733 588 743 q 607 708 607 724 q 594 682 607 694 l 326 432 q 348 433 338 433 q 369 433 358 433 q 561 372 494 433 q 628 218 628 311 q 599 106 628 157 q 510 24 571 54 q 354 -6 450 -6 z "},"4":{"ha":738,"x_min":50,"x_max":694,"o":"m 510 0 q 485 10 496 0 q 475 35 475 21 l 475 172 l 85 172 q 60 183 71 172 q 50 207 50 193 q 58 229 50 221 l 474 732 q 493 752 486 747 q 510 757 500 757 q 535 747 525 757 q 544 722 544 738 l 544 242 l 660 242 q 685 232 675 242 q 694 207 694 222 q 685 183 694 193 q 660 172 675 172 l 544 172 l 544 35 q 535 10 544 21 q 510 0 525 0 m 475 625 l 158 242 l 475 242 l 475 625 z "},"5":{"ha":724,"x_min":99,"x_max":635,"o":"m 369 -6 q 232 9 297 -6 q 118 46 167 24 q 99 79 99 54 q 108 102 99 92 q 133 113 118 113 q 183 96 143 113 q 267 73 221 82 q 369 64 314 64 q 517 113 468 64 q 565 235 565 163 q 513 347 565 304 q 375 389 461 389 q 268 376 311 389 q 206 356 225 363 q 183 348 190 350 q 171 346 176 346 q 147 356 157 346 q 138 378 138 365 l 165 708 q 176 733 167 724 q 200 743 186 743 l 557 743 q 582 733 572 743 q 592 708 592 724 q 582 684 592 694 q 557 674 572 674 l 232 674 l 211 432 q 284 451 243 443 q 375 458 325 458 q 567 394 500 458 q 635 235 635 329 q 607 115 635 169 q 521 27 579 60 q 369 -6 463 -6 z "},"6":{"ha":749,"x_min":97,"x_max":663,"o":"m 663 240 q 636 125 663 182 q 551 31 610 68 q 396 -6 493 -6 q 242 33 310 -6 q 136 150 175 71 q 97 349 97 229 q 187 649 97 543 q 425 756 276 756 q 491 751 463 756 q 550 735 519 746 q 574 700 574 726 q 563 677 574 688 q 540 667 551 667 q 529 668 536 667 q 506 675 522 669 q 471 683 493 679 q 425 686 449 686 q 234 594 301 686 q 167 349 167 501 q 167 332 167 340 q 168 317 167 324 q 279 428 213 390 q 424 467 346 467 q 597 403 531 467 q 663 240 663 340 m 396 64 q 508 90 465 64 q 572 156 551 115 q 593 240 593 197 q 545 354 593 311 q 424 397 497 397 q 282 346 343 397 q 192 201 221 294 q 272 99 219 133 q 396 64 324 64 z "},"7":{"ha":647,"x_min":50,"x_max":606,"o":"m 267 0 q 242 10 253 0 q 232 35 232 21 l 232 111 q 253 242 232 176 q 304 361 274 307 q 342 420 317 383 q 397 501 367 457 q 457 590 426 544 q 511 674 488 635 l 85 674 q 60 684 71 674 q 50 708 50 694 q 60 733 50 724 q 85 743 71 743 l 571 743 q 606 707 606 743 q 601 690 606 699 q 549 602 582 653 q 478 499 515 551 q 411 400 442 446 q 365 328 381 354 q 320 224 339 281 q 301 111 301 168 l 301 35 q 292 10 301 21 q 267 0 282 0 z "},"8":{"ha":775,"x_min":97,"x_max":678,"o":"m 389 -11 q 223 20 288 -11 q 128 102 158 51 q 97 210 97 153 q 128 324 97 274 q 221 401 160 374 q 154 472 175 429 q 133 561 133 514 q 197 699 133 644 q 389 753 261 753 q 576 699 511 753 q 642 561 642 644 q 620 472 642 514 q 551 401 599 429 q 645 324 613 374 q 678 211 678 274 q 651 102 678 153 q 560 20 624 51 q 389 -11 497 -11 m 389 683 q 255 653 307 683 q 203 561 203 622 q 251 469 203 504 q 389 433 300 433 q 524 469 475 433 q 572 561 572 504 q 519 653 572 622 q 389 683 467 683 m 389 364 q 228 324 289 364 q 167 210 167 283 q 225 101 167 144 q 389 58 283 58 q 555 101 501 58 q 608 211 608 144 q 546 324 608 285 q 389 364 483 364 z "},"9":{"ha":744,"x_min":86,"x_max":647,"o":"m 324 -4 q 258 2 286 -4 q 201 15 231 8 q 175 47 175 22 q 185 72 175 61 q 208 83 194 83 q 219 81 211 83 q 242 76 228 79 q 284 68 265 71 q 324 65 303 65 q 516 148 454 65 q 578 375 578 231 l 578 385 q 475 304 533 333 q 336 275 417 275 q 151 338 215 275 q 86 513 86 400 q 115 628 86 572 q 201 719 143 683 q 349 756 260 756 q 503 713 436 756 q 609 585 571 669 q 647 375 647 500 q 565 93 647 190 q 324 -4 483 -4 m 336 344 q 473 383 418 344 q 567 485 528 422 q 490 633 546 579 q 349 686 433 686 q 242 661 285 686 q 177 597 199 636 q 156 513 156 557 q 203 388 156 432 q 336 344 251 344 z "},"A":{"ha":806,"x_min":67,"x_max":736,"o":"m 701 0 q 669 22 678 0 q 636 106 656 60 q 594 201 617 151 l 203 201 q 166 106 183 151 q 135 24 149 61 q 121 6 131 13 q 100 0 111 0 q 77 10 88 0 q 67 36 67 21 q 69 48 67 40 q 81 79 71 56 q 137 222 104 142 q 207 390 169 303 q 283 567 244 478 q 358 735 322 656 q 392 756 368 756 l 397 756 q 431 736 422 756 q 510 563 468 656 q 593 378 553 469 q 667 209 633 288 q 721 79 700 131 q 734 46 732 54 q 736 35 736 38 q 726 10 736 21 q 701 0 715 0 m 565 271 q 481 461 525 364 q 394 646 436 558 q 313 460 356 557 q 232 271 271 364 l 565 271 z "},"Á":{"ha":806,"x_min":67,"x_max":736,"o":"m 701 0 q 669 22 678 0 q 636 106 656 60 q 594 201 617 151 l 203 201 q 166 106 183 151 q 135 24 149 61 q 121 6 131 13 q 100 0 111 0 q 77 10 88 0 q 67 36 67 21 q 69 48 67 40 q 81 79 71 56 q 137 222 104 142 q 207 390 169 303 q 283 567 244 478 q 358 735 322 656 q 392 756 368 756 l 397 756 q 431 736 422 756 q 510 563 468 656 q 593 378 553 469 q 667 209 633 288 q 721 79 700 131 q 734 46 732 54 q 736 35 736 38 q 726 10 736 21 q 701 0 715 0 m 565 271 q 481 461 525 364 q 394 646 436 558 q 313 460 356 557 q 232 271 271 364 l 565 271 m 564 988 q 471 931 517 960 q 396 879 425 901 q 378 874 389 874 q 356 883 364 874 q 347 906 347 893 q 360 931 347 922 q 439 981 392 951 q 533 1042 486 1011 q 547 1046 540 1046 q 571 1036 563 1046 q 579 1015 579 1026 q 564 988 579 996 z "},"Ă":{"ha":806,"x_min":67,"x_max":736,"o":"m 701 0 q 669 22 678 0 q 636 106 656 60 q 594 201 617 151 l 203 201 q 166 106 183 151 q 135 24 149 61 q 121 6 131 13 q 100 0 111 0 q 77 10 88 0 q 67 36 67 21 q 69 48 67 40 q 81 79 71 56 q 137 222 104 142 q 207 390 169 303 q 283 567 244 478 q 358 735 322 656 q 392 756 368 756 l 397 756 q 431 736 422 756 q 510 563 468 656 q 593 378 553 469 q 667 209 633 288 q 721 79 700 131 q 734 46 732 54 q 736 35 736 38 q 726 10 736 21 q 701 0 715 0 m 565 271 q 481 461 525 364 q 394 646 436 558 q 313 460 356 557 q 232 271 271 364 l 565 271 m 250 1039 q 313 984 276 1006 q 392 963 350 963 q 472 983 439 963 q 528 1036 506 1003 q 554 1050 538 1050 q 575 1040 567 1050 q 583 1018 583 1031 q 578 1003 583 1011 q 501 929 546 957 q 392 901 456 901 q 287 929 336 901 q 203 1000 238 957 q 196 1019 196 1010 q 205 1041 196 1032 q 226 1050 214 1050 q 250 1039 242 1050 z "},"Â":{"ha":806,"x_min":67,"x_max":736,"o":"m 701 0 q 669 22 678 0 q 636 106 656 60 q 594 201 617 151 l 203 201 q 166 106 183 151 q 135 24 149 61 q 121 6 131 13 q 100 0 111 0 q 77 10 88 0 q 67 36 67 21 q 69 48 67 40 q 81 79 71 56 q 137 222 104 142 q 207 390 169 303 q 283 567 244 478 q 358 735 322 656 q 392 756 368 756 l 397 756 q 431 736 422 756 q 510 563 468 656 q 593 378 553 469 q 667 209 633 288 q 721 79 700 131 q 734 46 732 54 q 736 35 736 38 q 726 10 736 21 q 701 0 715 0 m 565 271 q 481 461 525 364 q 394 646 436 558 q 313 460 356 557 q 232 271 271 364 l 565 271 m 531 853 q 513 860 522 853 q 455 901 485 879 q 393 946 425 924 q 330 901 361 924 q 272 860 299 879 q 254 854 265 854 q 224 883 224 854 q 236 908 224 899 q 300 956 265 932 q 369 1006 335 981 q 390 1013 379 1013 l 394 1013 q 415 1006 406 1013 q 485 956 451 981 q 549 908 519 932 q 561 883 561 899 q 553 863 561 872 q 531 853 546 853 z "},"Ä":{"ha":806,"x_min":67,"x_max":736,"o":"m 701 0 q 669 22 678 0 q 636 106 656 60 q 594 201 617 151 l 203 201 q 166 106 183 151 q 135 24 149 61 q 121 6 131 13 q 100 0 111 0 q 77 10 88 0 q 67 36 67 21 q 69 48 67 40 q 81 79 71 56 q 137 222 104 142 q 207 390 169 303 q 283 567 244 478 q 358 735 322 656 q 392 756 368 756 l 397 756 q 431 736 422 756 q 510 563 468 656 q 593 378 553 469 q 667 209 633 288 q 721 79 700 131 q 734 46 732 54 q 736 35 736 38 q 726 10 736 21 q 701 0 715 0 m 565 271 q 481 461 525 364 q 394 646 436 558 q 313 460 356 557 q 232 271 271 364 l 565 271 m 525 989 q 561 972 544 989 q 578 922 578 954 q 561 872 578 888 q 525 856 544 856 q 488 872 504 856 q 471 922 471 889 q 488 972 471 954 q 525 989 504 989 m 257 989 q 293 972 276 989 q 310 922 310 954 q 293 872 310 888 q 257 856 276 856 q 219 873 236 856 q 201 922 201 890 q 219 971 201 953 q 257 989 236 989 z "},"À":{"ha":806,"x_min":67,"x_max":736,"o":"m 701 0 q 669 22 678 0 q 636 106 656 60 q 594 201 617 151 l 203 201 q 166 106 183 151 q 135 24 149 61 q 121 6 131 13 q 100 0 111 0 q 77 10 88 0 q 67 36 67 21 q 69 48 67 40 q 81 79 71 56 q 137 222 104 142 q 207 390 169 303 q 283 567 244 478 q 358 735 322 656 q 392 756 368 756 l 397 756 q 431 736 422 756 q 510 563 468 656 q 593 378 553 469 q 667 209 633 288 q 721 79 700 131 q 734 46 732 54 q 736 35 736 38 q 726 10 736 21 q 701 0 715 0 m 565 271 q 481 461 525 364 q 394 646 436 558 q 313 460 356 557 q 232 271 271 364 l 565 271 m 263 1043 q 320 1009 289 1031 q 380 965 351 988 q 428 928 408 943 q 439 904 439 919 q 429 882 439 892 q 407 872 419 872 q 388 879 397 872 q 342 914 369 893 q 285 955 314 935 q 231 989 256 975 q 215 1015 215 997 q 224 1037 215 1026 q 247 1047 233 1047 q 263 1043 254 1047 z "},"Ā":{"ha":806,"x_min":67,"x_max":736,"o":"m 701 0 q 669 22 678 0 q 636 106 656 60 q 594 201 617 151 l 203 201 q 166 106 183 151 q 135 24 149 61 q 121 6 131 13 q 100 0 111 0 q 77 10 88 0 q 67 36 67 21 q 69 48 67 40 q 81 79 71 56 q 137 222 104 142 q 207 390 169 303 q 283 567 244 478 q 358 735 322 656 q 392 756 368 756 l 397 756 q 431 736 422 756 q 510 563 468 656 q 593 378 553 469 q 667 209 633 288 q 721 79 700 131 q 734 46 732 54 q 736 35 736 38 q 726 10 736 21 q 701 0 715 0 m 565 271 q 481 461 525 364 q 394 646 436 558 q 313 460 356 557 q 232 271 271 364 l 565 271 m 233 926 q 212 935 221 926 q 203 957 203 944 q 212 978 203 969 q 233 988 221 988 l 551 988 q 573 978 564 988 q 582 957 582 969 q 573 935 582 944 q 551 926 564 926 l 233 926 z "},"Ą":{"ha":806,"x_min":67,"x_max":757,"o":"m 726 -307 q 610 -290 653 -307 q 549 -248 567 -274 q 532 -193 532 -222 q 542 -149 532 -174 q 582 -91 551 -125 q 675 -6 613 -57 l 675 8 q 635 108 654 61 q 594 201 615 154 l 203 201 q 166 106 183 151 q 135 24 149 61 q 121 6 131 13 q 100 0 111 0 q 77 10 88 0 q 67 36 67 21 q 69 48 67 40 q 81 79 71 56 q 137 222 104 142 q 207 390 169 303 q 283 567 244 478 q 358 735 322 656 q 392 756 368 756 l 397 756 q 431 736 422 756 q 510 563 468 656 q 593 378 553 469 q 667 208 633 286 q 721 79 700 131 q 744 -6 744 21 q 725 -43 744 -28 q 643 -115 672 -87 q 603 -159 614 -142 q 593 -193 593 -176 q 634 -234 593 -222 q 726 -246 675 -246 q 748 -255 739 -246 q 757 -276 757 -264 q 748 -298 757 -289 q 726 -307 739 -307 m 565 271 q 481 461 525 364 q 394 646 436 558 q 313 460 356 557 q 232 271 271 364 l 565 271 z "},"Å":{"ha":806,"x_min":67,"x_max":736,"o":"m 701 0 q 669 22 678 0 q 636 106 656 60 q 594 201 617 151 l 203 201 q 166 106 183 151 q 135 24 149 61 q 121 6 131 13 q 100 0 111 0 q 77 10 88 0 q 67 36 67 21 q 69 48 67 40 q 81 79 71 56 q 155 265 111 160 q 248 483 199 369 q 343 701 297 597 q 268 753 294 715 q 242 833 242 792 q 259 899 242 867 q 310 951 276 931 q 389 972 343 972 q 501 929 461 972 q 540 833 540 886 q 516 756 540 792 q 446 704 492 719 q 523 536 483 625 q 601 361 563 447 q 670 201 639 275 q 721 79 701 128 q 734 46 732 54 q 736 35 736 38 q 726 10 736 21 q 701 0 715 0 m 479 833 q 454 888 479 865 q 389 911 429 911 q 326 887 350 911 q 303 833 303 863 q 326 780 303 804 q 389 756 350 756 q 454 778 429 756 q 479 833 479 801 m 565 271 q 481 461 525 364 q 394 646 436 558 q 313 460 356 557 q 232 271 271 364 l 565 271 z "},"Ã":{"ha":806,"x_min":67,"x_max":736,"o":"m 701 0 q 669 22 678 0 q 636 106 656 60 q 594 201 617 151 l 203 201 q 166 106 183 151 q 135 24 149 61 q 121 6 131 13 q 100 0 111 0 q 77 10 88 0 q 67 36 67 21 q 69 48 67 40 q 81 79 71 56 q 137 222 104 142 q 207 390 169 303 q 283 567 244 478 q 358 735 322 656 q 392 756 368 756 l 397 756 q 431 736 422 756 q 510 563 468 656 q 593 378 553 469 q 667 209 633 288 q 721 79 700 131 q 734 46 732 54 q 736 35 736 38 q 726 10 736 21 q 701 0 715 0 m 565 271 q 481 461 525 364 q 394 646 436 558 q 313 460 356 557 q 232 271 271 364 l 565 271 m 192 922 q 310 999 253 999 q 361 988 338 999 q 408 957 385 976 q 443 933 428 942 q 472 925 458 925 q 514 942 496 925 q 553 985 532 958 q 576 997 561 997 q 599 988 590 997 q 607 967 607 978 q 600 949 607 958 q 538 885 567 906 q 472 864 508 864 q 426 874 449 864 q 376 904 403 885 q 342 928 357 919 q 310 938 326 938 q 274 922 292 938 q 239 883 257 907 q 215 872 231 872 q 194 881 203 872 q 185 903 185 890 q 192 922 185 913 z "},"Æ":{"ha":1049,"x_min":25,"x_max":968,"o":"m 546 0 q 522 10 532 0 q 511 35 511 21 l 511 201 l 210 201 q 146 103 176 150 q 89 15 115 56 q 60 0 81 0 q 35 10 46 0 q 25 35 25 21 q 31 54 25 47 q 160 253 88 142 q 312 486 233 364 q 463 726 390 608 q 494 743 474 743 l 931 743 q 956 733 946 743 q 965 708 965 724 q 956 684 965 694 q 931 674 946 674 l 581 674 l 581 432 l 871 432 q 896 422 886 432 q 906 397 906 413 q 896 373 906 383 q 871 363 886 363 l 581 363 l 581 69 l 933 69 q 958 60 949 69 q 968 35 968 50 q 958 10 968 21 q 933 0 949 0 l 546 0 m 511 674 q 384 472 450 575 q 256 271 318 368 l 511 271 l 511 674 z "},"B":{"ha":733,"x_min":136,"x_max":653,"o":"m 171 0 q 147 10 157 0 q 136 35 136 21 l 136 708 q 147 733 136 724 q 171 743 157 743 l 364 743 q 467 725 425 743 q 535 682 508 707 q 572 623 558 658 q 586 554 586 588 q 572 483 586 517 q 535 425 558 449 q 526 416 531 421 q 514 407 521 411 q 592 357 561 388 q 653 211 653 296 q 639 137 653 174 q 596 71 625 100 q 515 20 565 40 q 386 0 465 0 l 171 0 m 376 431 q 441 447 413 433 q 485 475 469 460 q 517 554 517 504 q 485 632 517 600 q 437 663 467 651 q 364 674 407 674 l 206 674 l 206 431 l 376 431 m 206 361 l 206 69 l 386 69 q 485 83 447 69 q 546 121 524 97 q 583 211 583 158 q 542 307 583 265 q 390 361 488 361 l 206 361 z "},"C":{"ha":786,"x_min":85,"x_max":694,"o":"m 636 650 q 464 686 568 686 q 310 646 381 686 q 197 534 240 606 q 154 367 154 463 q 192 209 154 279 q 301 98 229 139 q 472 57 372 57 q 566 67 522 57 q 644 94 610 76 q 660 99 651 99 q 685 89 675 99 q 694 64 694 79 q 675 33 694 42 q 582 -1 633 11 q 472 -12 531 -12 q 263 38 350 -12 q 131 174 176 88 q 85 367 85 260 q 138 571 85 483 q 276 707 190 658 q 464 756 363 756 q 669 711 589 756 q 688 681 688 700 q 678 657 688 668 q 653 646 668 646 q 636 650 644 646 z "},"Ć":{"ha":786,"x_min":85,"x_max":694,"o":"m 636 650 q 464 686 568 686 q 310 646 381 686 q 197 534 240 606 q 154 367 154 463 q 192 209 154 279 q 301 98 229 139 q 472 57 372 57 q 566 67 522 57 q 644 94 610 76 q 660 99 651 99 q 685 89 675 99 q 694 64 694 79 q 675 33 694 42 q 582 -1 633 11 q 472 -12 531 -12 q 263 38 350 -12 q 131 174 176 88 q 85 367 85 260 q 138 571 85 483 q 276 707 190 658 q 464 756 363 756 q 669 711 589 756 q 688 681 688 700 q 678 657 688 668 q 653 646 668 646 q 636 650 644 646 m 621 990 q 528 933 574 963 q 453 882 482 904 q 435 876 446 876 q 413 886 421 876 q 404 908 404 896 q 417 933 404 925 q 496 984 449 954 q 590 1044 543 1014 q 604 1049 597 1049 q 628 1039 619 1049 q 636 1018 636 1029 q 621 990 636 999 z "},"Č":{"ha":786,"x_min":85,"x_max":694,"o":"m 636 650 q 464 686 568 686 q 310 646 381 686 q 197 534 240 606 q 154 367 154 463 q 192 209 154 279 q 301 98 229 139 q 472 57 372 57 q 566 67 522 57 q 644 94 610 76 q 660 99 651 99 q 685 89 675 99 q 694 64 694 79 q 675 33 694 42 q 582 -1 633 11 q 472 -12 531 -12 q 263 38 350 -12 q 131 174 176 88 q 85 367 85 260 q 138 571 85 483 q 276 707 190 658 q 464 756 363 756 q 669 711 589 756 q 688 681 688 700 q 678 657 688 668 q 653 646 668 646 q 636 650 644 646 m 451 886 l 449 886 q 426 893 436 886 q 356 943 390 918 q 293 990 321 968 q 281 1015 281 1001 q 289 1035 281 1026 q 311 1044 297 1044 q 321 1043 315 1044 q 335 1035 326 1042 q 388 997 357 1018 q 449 953 418 976 q 511 997 481 976 q 564 1035 542 1018 q 578 1043 572 1042 q 588 1044 583 1044 q 610 1035 601 1044 q 618 1015 618 1026 q 606 990 618 1001 q 544 943 579 968 q 472 893 508 918 q 451 886 463 886 z "},"Ç":{"ha":786,"x_min":85,"x_max":694,"o":"m 636 650 q 464 686 568 686 q 310 646 381 686 q 197 534 240 606 q 154 367 154 463 q 192 209 154 279 q 301 98 229 139 q 472 57 372 57 q 566 67 522 57 q 644 94 610 76 q 660 99 651 99 q 685 89 675 99 q 694 64 694 79 q 675 33 694 42 q 582 -1 633 11 q 472 -12 531 -12 q 263 38 350 -12 q 131 174 176 88 q 85 367 85 260 q 138 571 85 483 q 276 707 190 658 q 464 756 363 756 q 669 711 589 756 q 688 681 688 700 q 678 657 688 668 q 653 646 668 646 q 636 650 644 646 m 500 -183 q 454 -226 481 -199 q 403 -279 428 -253 q 361 -322 378 -306 q 339 -331 353 -331 q 318 -322 328 -331 q 308 -300 308 -314 q 317 -278 308 -286 q 360 -235 333 -261 q 413 -183 386 -210 q 458 -139 440 -157 q 479 -131 467 -131 q 500 -140 490 -131 q 510 -161 510 -149 q 500 -183 510 -175 z "},"D":{"ha":850,"x_min":136,"x_max":765,"o":"m 171 0 q 147 10 157 0 q 136 35 136 21 l 136 708 q 147 733 136 724 q 171 743 157 743 l 415 743 q 587 696 507 743 q 716 565 667 649 q 765 372 765 482 q 722 184 765 268 q 599 50 678 100 q 415 0 521 0 l 171 0 m 206 674 l 206 69 l 415 69 q 565 110 501 69 q 662 220 628 151 q 696 372 696 289 q 657 528 696 460 q 554 635 618 596 q 415 674 490 674 l 206 674 z "},"Ð":{"ha":871,"x_min":54,"x_max":786,"o":"m 192 0 q 167 10 178 0 q 157 35 157 21 l 157 343 l 89 343 q 65 353 75 343 q 54 378 54 364 q 65 403 54 393 q 89 413 75 413 l 157 413 l 157 708 q 167 733 157 724 q 192 743 178 743 l 436 743 q 608 696 528 743 q 737 565 688 649 q 786 372 786 482 q 742 184 786 268 q 620 50 699 100 q 436 0 542 0 l 192 0 m 226 343 l 226 69 l 436 69 q 585 110 522 69 q 683 220 649 151 q 717 372 717 289 q 678 528 717 460 q 575 635 639 596 q 436 674 511 674 l 226 674 l 226 413 l 431 413 q 456 403 446 413 q 465 378 465 393 q 456 353 465 364 q 431 343 446 343 l 226 343 z "},"Ď":{"ha":850,"x_min":136,"x_max":765,"o":"m 171 0 q 147 10 157 0 q 136 35 136 21 l 136 708 q 147 733 136 724 q 171 743 157 743 l 415 743 q 587 696 507 743 q 716 565 667 649 q 765 372 765 482 q 722 184 765 268 q 599 50 678 100 q 415 0 521 0 l 171 0 m 206 674 l 206 69 l 415 69 q 565 110 501 69 q 662 220 628 151 q 696 372 696 289 q 657 528 696 460 q 554 635 618 596 q 415 674 490 674 l 206 674 m 376 879 l 374 879 q 351 886 361 879 q 281 936 315 911 q 218 983 246 961 q 206 1008 206 994 q 214 1028 206 1019 q 236 1038 222 1038 q 246 1036 240 1038 q 260 1028 251 1035 q 313 990 282 1011 q 374 946 343 969 q 436 990 406 969 q 489 1028 467 1011 q 503 1036 497 1035 q 513 1038 508 1038 q 535 1028 526 1038 q 543 1008 543 1019 q 531 983 543 994 q 469 936 504 961 q 397 886 433 911 q 376 879 388 879 z "},"Đ":{"ha":871,"x_min":54,"x_max":786,"o":"m 192 0 q 167 10 178 0 q 157 35 157 21 l 157 343 l 89 343 q 65 353 75 343 q 54 378 54 364 q 65 403 54 393 q 89 413 75 413 l 157 413 l 157 708 q 167 733 157 724 q 192 743 178 743 l 436 743 q 608 696 528 743 q 737 565 688 649 q 786 372 786 482 q 742 184 786 268 q 620 50 699 100 q 436 0 542 0 l 192 0 m 226 343 l 226 69 l 436 69 q 585 110 522 69 q 683 220 649 151 q 717 372 717 289 q 678 528 717 460 q 575 635 639 596 q 436 674 511 674 l 226 674 l 226 413 l 431 413 q 456 403 446 413 q 465 378 465 393 q 456 353 465 364 q 431 343 446 343 l 226 343 z "},"E":{"ha":676,"x_min":136,"x_max":593,"o":"m 171 0 q 147 10 157 0 q 136 35 136 21 l 136 708 q 145 733 136 722 q 167 743 154 743 l 556 743 q 581 733 571 743 q 590 708 590 724 q 581 684 590 694 q 556 674 571 674 l 206 674 l 206 432 l 496 432 q 521 422 511 432 q 531 397 531 413 q 521 373 531 383 q 496 363 511 363 l 206 363 l 206 69 l 558 69 q 583 60 574 69 q 593 35 593 50 q 583 10 593 21 q 558 0 574 0 l 171 0 z "},"É":{"ha":676,"x_min":136,"x_max":593,"o":"m 171 0 q 147 10 157 0 q 136 35 136 21 l 136 708 q 145 733 136 722 q 167 743 154 743 l 556 743 q 581 733 571 743 q 590 708 590 724 q 581 684 590 694 q 556 674 571 674 l 206 674 l 206 432 l 496 432 q 521 422 511 432 q 531 397 531 413 q 521 373 531 383 q 496 363 511 363 l 206 363 l 206 69 l 558 69 q 583 60 574 69 q 593 35 593 50 q 583 10 593 21 q 558 0 574 0 l 171 0 m 532 983 q 439 926 485 956 q 364 875 393 897 q 346 869 357 869 q 324 879 332 869 q 315 901 315 889 q 328 926 315 918 q 407 977 360 947 q 501 1038 454 1007 q 515 1042 508 1042 q 539 1032 531 1042 q 547 1011 547 1022 q 532 983 547 992 z "},"Ě":{"ha":676,"x_min":136,"x_max":593,"o":"m 171 0 q 147 10 157 0 q 136 35 136 21 l 136 708 q 145 733 136 722 q 167 743 154 743 l 556 743 q 581 733 571 743 q 590 708 590 724 q 581 684 590 694 q 556 674 571 674 l 206 674 l 206 432 l 496 432 q 521 422 511 432 q 531 397 531 413 q 521 373 531 383 q 496 363 511 363 l 206 363 l 206 69 l 558 69 q 583 60 574 69 q 593 35 593 50 q 583 10 593 21 q 558 0 574 0 l 171 0 m 363 879 l 360 879 q 338 886 347 879 q 267 936 301 911 q 204 983 232 961 q 192 1008 192 994 q 200 1028 192 1019 q 222 1038 208 1038 q 232 1036 226 1038 q 246 1028 238 1035 q 299 990 268 1011 q 360 946 329 969 q 422 990 392 969 q 475 1028 453 1011 q 489 1036 483 1035 q 499 1038 494 1038 q 521 1028 513 1038 q 529 1008 529 1019 q 517 983 529 994 q 455 936 490 961 q 383 886 419 911 q 363 879 374 879 z "},"Ê":{"ha":676,"x_min":136,"x_max":593,"o":"m 171 0 q 147 10 157 0 q 136 35 136 21 l 136 708 q 145 733 136 722 q 167 743 154 743 l 556 743 q 581 733 571 743 q 590 708 590 724 q 581 684 590 694 q 556 674 571 674 l 206 674 l 206 432 l 496 432 q 521 422 511 432 q 531 397 531 413 q 521 373 531 383 q 496 363 511 363 l 206 363 l 206 69 l 558 69 q 583 60 574 69 q 593 35 593 50 q 583 10 593 21 q 558 0 574 0 l 171 0 m 499 879 q 481 886 490 879 q 423 928 453 906 q 361 972 393 950 q 298 928 329 950 q 240 886 267 906 q 222 881 233 881 q 192 910 192 881 q 204 935 192 925 q 268 983 233 958 q 338 1032 303 1007 q 358 1039 347 1039 l 363 1039 q 383 1032 374 1039 q 453 983 419 1007 q 517 935 488 958 q 529 910 529 925 q 522 889 529 899 q 499 879 514 879 z "},"Ë":{"ha":676,"x_min":136,"x_max":593,"o":"m 171 0 q 147 10 157 0 q 136 35 136 21 l 136 708 q 145 733 136 722 q 167 743 154 743 l 556 743 q 581 733 571 743 q 590 708 590 724 q 581 684 590 694 q 556 674 571 674 l 206 674 l 206 432 l 496 432 q 521 422 511 432 q 531 397 531 413 q 521 373 531 383 q 496 363 511 363 l 206 363 l 206 69 l 558 69 q 583 60 574 69 q 593 35 593 50 q 583 10 593 21 q 558 0 574 0 l 171 0 m 493 1014 q 529 997 513 1014 q 546 947 546 979 q 529 897 546 913 q 493 881 513 881 q 456 897 472 881 q 439 947 439 914 q 456 997 439 979 q 493 1014 472 1014 m 225 1014 q 261 997 244 1014 q 278 947 278 979 q 261 897 278 913 q 225 881 244 881 q 187 898 204 881 q 169 947 169 915 q 187 996 169 978 q 225 1014 204 1014 z "},"Ė":{"ha":676,"x_min":136,"x_max":593,"o":"m 171 0 q 147 10 157 0 q 136 35 136 21 l 136 708 q 145 733 136 722 q 167 743 154 743 l 556 743 q 581 733 571 743 q 590 708 590 724 q 581 684 590 694 q 556 674 571 674 l 206 674 l 206 432 l 496 432 q 521 422 511 432 q 531 397 531 413 q 521 373 531 383 q 496 363 511 363 l 206 363 l 206 69 l 558 69 q 583 60 574 69 q 593 35 593 50 q 583 10 593 21 q 558 0 574 0 l 171 0 m 367 1026 q 405 1008 388 1026 q 422 957 422 989 q 406 909 422 926 q 367 892 389 892 q 324 910 342 892 q 307 957 307 929 q 325 1007 307 988 q 367 1026 343 1026 z "},"È":{"ha":676,"x_min":136,"x_max":593,"o":"m 171 0 q 147 10 157 0 q 136 35 136 21 l 136 708 q 145 733 136 722 q 167 743 154 743 l 556 743 q 581 733 571 743 q 590 708 590 724 q 581 684 590 694 q 556 674 571 674 l 206 674 l 206 432 l 496 432 q 521 422 511 432 q 531 397 531 413 q 521 373 531 383 q 496 363 511 363 l 206 363 l 206 69 l 558 69 q 583 60 574 69 q 593 35 593 50 q 583 10 593 21 q 558 0 574 0 l 171 0 m 231 1039 q 288 1005 257 1026 q 348 961 319 983 q 396 924 376 939 q 407 900 407 915 q 397 878 407 888 q 375 868 388 868 q 356 875 365 868 q 310 910 338 889 q 253 951 282 931 q 199 985 224 971 q 183 1011 183 993 q 192 1033 183 1022 q 215 1043 201 1043 q 231 1039 222 1043 z "},"Ē":{"ha":676,"x_min":136,"x_max":593,"o":"m 171 0 q 147 10 157 0 q 136 35 136 21 l 136 708 q 145 733 136 722 q 167 743 154 743 l 556 743 q 581 733 571 743 q 590 708 590 724 q 581 684 590 694 q 556 674 571 674 l 206 674 l 206 432 l 496 432 q 521 422 511 432 q 531 397 531 413 q 521 373 531 383 q 496 363 511 363 l 206 363 l 206 69 l 558 69 q 583 60 574 69 q 593 35 593 50 q 583 10 593 21 q 558 0 574 0 l 171 0 m 201 922 q 180 931 189 922 q 171 953 171 940 q 180 974 171 965 q 201 983 189 983 l 519 983 q 541 974 532 983 q 550 953 550 965 q 541 931 550 940 q 519 922 532 922 l 201 922 z "},"Ę":{"ha":676,"x_min":136,"x_max":614,"o":"m 583 -307 q 467 -290 510 -307 q 406 -248 424 -274 q 389 -193 389 -222 q 398 -149 389 -174 q 435 -91 407 -125 q 518 -6 463 -57 l 518 0 l 171 0 q 147 10 157 0 q 136 35 136 21 l 136 708 q 145 733 136 722 q 167 743 154 743 l 556 743 q 581 733 571 743 q 590 708 590 724 q 581 684 590 694 q 556 674 571 674 l 206 674 l 206 432 l 496 432 q 521 422 511 432 q 531 397 531 413 q 521 373 531 383 q 496 363 511 363 l 206 363 l 206 69 l 558 69 q 583 60 574 69 q 593 40 593 51 l 593 7 q 582 -25 593 -14 q 501 -105 529 -74 q 461 -156 472 -136 q 450 -193 450 -176 q 491 -234 450 -222 q 583 -246 532 -246 q 605 -255 596 -246 q 614 -276 614 -264 q 605 -298 614 -289 q 583 -307 596 -307 z "},"F":{"ha":660,"x_min":136,"x_max":601,"o":"m 171 0 q 147 10 157 0 q 136 35 136 21 l 136 708 q 147 733 136 724 q 171 743 157 743 l 567 743 q 592 733 582 743 q 601 708 601 724 q 592 684 601 694 q 567 674 582 674 l 206 674 l 206 406 l 496 406 q 521 396 511 406 q 531 371 531 386 q 521 347 531 357 q 496 336 511 336 l 206 336 l 206 35 q 196 10 206 21 q 171 0 186 0 z "},"G":{"ha":858,"x_min":85,"x_max":746,"o":"m 728 61 q 612 8 676 29 q 461 -12 547 -12 q 258 38 342 -12 q 129 175 174 89 q 85 367 85 261 q 134 571 85 483 q 269 707 183 658 q 465 756 356 756 q 580 744 526 756 q 681 715 633 732 q 703 683 703 707 q 694 659 703 669 q 668 649 685 649 q 656 651 664 649 q 568 676 615 667 q 465 686 521 686 q 305 646 375 686 q 194 534 235 606 q 154 367 154 463 q 190 210 154 281 q 295 99 226 140 q 461 57 364 57 q 581 72 529 57 q 676 110 633 86 l 676 311 l 483 311 q 459 322 469 311 q 449 346 449 332 q 459 371 449 361 q 483 381 469 381 l 696 381 q 734 373 722 381 q 746 346 746 365 l 746 96 q 728 61 746 72 z "},"Ğ":{"ha":858,"x_min":85,"x_max":746,"o":"m 728 61 q 612 8 676 29 q 461 -12 547 -12 q 258 38 342 -12 q 129 175 174 89 q 85 367 85 261 q 134 571 85 483 q 269 707 183 658 q 465 756 356 756 q 580 744 526 756 q 681 715 633 732 q 703 683 703 707 q 694 659 703 669 q 668 649 685 649 q 656 651 664 649 q 568 676 615 667 q 465 686 521 686 q 305 646 375 686 q 194 534 235 606 q 154 367 154 463 q 190 210 154 281 q 295 99 226 140 q 461 57 364 57 q 581 72 529 57 q 676 110 633 86 l 676 311 l 483 311 q 459 322 469 311 q 449 346 449 332 q 459 371 449 361 q 483 381 469 381 l 696 381 q 734 373 722 381 q 746 346 746 365 l 746 96 q 728 61 746 72 m 310 1049 q 373 994 336 1015 q 451 972 410 972 q 532 992 499 972 q 588 1046 565 1013 q 614 1060 597 1060 q 635 1050 626 1060 q 643 1028 643 1040 q 638 1013 643 1021 q 560 939 606 967 q 451 911 515 911 q 347 939 396 911 q 263 1010 297 967 q 256 1029 256 1019 q 265 1051 256 1042 q 286 1060 274 1060 q 310 1049 301 1060 z "},"Ģ":{"ha":858,"x_min":85,"x_max":746,"o":"m 728 61 q 612 8 676 29 q 461 -12 547 -12 q 258 38 342 -12 q 129 175 174 89 q 85 367 85 261 q 134 571 85 483 q 269 707 183 658 q 465 756 356 756 q 580 744 526 756 q 681 715 633 732 q 703 683 703 707 q 694 659 703 669 q 668 649 685 649 q 656 651 664 649 q 568 676 615 667 q 465 686 521 686 q 305 646 375 686 q 194 534 235 606 q 154 367 154 463 q 190 210 154 281 q 295 99 226 140 q 461 57 364 57 q 581 72 529 57 q 676 110 633 86 l 676 311 l 483 311 q 459 322 469 311 q 449 346 449 332 q 459 371 449 361 q 483 381 469 381 l 696 381 q 734 373 722 381 q 746 346 746 365 l 746 96 q 728 61 746 72 m 492 -139 q 508 -206 508 -169 q 477 -298 508 -253 q 383 -364 446 -343 q 371 -367 375 -367 q 350 -358 360 -367 q 340 -336 340 -349 q 358 -308 340 -317 q 422 -263 396 -289 q 447 -206 447 -237 q 439 -169 447 -183 q 435 -154 435 -161 q 465 -124 435 -124 q 492 -139 483 -124 z "},"H":{"ha":876,"x_min":136,"x_max":740,"o":"m 706 0 q 681 10 692 0 q 671 35 671 21 l 671 361 l 206 361 l 206 35 q 196 10 206 21 q 171 0 186 0 q 147 10 157 0 q 136 35 136 21 l 136 708 q 147 733 136 724 q 171 743 157 743 q 196 733 186 743 q 206 708 206 724 l 206 431 l 671 431 l 671 708 q 681 733 671 724 q 706 743 692 743 q 731 733 721 743 q 740 708 740 724 l 740 35 q 731 10 740 21 q 706 0 721 0 z "},"I":{"ha":356,"x_min":143,"x_max":213,"o":"m 213 35 q 203 10 213 21 q 178 0 193 0 q 153 10 164 0 q 143 35 143 21 l 143 708 q 153 733 143 724 q 178 743 164 743 q 203 733 193 743 q 213 708 213 724 l 213 35 z "},"Í":{"ha":356,"x_min":126,"x_max":358,"o":"m 213 35 q 203 10 213 21 q 178 0 193 0 q 153 10 164 0 q 143 35 143 21 l 143 708 q 153 733 143 724 q 178 743 164 743 q 203 733 193 743 q 213 708 213 724 l 213 35 m 343 983 q 250 926 296 956 q 175 875 204 897 q 157 869 168 869 q 135 879 143 869 q 126 901 126 889 q 139 926 126 918 q 218 977 171 947 q 313 1038 265 1007 q 326 1042 319 1042 q 350 1032 342 1042 q 358 1011 358 1022 q 343 983 358 992 z "},"Î":{"ha":356,"x_min":3,"x_max":340,"o":"m 213 35 q 203 10 213 21 q 178 0 193 0 q 153 10 164 0 q 143 35 143 21 l 143 708 q 153 733 143 724 q 178 743 164 743 q 203 733 193 743 q 213 708 213 724 l 213 35 m 310 879 q 292 886 301 879 q 234 928 264 906 q 172 972 204 950 q 109 928 140 950 q 51 886 78 906 q 33 881 44 881 q 3 910 3 881 q 15 935 3 925 q 79 983 44 958 q 149 1032 114 1007 q 169 1039 158 1039 l 174 1039 q 194 1032 185 1039 q 265 983 231 1007 q 328 935 299 958 q 340 910 340 925 q 333 889 340 899 q 310 879 325 879 z "},"Ï":{"ha":356,"x_min":-19,"x_max":357,"o":"m 213 35 q 203 10 213 21 q 178 0 193 0 q 153 10 164 0 q 143 35 143 21 l 143 708 q 153 733 143 724 q 178 743 164 743 q 203 733 193 743 q 213 708 213 724 l 213 35 m 304 1014 q 340 997 324 1014 q 357 947 357 979 q 340 897 357 913 q 304 881 324 881 q 267 897 283 881 q 250 947 250 914 q 267 997 250 979 q 304 1014 283 1014 m 36 1014 q 72 997 56 1014 q 89 947 89 979 q 72 897 89 913 q 36 881 56 881 q -2 898 15 881 q -19 947 -19 915 q -2 996 -19 978 q 36 1014 15 1014 z "},"İ":{"ha":356,"x_min":118,"x_max":233,"o":"m 213 35 q 203 10 213 21 q 178 0 193 0 q 153 10 164 0 q 143 35 143 21 l 143 708 q 153 733 143 724 q 178 743 164 743 q 203 733 193 743 q 213 708 213 724 l 213 35 m 178 1026 q 216 1008 199 1026 q 233 957 233 989 q 217 909 233 926 q 178 892 200 892 q 135 910 153 892 q 118 957 118 929 q 136 1007 118 988 q 178 1026 154 1026 z "},"Ì":{"ha":356,"x_min":-6,"x_max":218,"o":"m 213 35 q 203 10 213 21 q 178 0 193 0 q 153 10 164 0 q 143 35 143 21 l 143 708 q 153 733 143 724 q 178 743 164 743 q 203 733 193 743 q 213 708 213 724 l 213 35 m 42 1039 q 99 1005 68 1026 q 159 961 131 983 q 207 924 188 939 q 218 900 218 915 q 208 878 218 888 q 186 868 199 868 q 167 875 176 868 q 121 910 149 889 q 64 951 93 931 q 10 985 35 971 q -6 1011 -6 993 q 3 1033 -6 1022 q 26 1043 13 1043 q 42 1039 33 1043 z "},"Ī":{"ha":356,"x_min":25,"x_max":331,"o":"m 50 922 q 33 931 40 922 q 25 953 25 940 q 33 974 25 965 q 50 983 40 983 l 307 983 q 324 974 317 983 q 331 953 331 965 q 324 931 331 940 q 307 922 317 922 l 50 922 m 213 35 q 203 10 213 21 q 178 0 193 0 q 153 10 164 0 q 143 35 143 21 l 143 708 q 153 733 143 724 q 178 743 164 743 q 203 733 193 743 q 213 708 213 724 l 213 35 z "},"Į":{"ha":356,"x_min":0,"x_max":225,"o":"m 194 -307 q 78 -290 121 -307 q 17 -248 35 -274 q 0 -193 0 -222 q 10 -149 0 -174 q 50 -91 19 -125 q 143 -6 81 -57 l 143 708 q 153 733 143 724 q 178 743 164 743 q 203 733 193 743 q 213 708 213 724 l 213 -6 q 193 -43 213 -28 q 90 -135 119 -103 q 61 -193 61 -168 q 102 -234 61 -222 q 194 -246 143 -246 q 216 -255 207 -246 q 225 -276 225 -264 q 216 -298 225 -289 q 194 -307 207 -307 z "},"J":{"ha":540,"x_min":64,"x_max":421,"o":"m 132 72 q 171 62 147 67 q 222 57 194 57 q 321 103 290 57 q 351 232 351 150 l 351 708 q 362 733 351 724 q 386 743 372 743 q 411 733 401 743 q 421 708 421 724 l 421 232 q 369 47 421 106 q 222 -12 317 -12 q 85 17 151 -12 q 69 30 75 21 q 64 49 64 39 q 74 74 64 64 q 99 83 85 83 q 112 81 104 83 q 132 72 119 78 z "},"K":{"ha":774,"x_min":136,"x_max":700,"o":"m 665 0 q 639 13 650 0 q 574 88 613 43 q 494 185 536 133 q 410 285 451 236 q 338 374 369 335 q 261 303 296 335 q 206 253 226 272 l 206 35 q 196 10 206 21 q 171 0 186 0 q 147 10 157 0 q 136 35 136 21 l 136 708 q 147 733 136 724 q 171 743 157 743 q 196 733 186 743 q 206 708 206 724 l 206 346 q 297 430 244 382 q 406 531 349 478 q 517 637 463 585 q 613 732 571 689 q 638 743 624 743 q 662 733 651 743 q 672 708 672 722 q 663 685 672 697 q 534 556 608 628 q 389 419 460 485 q 462 332 421 382 q 546 231 503 282 q 627 133 589 179 q 692 57 665 88 q 700 35 700 49 q 690 11 700 22 q 665 0 681 0 z "},"Ķ":{"ha":774,"x_min":136,"x_max":700,"o":"m 665 0 q 639 13 650 0 q 574 88 613 43 q 494 185 536 133 q 410 285 451 236 q 338 374 369 335 q 261 303 296 335 q 206 253 226 272 l 206 35 q 196 10 206 21 q 171 0 186 0 q 147 10 157 0 q 136 35 136 21 l 136 708 q 147 733 136 724 q 171 743 157 743 q 196 733 186 743 q 206 708 206 724 l 206 346 q 297 430 244 382 q 406 531 349 478 q 517 637 463 585 q 613 732 571 689 q 638 743 624 743 q 662 733 651 743 q 672 708 672 722 q 663 685 672 697 q 534 556 608 628 q 389 419 460 485 q 462 332 421 382 q 546 231 503 282 q 627 133 589 179 q 692 57 665 88 q 700 35 700 49 q 690 11 700 22 q 665 0 681 0 m 413 -106 q 429 -172 429 -136 q 398 -265 429 -219 q 304 -331 367 -310 q 292 -333 296 -333 q 271 -324 281 -333 q 261 -303 261 -315 q 279 -275 261 -283 q 342 -230 317 -256 q 368 -172 368 -204 q 360 -136 368 -150 q 356 -121 356 -128 q 386 -90 356 -90 q 413 -106 404 -90 z "},"L":{"ha":638,"x_min":136,"x_max":582,"o":"m 171 0 q 147 10 157 0 q 136 35 136 21 l 136 708 q 147 733 136 724 q 171 743 157 743 q 196 733 186 743 q 206 708 206 724 l 206 69 l 547 69 q 572 60 563 69 q 582 35 582 50 q 572 10 582 21 q 547 0 563 0 l 171 0 z "},"Ĺ":{"ha":638,"x_min":119,"x_max":582,"o":"m 171 0 q 147 10 157 0 q 136 35 136 21 l 136 708 q 147 733 136 724 q 171 743 157 743 q 196 733 186 743 q 206 708 206 724 l 206 69 l 547 69 q 572 60 563 69 q 582 35 582 50 q 572 10 582 21 q 547 0 563 0 l 171 0 m 336 983 q 243 926 289 956 q 168 875 197 897 q 150 869 161 869 q 128 879 136 869 q 119 901 119 889 q 132 926 119 918 q 211 977 164 947 q 306 1038 258 1007 q 319 1042 313 1042 q 343 1032 335 1042 q 351 1011 351 1022 q 336 983 351 992 z "},"Ľ":{"ha":638,"x_min":136,"x_max":582,"o":"m 453 528 q 441 507 451 515 q 418 499 431 499 q 394 509 404 499 q 383 533 383 519 q 388 568 383 543 l 411 732 q 424 754 414 747 q 446 761 433 761 q 472 750 463 761 q 481 726 481 739 q 478 704 481 722 q 474 671 476 686 l 453 528 m 171 0 q 147 10 157 0 q 136 35 136 21 l 136 708 q 147 733 136 724 q 171 743 157 743 q 196 733 186 743 q 206 708 206 724 l 206 69 l 547 69 q 572 60 563 69 q 582 35 582 50 q 572 10 582 21 q 547 0 563 0 l 171 0 z "},"Ļ":{"ha":638,"x_min":136,"x_max":582,"o":"m 171 0 q 147 10 157 0 q 136 35 136 21 l 136 708 q 147 733 136 724 q 171 743 157 743 q 196 733 186 743 q 206 708 206 724 l 206 69 l 547 69 q 572 60 563 69 q 582 35 582 50 q 572 10 582 21 q 547 0 563 0 l 171 0 m 392 -126 q 408 -193 408 -157 q 377 -285 408 -240 q 283 -351 346 -331 q 271 -354 275 -354 q 250 -345 260 -354 q 240 -324 240 -336 q 258 -296 240 -304 q 322 -251 296 -276 q 347 -193 347 -225 q 339 -157 347 -171 q 335 -142 335 -149 q 365 -111 335 -111 q 392 -126 383 -111 z "},"Ł":{"ha":658,"x_min":51,"x_max":603,"o":"m 192 0 q 167 10 178 0 q 157 35 157 21 l 157 289 l 106 256 q 88 250 99 250 q 63 261 74 250 q 51 283 51 272 q 67 314 51 303 l 157 374 l 157 708 q 167 733 157 724 q 192 743 178 743 q 217 733 207 743 q 226 708 226 724 l 226 419 l 365 511 q 383 517 372 517 q 409 506 399 517 q 419 483 419 494 q 404 453 419 464 l 226 335 l 226 69 l 568 69 q 593 60 583 69 q 603 35 603 50 q 593 10 603 21 q 568 0 583 0 l 192 0 z "},"M":{"ha":1139,"x_min":111,"x_max":1026,"o":"m 992 -3 q 969 6 979 -3 q 957 28 960 14 q 932 207 947 107 q 899 414 917 307 q 861 621 881 521 q 767 427 815 528 q 676 229 719 326 q 599 47 633 132 q 568 24 589 24 q 535 43 543 24 q 446 230 494 129 q 349 432 397 331 q 260 619 301 533 q 237 464 249 546 q 215 301 225 382 q 195 150 204 221 q 181 28 186 79 q 169 6 179 15 q 144 -3 158 -3 q 121 8 131 -3 q 111 33 111 18 q 115 74 111 36 q 131 199 121 119 q 153 372 140 278 q 179 558 165 465 q 206 726 193 651 q 219 747 208 739 q 242 756 229 756 q 267 744 258 756 q 289 711 281 731 q 374 537 328 633 q 471 339 421 440 q 565 144 521 238 q 652 340 606 236 q 748 547 699 443 q 844 739 797 650 q 876 757 856 757 q 900 749 889 757 q 913 729 911 742 q 945 555 929 647 q 975 378 961 463 q 998 230 989 293 q 1011 143 1007 167 q 1024 56 1022 75 q 1026 32 1026 36 q 1017 8 1026 18 q 992 -3 1007 -3 z "},"N":{"ha":882,"x_min":136,"x_max":746,"o":"m 675 14 q 566 157 628 78 q 439 319 504 236 q 313 479 374 401 q 206 617 253 557 l 206 35 q 196 10 206 21 q 171 0 186 0 q 147 10 157 0 q 136 35 136 21 l 136 708 q 147 733 136 724 q 169 743 157 743 q 207 729 197 743 q 297 612 242 683 q 419 456 353 540 q 552 287 485 372 q 676 126 619 201 l 676 708 q 687 733 676 724 q 711 743 697 743 q 736 733 726 743 q 746 708 746 724 l 746 35 q 736 10 746 21 q 713 0 726 0 q 675 14 685 0 z "},"Ń":{"ha":882,"x_min":136,"x_max":746,"o":"m 675 14 q 566 157 628 78 q 439 319 504 236 q 313 479 374 401 q 206 617 253 557 l 206 35 q 196 10 206 21 q 171 0 186 0 q 147 10 157 0 q 136 35 136 21 l 136 708 q 147 733 136 724 q 169 743 157 743 q 207 729 197 743 q 297 612 242 683 q 419 456 353 540 q 552 287 485 372 q 676 126 619 201 l 676 708 q 687 733 676 724 q 711 743 697 743 q 736 733 726 743 q 746 708 746 724 l 746 35 q 736 10 746 21 q 713 0 726 0 q 675 14 685 0 m 614 953 q 521 896 567 925 q 446 844 475 867 q 428 839 439 839 q 406 849 414 839 q 397 871 397 858 q 410 896 397 888 q 489 947 442 917 q 583 1007 536 976 q 597 1011 590 1011 q 621 1001 613 1011 q 629 981 629 992 q 614 953 629 961 z "},"Ň":{"ha":882,"x_min":136,"x_max":746,"o":"m 675 14 q 566 157 628 78 q 439 319 504 236 q 313 479 374 401 q 206 617 253 557 l 206 35 q 196 10 206 21 q 171 0 186 0 q 147 10 157 0 q 136 35 136 21 l 136 708 q 147 733 136 724 q 169 743 157 743 q 207 729 197 743 q 297 612 242 683 q 419 456 353 540 q 552 287 485 372 q 676 126 619 201 l 676 708 q 687 733 676 724 q 711 743 697 743 q 736 733 726 743 q 746 708 746 724 l 746 35 q 736 10 746 21 q 713 0 726 0 q 675 14 685 0 m 444 849 l 442 849 q 419 856 429 849 q 349 906 383 881 q 286 953 314 931 q 274 978 274 964 q 282 998 274 989 q 304 1007 290 1007 q 314 1006 308 1007 q 328 997 319 1004 q 381 960 350 981 q 442 915 411 939 q 504 960 474 939 q 557 997 535 981 q 571 1006 565 1004 q 581 1007 576 1007 q 603 998 594 1007 q 611 978 611 989 q 599 953 611 964 q 537 906 572 931 q 465 856 501 881 q 444 849 456 849 z "},"Ņ":{"ha":882,"x_min":136,"x_max":746,"o":"m 675 14 q 566 157 628 78 q 439 319 504 236 q 313 479 374 401 q 206 617 253 557 l 206 35 q 196 10 206 21 q 171 0 186 0 q 147 10 157 0 q 136 35 136 21 l 136 708 q 147 733 136 724 q 169 743 157 743 q 207 729 197 743 q 297 612 242 683 q 419 456 353 540 q 552 287 485 372 q 676 126 619 201 l 676 708 q 687 733 676 724 q 711 743 697 743 q 736 733 726 743 q 746 708 746 724 l 746 35 q 736 10 746 21 q 713 0 726 0 q 675 14 685 0 m 465 -104 q 482 -171 482 -135 q 451 -263 482 -218 q 357 -329 419 -308 q 344 -332 349 -332 q 324 -323 333 -332 q 314 -301 314 -314 q 332 -274 314 -282 q 395 -228 369 -254 q 421 -171 421 -203 q 413 -135 421 -149 q 408 -119 408 -126 q 439 -89 408 -89 q 465 -104 457 -89 z "},"Ñ":{"ha":882,"x_min":136,"x_max":746,"o":"m 675 14 q 566 157 628 78 q 439 319 504 236 q 313 479 374 401 q 206 617 253 557 l 206 35 q 196 10 206 21 q 171 0 186 0 q 147 10 157 0 q 136 35 136 21 l 136 708 q 147 733 136 724 q 169 743 157 743 q 207 729 197 743 q 297 612 242 683 q 419 456 353 540 q 552 287 485 372 q 676 126 619 201 l 676 708 q 687 733 676 724 q 711 743 697 743 q 736 733 726 743 q 746 708 746 724 l 746 35 q 736 10 746 21 q 713 0 726 0 q 675 14 685 0 m 242 919 q 360 996 303 996 q 411 985 388 996 q 458 954 435 974 q 493 931 478 939 q 522 922 508 922 q 564 939 546 922 q 603 982 582 956 q 626 994 611 994 q 649 985 640 994 q 657 964 657 975 q 650 946 657 956 q 588 882 617 903 q 522 861 558 861 q 476 872 499 861 q 426 901 453 882 q 392 926 407 917 q 360 935 376 935 q 324 919 342 935 q 289 881 307 904 q 265 869 281 869 q 244 878 253 869 q 235 900 235 888 q 242 919 235 910 z "},"O":{"ha":889,"x_min":85,"x_max":804,"o":"m 447 756 q 627 707 546 756 q 756 572 708 658 q 804 371 804 485 q 762 176 804 263 q 640 38 719 89 q 447 -12 560 -12 q 260 38 342 -12 q 131 175 178 89 q 85 367 85 261 q 131 571 85 483 q 258 707 176 658 q 447 756 339 756 m 447 686 q 294 645 360 686 q 191 533 228 604 q 154 367 154 461 q 191 211 154 282 q 294 99 228 140 q 447 57 361 57 q 603 99 539 57 q 701 212 668 140 q 735 371 735 283 q 697 533 735 463 q 593 645 658 604 q 447 686 528 686 z "},"Ó":{"ha":889,"x_min":85,"x_max":804,"o":"m 447 756 q 627 707 546 756 q 756 572 708 658 q 804 371 804 485 q 762 176 804 263 q 640 38 719 89 q 447 -12 560 -12 q 260 38 342 -12 q 131 175 178 89 q 85 367 85 261 q 131 571 85 483 q 258 707 176 658 q 447 756 339 756 m 447 686 q 294 645 360 686 q 191 533 228 604 q 154 367 154 461 q 191 211 154 282 q 294 99 228 140 q 447 57 361 57 q 603 99 539 57 q 701 212 668 140 q 735 371 735 283 q 697 533 735 463 q 593 645 658 604 q 447 686 528 686 m 613 986 q 519 929 565 958 q 444 878 474 900 q 426 872 438 872 q 404 882 413 872 q 396 904 396 892 q 408 929 396 921 q 488 980 440 950 q 582 1040 535 1010 q 596 1044 589 1044 q 619 1035 611 1044 q 628 1014 628 1025 q 613 986 628 994 z "},"Ô":{"ha":889,"x_min":85,"x_max":804,"o":"m 447 756 q 627 707 546 756 q 756 572 708 658 q 804 371 804 485 q 762 176 804 263 q 640 38 719 89 q 447 -12 560 -12 q 260 38 342 -12 q 131 175 178 89 q 85 367 85 261 q 131 571 85 483 q 258 707 176 658 q 447 756 339 756 m 447 686 q 294 645 360 686 q 191 533 228 604 q 154 367 154 461 q 191 211 154 282 q 294 99 228 140 q 447 57 361 57 q 603 99 539 57 q 701 212 668 140 q 735 371 735 283 q 697 533 735 463 q 593 645 658 604 q 447 686 528 686 m 579 868 q 561 875 571 868 q 503 917 533 894 q 442 961 474 939 q 378 917 410 939 q 321 875 347 894 q 303 869 314 869 q 272 899 272 869 q 285 924 272 914 q 349 972 314 947 q 418 1021 383 996 q 439 1028 428 1028 l 443 1028 q 464 1021 454 1028 q 534 972 500 996 q 597 924 568 947 q 610 899 610 914 q 602 878 610 888 q 579 868 594 868 z "},"Ö":{"ha":889,"x_min":85,"x_max":804,"o":"m 447 756 q 627 707 546 756 q 756 572 708 658 q 804 371 804 485 q 762 176 804 263 q 640 38 719 89 q 447 -12 560 -12 q 260 38 342 -12 q 131 175 178 89 q 85 367 85 261 q 131 571 85 483 q 258 707 176 658 q 447 756 339 756 m 447 686 q 294 645 360 686 q 191 533 228 604 q 154 367 154 461 q 191 211 154 282 q 294 99 228 140 q 447 57 361 57 q 603 99 539 57 q 701 212 668 140 q 735 371 735 283 q 697 533 735 463 q 593 645 658 604 q 447 686 528 686 m 574 1017 q 610 999 593 1017 q 626 950 626 982 q 610 899 626 915 q 574 883 593 883 q 536 900 553 883 q 519 950 519 917 q 536 999 519 982 q 574 1017 553 1017 m 306 1017 q 342 999 325 1017 q 358 950 358 982 q 342 899 358 915 q 306 883 325 883 q 267 901 285 883 q 250 950 250 918 q 267 999 250 981 q 306 1017 285 1017 z "},"Ò":{"ha":889,"x_min":85,"x_max":804,"o":"m 447 756 q 627 707 546 756 q 756 572 708 658 q 804 371 804 485 q 762 176 804 263 q 640 38 719 89 q 447 -12 560 -12 q 260 38 342 -12 q 131 175 178 89 q 85 367 85 261 q 131 571 85 483 q 258 707 176 658 q 447 756 339 756 m 447 686 q 294 645 360 686 q 191 533 228 604 q 154 367 154 461 q 191 211 154 282 q 294 99 228 140 q 447 57 361 57 q 603 99 539 57 q 701 212 668 140 q 735 371 735 283 q 697 533 735 463 q 593 645 658 604 q 447 686 528 686 m 311 1042 q 369 1008 338 1029 q 428 964 400 986 q 476 926 457 942 q 488 903 488 918 q 478 881 488 890 q 456 871 468 871 q 436 878 446 871 q 390 913 418 892 q 333 953 363 933 q 279 988 304 974 q 264 1014 264 996 q 273 1035 264 1025 q 296 1046 282 1046 q 311 1042 303 1046 z "},"Ő":{"ha":889,"x_min":85,"x_max":804,"o":"m 447 756 q 627 707 546 756 q 756 572 708 658 q 804 371 804 485 q 762 176 804 263 q 640 38 719 89 q 447 -12 560 -12 q 260 38 342 -12 q 131 175 178 89 q 85 367 85 261 q 131 571 85 483 q 258 707 176 658 q 447 756 339 756 m 447 686 q 294 645 360 686 q 191 533 228 604 q 154 367 154 461 q 191 211 154 282 q 294 99 228 140 q 447 57 361 57 q 603 99 539 57 q 701 212 668 140 q 735 371 735 283 q 697 533 735 463 q 593 645 658 604 q 447 686 528 686 m 669 1015 q 631 950 647 981 q 603 889 615 919 q 575 869 596 869 q 553 878 563 869 q 544 899 544 886 q 554 929 544 908 q 578 980 564 950 q 617 1049 593 1010 q 644 1063 625 1063 q 666 1053 658 1063 q 674 1031 674 1043 q 669 1015 674 1022 m 385 1015 q 347 950 363 981 q 318 889 331 919 q 290 869 311 869 q 268 879 276 869 q 260 899 260 889 q 261 909 260 901 q 268 931 263 917 q 292 980 276 950 q 332 1049 308 1010 q 360 1063 340 1063 q 381 1053 374 1063 q 389 1031 389 1044 q 385 1015 389 1022 z "},"Ō":{"ha":889,"x_min":85,"x_max":804,"o":"m 238 922 q 213 931 224 922 q 201 953 201 940 q 213 974 201 965 q 238 983 224 983 l 625 983 q 651 974 640 983 q 661 953 661 965 q 651 931 661 940 q 625 922 640 922 l 238 922 m 447 756 q 627 707 546 756 q 756 572 708 658 q 804 371 804 485 q 762 176 804 263 q 640 38 719 89 q 447 -12 560 -12 q 260 38 342 -12 q 131 175 178 89 q 85 367 85 261 q 131 571 85 483 q 258 707 176 658 q 447 756 339 756 m 447 686 q 294 645 360 686 q 191 533 228 604 q 154 367 154 461 q 191 211 154 282 q 294 99 228 140 q 447 57 361 57 q 603 99 539 57 q 701 212 668 140 q 735 371 735 283 q 697 533 735 463 q 593 645 658 604 q 447 686 528 686 z "},"Ø":{"ha":889,"x_min":85,"x_max":804,"o":"m 186 -14 q 160 -26 176 -26 q 136 -16 147 -26 q 125 8 125 -6 q 133 31 125 21 l 188 97 q 112 217 139 149 q 85 367 85 286 q 131 571 85 483 q 258 707 176 658 q 447 756 339 756 q 663 682 569 756 l 703 731 q 729 743 714 743 q 753 733 743 743 q 764 708 764 722 q 756 686 764 697 l 713 633 q 780 517 756 583 q 804 371 804 450 q 762 176 804 263 q 640 38 719 89 q 447 -12 560 -12 q 335 4 388 -12 q 239 51 283 21 l 186 -14 m 154 367 q 232 151 154 238 l 619 628 q 447 686 544 686 q 294 645 360 686 q 191 533 228 604 q 154 367 154 461 m 447 57 q 603 99 539 57 q 701 212 668 140 q 735 371 735 283 q 717 485 735 432 q 668 578 700 538 l 283 106 q 359 70 318 83 q 447 57 400 57 z "},"Õ":{"ha":889,"x_min":85,"x_max":804,"o":"m 447 756 q 627 707 546 756 q 756 572 708 658 q 804 371 804 485 q 762 176 804 263 q 640 38 719 89 q 447 -12 560 -12 q 260 38 342 -12 q 131 175 178 89 q 85 367 85 261 q 131 571 85 483 q 258 707 176 658 q 447 756 339 756 m 447 686 q 294 645 360 686 q 191 533 228 604 q 154 367 154 461 q 191 211 154 282 q 294 99 228 140 q 447 57 361 57 q 603 99 539 57 q 701 212 668 140 q 735 371 735 283 q 697 533 735 463 q 593 645 658 604 q 447 686 528 686 m 240 939 q 358 1015 301 1015 q 410 1004 386 1015 q 457 974 433 993 q 492 950 476 958 q 521 942 507 942 q 563 958 544 942 q 601 1001 581 975 q 625 1014 610 1014 q 647 1004 639 1014 q 656 983 656 994 q 649 965 656 975 q 586 901 615 922 q 521 881 557 881 q 474 891 497 881 q 425 921 451 901 q 390 945 406 936 q 358 954 375 954 q 323 939 340 954 q 288 900 306 924 q 264 889 279 889 q 242 898 251 889 q 233 919 233 907 q 240 939 233 929 z "},"Œ":{"ha":1126,"x_min":85,"x_max":1043,"o":"m 447 0 q 260 49 342 0 q 131 182 178 99 q 85 368 85 265 q 131 564 85 479 q 258 696 176 649 q 447 743 339 743 l 1006 743 q 1031 733 1021 743 q 1040 708 1040 724 q 1031 684 1040 694 q 1006 674 1021 674 l 656 674 l 656 432 l 946 432 q 971 422 961 432 q 981 397 981 413 q 971 373 981 383 q 946 363 961 363 l 656 363 l 656 69 l 1008 69 q 1033 60 1024 69 q 1043 35 1043 50 q 1033 10 1043 21 q 1008 0 1024 0 l 447 0 m 586 69 l 586 674 l 447 674 q 294 635 360 674 q 191 527 228 596 q 154 368 154 458 q 191 217 154 285 q 294 110 228 150 q 447 69 361 69 l 586 69 z "},"P":{"ha":708,"x_min":136,"x_max":642,"o":"m 171 0 q 147 10 157 0 q 136 35 136 21 l 136 708 q 147 733 136 724 q 171 743 157 743 l 369 743 q 513 710 451 743 q 608 622 574 678 q 642 494 642 567 q 612 371 642 428 q 522 279 582 314 q 369 244 461 244 l 206 244 l 206 35 q 196 10 206 21 q 171 0 186 0 m 206 674 l 206 314 l 369 314 q 520 366 468 314 q 572 494 572 418 q 515 624 572 575 q 369 674 458 674 l 206 674 z "},"Þ":{"ha":701,"x_min":136,"x_max":629,"o":"m 171 0 q 147 10 157 0 q 136 35 136 21 l 136 708 q 147 733 136 724 q 171 743 157 743 q 196 733 186 743 q 206 708 206 724 l 206 613 l 361 613 q 503 581 443 613 q 597 497 564 550 q 629 374 629 443 q 601 258 629 311 q 513 172 572 204 q 361 140 454 140 l 206 140 l 206 35 q 196 10 206 21 q 171 0 186 0 m 206 543 l 206 210 l 361 210 q 509 258 458 210 q 560 374 560 306 q 504 497 560 450 q 361 543 449 543 l 206 543 z "},"Q":{"ha":889,"x_min":85,"x_max":804,"o":"m 711 -199 q 518 -144 593 -199 q 415 -11 443 -89 q 243 49 318 -3 q 126 184 168 101 q 85 367 85 267 q 131 571 85 483 q 258 707 176 658 q 447 756 339 756 q 627 707 546 756 q 756 572 708 658 q 804 371 804 485 q 767 187 804 269 q 660 51 731 104 q 489 -11 589 -1 q 573 -96 515 -62 q 711 -129 631 -129 q 736 -140 726 -129 q 746 -164 746 -150 q 736 -188 746 -178 q 711 -199 726 -199 m 447 686 q 294 645 360 686 q 191 533 228 604 q 154 367 154 461 q 191 211 154 282 q 294 99 228 140 q 447 57 361 57 q 603 99 539 57 q 701 212 668 140 q 735 371 735 283 q 697 533 735 463 q 593 645 658 604 q 447 686 528 686 z "},"R":{"ha":751,"x_min":136,"x_max":679,"o":"m 644 0 q 618 13 629 0 l 392 276 l 206 276 l 206 35 q 196 10 206 21 q 171 0 186 0 q 147 10 157 0 q 136 35 136 21 l 136 708 q 147 733 136 724 q 171 743 157 743 l 375 743 q 516 713 457 743 q 608 630 575 682 q 640 510 640 578 q 599 374 640 435 q 472 289 558 313 l 671 57 q 679 35 679 49 q 669 11 679 22 q 644 0 660 0 m 206 674 l 206 346 l 375 346 q 521 394 471 346 q 571 510 571 442 q 516 628 571 583 q 375 674 461 674 l 206 674 z "},"Ŕ":{"ha":751,"x_min":136,"x_max":679,"o":"m 644 0 q 618 13 629 0 l 392 276 l 206 276 l 206 35 q 196 10 206 21 q 171 0 186 0 q 147 10 157 0 q 136 35 136 21 l 136 708 q 147 733 136 724 q 171 743 157 743 l 375 743 q 516 713 457 743 q 608 630 575 682 q 640 510 640 578 q 599 374 640 435 q 472 289 558 313 l 671 57 q 679 35 679 49 q 669 11 679 22 q 644 0 660 0 m 206 674 l 206 346 l 375 346 q 521 394 471 346 q 571 510 571 442 q 516 628 571 583 q 375 674 461 674 l 206 674 m 515 983 q 422 926 468 956 q 347 875 376 897 q 329 869 340 869 q 307 879 315 869 q 299 901 299 889 q 311 926 299 918 q 390 977 343 947 q 485 1038 438 1007 q 499 1042 492 1042 q 522 1032 514 1042 q 531 1011 531 1022 q 515 983 531 992 z "},"Ř":{"ha":751,"x_min":136,"x_max":679,"o":"m 644 0 q 618 13 629 0 l 392 276 l 206 276 l 206 35 q 196 10 206 21 q 171 0 186 0 q 147 10 157 0 q 136 35 136 21 l 136 708 q 147 733 136 724 q 171 743 157 743 l 375 743 q 516 713 457 743 q 608 630 575 682 q 640 510 640 578 q 599 374 640 435 q 472 289 558 313 l 671 57 q 679 35 679 49 q 669 11 679 22 q 644 0 660 0 m 206 674 l 206 346 l 375 346 q 521 394 471 346 q 571 510 571 442 q 516 628 571 583 q 375 674 461 674 l 206 674 m 346 879 l 343 879 q 321 886 331 879 q 250 936 285 911 q 188 983 215 961 q 175 1008 175 994 q 183 1028 175 1019 q 206 1038 192 1038 q 215 1036 210 1038 q 229 1028 221 1035 q 282 990 251 1011 q 343 946 313 969 q 406 990 375 969 q 458 1028 436 1011 q 472 1036 467 1035 q 482 1038 478 1038 q 504 1028 496 1038 q 513 1008 513 1019 q 500 983 513 994 q 438 936 474 961 q 367 886 403 911 q 346 879 357 879 z "},"Ŗ":{"ha":751,"x_min":136,"x_max":679,"o":"m 644 0 q 618 13 629 0 l 392 276 l 206 276 l 206 35 q 196 10 206 21 q 171 0 186 0 q 147 10 157 0 q 136 35 136 21 l 136 708 q 147 733 136 724 q 171 743 157 743 l 375 743 q 516 713 457 743 q 608 630 575 682 q 640 510 640 578 q 599 374 640 435 q 472 289 558 313 l 671 57 q 679 35 679 49 q 669 11 679 22 q 644 0 660 0 m 206 674 l 206 346 l 375 346 q 521 394 471 346 q 571 510 571 442 q 516 628 571 583 q 375 674 461 674 l 206 674 m 404 -122 q 421 -189 421 -153 q 390 -281 421 -236 q 296 -347 358 -326 q 283 -350 288 -350 q 263 -341 272 -350 q 253 -319 253 -332 q 271 -292 253 -300 q 334 -247 308 -272 q 360 -189 360 -221 q 351 -153 360 -167 q 347 -137 347 -144 q 378 -107 347 -107 q 404 -122 396 -107 z "},"S":{"ha":729,"x_min":96,"x_max":628,"o":"m 514 651 q 441 674 481 665 q 338 682 401 682 q 225 647 267 682 q 183 567 183 611 q 222 486 183 522 q 374 424 261 450 q 528 367 474 401 q 606 288 583 332 q 628 192 628 244 q 602 94 628 140 q 519 17 576 47 q 365 -12 461 -12 q 114 51 229 -12 q 96 82 96 63 q 106 106 96 94 q 131 117 115 117 q 147 113 139 117 q 365 57 246 57 q 509 97 460 57 q 558 192 558 136 q 512 289 558 250 q 360 354 465 328 q 208 411 261 379 q 134 483 154 443 q 114 572 114 524 q 140 658 114 617 q 215 725 165 699 q 338 751 265 751 q 460 740 414 751 q 558 707 507 728 q 581 675 581 699 q 570 651 581 661 q 546 640 560 640 q 538 642 543 640 q 514 651 532 644 z "},"Ś":{"ha":729,"x_min":96,"x_max":628,"o":"m 514 651 q 441 674 481 665 q 338 682 401 682 q 225 647 267 682 q 183 567 183 611 q 222 486 183 522 q 374 424 261 450 q 528 367 474 401 q 606 288 583 332 q 628 192 628 244 q 602 94 628 140 q 519 17 576 47 q 365 -12 461 -12 q 114 51 229 -12 q 96 82 96 63 q 106 106 96 94 q 131 117 115 117 q 147 113 139 117 q 365 57 246 57 q 509 97 460 57 q 558 192 558 136 q 512 289 558 250 q 360 354 465 328 q 208 411 261 379 q 134 483 154 443 q 114 572 114 524 q 140 658 114 617 q 215 725 165 699 q 338 751 265 751 q 460 740 414 751 q 558 707 507 728 q 581 675 581 699 q 570 651 581 661 q 546 640 560 640 q 538 642 543 640 q 514 651 532 644 m 525 985 q 432 928 478 957 q 357 876 386 899 q 339 871 350 871 q 317 881 325 871 q 308 903 308 890 q 321 928 308 919 q 400 978 353 949 q 494 1039 447 1008 q 508 1043 501 1043 q 532 1033 524 1043 q 540 1013 540 1024 q 525 985 540 993 z "},"Š":{"ha":729,"x_min":96,"x_max":628,"o":"m 514 651 q 441 674 481 665 q 338 682 401 682 q 225 647 267 682 q 183 567 183 611 q 222 486 183 522 q 374 424 261 450 q 528 367 474 401 q 606 288 583 332 q 628 192 628 244 q 602 94 628 140 q 519 17 576 47 q 365 -12 461 -12 q 114 51 229 -12 q 96 82 96 63 q 106 106 96 94 q 131 117 115 117 q 147 113 139 117 q 365 57 246 57 q 509 97 460 57 q 558 192 558 136 q 512 289 558 250 q 360 354 465 328 q 208 411 261 379 q 134 483 154 443 q 114 572 114 524 q 140 658 114 617 q 215 725 165 699 q 338 751 265 751 q 460 740 414 751 q 558 707 507 728 q 581 675 581 699 q 570 651 581 661 q 546 640 560 640 q 538 642 543 640 q 514 651 532 644 m 356 881 l 353 881 q 331 888 340 881 q 260 938 294 913 q 197 985 225 963 q 185 1010 185 996 q 193 1030 185 1021 q 215 1039 201 1039 q 225 1038 219 1039 q 239 1029 231 1036 q 292 992 261 1013 q 353 947 322 971 q 415 992 385 971 q 468 1029 446 1013 q 482 1038 476 1036 q 492 1039 488 1039 q 514 1030 506 1039 q 522 1010 522 1021 q 510 985 522 996 q 448 938 483 963 q 376 888 413 913 q 356 881 367 881 z "},"Ş":{"ha":729,"x_min":96,"x_max":628,"o":"m 514 651 q 441 674 481 665 q 338 682 401 682 q 225 647 267 682 q 183 567 183 611 q 222 486 183 522 q 374 424 261 450 q 528 367 474 401 q 606 288 583 332 q 628 192 628 244 q 602 94 628 140 q 519 17 576 47 q 365 -12 461 -12 q 114 51 229 -12 q 96 82 96 63 q 106 106 96 94 q 131 117 115 117 q 147 113 139 117 q 365 57 246 57 q 509 97 460 57 q 558 192 558 136 q 512 289 558 250 q 360 354 465 328 q 208 411 261 379 q 134 483 154 443 q 114 572 114 524 q 140 658 114 617 q 215 725 165 699 q 338 751 265 751 q 460 740 414 751 q 558 707 507 728 q 581 675 581 699 q 570 651 581 661 q 546 640 560 640 q 538 642 543 640 q 514 651 532 644 m 393 -183 q 347 -226 374 -199 q 296 -279 321 -253 q 254 -322 271 -306 q 232 -331 246 -331 q 211 -322 221 -331 q 201 -300 201 -314 q 210 -278 201 -286 q 253 -235 226 -261 q 306 -183 279 -210 q 351 -139 333 -157 q 372 -131 360 -131 q 393 -140 383 -131 q 403 -161 403 -149 q 393 -183 403 -175 z "},"Ș":{"ha":729,"x_min":96,"x_max":628,"o":"m 514 651 q 441 674 481 665 q 338 682 401 682 q 225 647 267 682 q 183 567 183 611 q 222 486 183 522 q 374 424 261 450 q 528 367 474 401 q 606 288 583 332 q 628 192 628 244 q 602 94 628 140 q 519 17 576 47 q 365 -12 461 -12 q 114 51 229 -12 q 96 82 96 63 q 106 106 96 94 q 131 117 115 117 q 147 113 139 117 q 365 57 246 57 q 509 97 460 57 q 558 192 558 136 q 512 289 558 250 q 360 354 465 328 q 208 411 261 379 q 134 483 154 443 q 114 572 114 524 q 140 658 114 617 q 215 725 165 699 q 338 751 265 751 q 460 740 414 751 q 558 707 507 728 q 581 675 581 699 q 570 651 581 661 q 546 640 560 640 q 538 642 543 640 q 514 651 532 644 m 396 -139 q 413 -206 413 -169 q 381 -298 413 -253 q 288 -364 350 -343 q 275 -367 279 -367 q 254 -358 264 -367 q 244 -336 244 -349 q 263 -308 244 -317 q 326 -263 300 -289 q 351 -206 351 -237 q 343 -169 351 -183 q 339 -154 339 -161 q 369 -124 339 -124 q 396 -139 388 -124 z "},"T":{"ha":758,"x_min":47,"x_max":711,"o":"m 376 0 q 352 10 363 0 q 342 35 342 21 l 342 674 l 82 674 q 58 684 68 674 q 47 708 47 694 q 58 733 47 724 q 82 743 68 743 l 676 743 q 701 733 692 743 q 711 708 711 724 q 701 684 711 694 q 676 674 692 674 l 411 674 l 411 35 q 401 10 411 21 q 376 0 392 0 z "},"Ť":{"ha":758,"x_min":47,"x_max":711,"o":"m 376 0 q 352 10 363 0 q 342 35 342 21 l 342 674 l 82 674 q 58 684 68 674 q 47 708 47 694 q 58 733 47 724 q 82 743 68 743 l 676 743 q 701 733 692 743 q 711 708 711 724 q 701 684 711 694 q 676 674 692 674 l 411 674 l 411 35 q 401 10 411 21 q 376 0 392 0 m 375 879 l 372 879 q 350 886 360 879 q 279 936 314 911 q 217 983 244 961 q 204 1008 204 994 q 213 1028 204 1019 q 235 1038 221 1038 q 244 1036 239 1038 q 258 1028 250 1035 q 311 990 281 1011 q 372 946 342 969 q 435 990 404 969 q 488 1028 465 1011 q 501 1036 496 1035 q 511 1038 507 1038 q 533 1028 525 1038 q 542 1008 542 1019 q 529 983 542 994 q 467 936 503 961 q 396 886 432 911 q 375 879 386 879 z "},"Ţ":{"ha":758,"x_min":47,"x_max":711,"o":"m 376 0 q 352 10 363 0 q 342 35 342 21 l 342 674 l 82 674 q 58 684 68 674 q 47 708 47 694 q 58 733 47 724 q 82 743 68 743 l 676 743 q 701 733 692 743 q 711 708 711 724 q 701 684 711 694 q 676 674 692 674 l 411 674 l 411 35 q 401 10 411 21 q 376 0 392 0 m 404 -171 q 358 -213 385 -186 q 307 -267 332 -240 q 265 -310 282 -293 q 243 -318 257 -318 q 222 -310 232 -318 q 213 -287 213 -301 q 221 -265 213 -274 q 264 -223 238 -249 q 317 -171 290 -197 q 363 -126 344 -144 q 383 -118 371 -118 q 404 -127 394 -118 q 414 -149 414 -136 q 404 -171 414 -162 z "},"Ț":{"ha":758,"x_min":47,"x_max":711,"o":"m 376 0 q 352 10 363 0 q 342 35 342 21 l 342 674 l 82 674 q 58 684 68 674 q 47 708 47 694 q 58 733 47 724 q 82 743 68 743 l 676 743 q 701 733 692 743 q 711 708 711 724 q 701 684 711 694 q 676 674 692 674 l 411 674 l 411 35 q 401 10 411 21 q 376 0 392 0 m 407 -126 q 424 -193 424 -157 q 392 -285 424 -240 q 299 -351 361 -331 q 286 -354 290 -354 q 265 -345 275 -354 q 256 -324 256 -336 q 274 -296 256 -304 q 337 -251 311 -276 q 363 -193 363 -225 q 354 -157 363 -171 q 350 -142 350 -149 q 381 -111 350 -111 q 407 -126 399 -111 z "},"U":{"ha":856,"x_min":119,"x_max":736,"o":"m 189 297 q 255 119 189 182 q 425 57 321 57 q 603 120 540 57 q 667 301 667 183 l 667 708 q 677 733 667 724 q 701 743 688 743 q 726 733 717 743 q 736 708 736 724 l 736 301 q 655 69 736 150 q 425 -12 574 -12 q 205 68 290 -12 q 119 297 119 149 l 119 708 q 130 733 119 724 q 154 743 140 743 q 179 733 169 743 q 189 708 189 724 l 189 297 z "},"Ú":{"ha":856,"x_min":119,"x_max":736,"o":"m 189 297 q 255 119 189 182 q 425 57 321 57 q 603 120 540 57 q 667 301 667 183 l 667 708 q 677 733 667 724 q 701 743 688 743 q 726 733 717 743 q 736 708 736 724 l 736 301 q 655 69 736 150 q 425 -12 574 -12 q 205 68 290 -12 q 119 297 119 149 l 119 708 q 130 733 119 724 q 154 743 140 743 q 179 733 169 743 q 189 708 189 724 l 189 297 m 594 939 q 501 882 547 911 q 426 831 456 853 q 408 825 419 825 q 386 835 394 825 q 378 857 378 844 q 390 882 378 874 q 469 933 422 903 q 564 993 517 963 q 578 997 571 997 q 601 988 593 997 q 610 967 610 978 q 594 939 610 947 z "},"Û":{"ha":856,"x_min":119,"x_max":736,"o":"m 189 297 q 255 119 189 182 q 425 57 321 57 q 603 120 540 57 q 667 301 667 183 l 667 708 q 677 733 667 724 q 701 743 688 743 q 726 733 717 743 q 736 708 736 724 l 736 301 q 655 69 736 150 q 425 -12 574 -12 q 205 68 290 -12 q 119 297 119 149 l 119 708 q 130 733 119 724 q 154 743 140 743 q 179 733 169 743 q 189 708 189 724 l 189 297 m 561 835 q 543 842 553 835 q 485 883 515 861 q 424 928 456 906 q 360 883 392 906 q 303 842 329 861 q 285 836 296 836 q 254 865 254 836 q 267 890 254 881 q 331 938 296 914 q 400 988 365 963 q 421 994 410 994 l 425 994 q 446 988 436 994 q 516 938 482 963 q 579 890 550 914 q 592 865 592 881 q 584 844 592 854 q 561 835 576 835 z "},"Ü":{"ha":856,"x_min":119,"x_max":736,"o":"m 189 297 q 255 119 189 182 q 425 57 321 57 q 603 120 540 57 q 667 301 667 183 l 667 708 q 677 733 667 724 q 701 743 688 743 q 726 733 717 743 q 736 708 736 724 l 736 301 q 655 69 736 150 q 425 -12 574 -12 q 205 68 290 -12 q 119 297 119 149 l 119 708 q 130 733 119 724 q 154 743 140 743 q 179 733 169 743 q 189 708 189 724 l 189 297 m 556 969 q 592 952 575 969 q 608 903 608 935 q 592 852 608 868 q 556 836 575 836 q 518 853 535 836 q 501 903 501 869 q 518 952 501 935 q 556 969 535 969 m 288 969 q 324 952 307 969 q 340 903 340 935 q 324 852 340 868 q 288 836 307 836 q 249 853 267 836 q 232 903 232 871 q 249 951 232 933 q 288 969 267 969 z "},"Ù":{"ha":856,"x_min":119,"x_max":736,"o":"m 189 297 q 255 119 189 182 q 425 57 321 57 q 603 120 540 57 q 667 301 667 183 l 667 708 q 677 733 667 724 q 701 743 688 743 q 726 733 717 743 q 736 708 736 724 l 736 301 q 655 69 736 150 q 425 -12 574 -12 q 205 68 290 -12 q 119 297 119 149 l 119 708 q 130 733 119 724 q 154 743 140 743 q 179 733 169 743 q 189 708 189 724 l 189 297 m 293 994 q 351 960 319 982 q 410 917 382 939 q 458 879 439 894 q 469 856 469 871 q 460 833 469 843 q 438 824 450 824 q 418 831 428 824 q 372 865 400 844 q 315 906 344 886 q 261 940 286 926 q 246 967 246 949 q 255 988 246 978 q 278 999 264 999 q 293 994 285 999 z "},"Ű":{"ha":856,"x_min":119,"x_max":736,"o":"m 189 297 q 255 119 189 182 q 425 57 321 57 q 603 120 540 57 q 667 301 667 183 l 667 708 q 677 733 667 724 q 701 743 688 743 q 726 733 717 743 q 736 708 736 724 l 736 301 q 655 69 736 150 q 425 -12 574 -12 q 205 68 290 -12 q 119 297 119 149 l 119 708 q 130 733 119 724 q 154 743 140 743 q 179 733 169 743 q 189 708 189 724 l 189 297 m 651 968 q 613 903 629 933 q 585 842 597 872 q 557 822 578 822 q 535 831 544 822 q 526 851 526 839 q 536 882 526 861 q 560 933 546 903 q 599 1001 575 963 q 626 1015 607 1015 q 648 1006 640 1015 q 656 983 656 996 q 651 968 656 975 m 367 968 q 328 903 344 933 q 300 842 313 872 q 272 822 293 822 q 250 832 258 822 q 242 851 242 842 q 243 862 242 854 q 250 883 244 869 q 274 933 258 903 q 314 1001 290 963 q 342 1015 322 1015 q 363 1006 356 1015 q 371 983 371 997 q 367 968 371 975 z "},"Ū":{"ha":856,"x_min":119,"x_max":736,"o":"m 189 297 q 255 119 189 182 q 425 57 321 57 q 603 120 540 57 q 667 301 667 183 l 667 708 q 677 733 667 724 q 701 743 688 743 q 726 733 717 743 q 736 708 736 724 l 736 301 q 655 69 736 150 q 425 -12 574 -12 q 205 68 290 -12 q 119 297 119 149 l 119 708 q 130 733 119 724 q 154 743 140 743 q 179 733 169 743 q 189 708 189 724 l 189 297 m 264 878 q 242 887 251 878 q 233 908 233 896 q 242 930 233 921 q 264 939 251 939 l 582 939 q 603 930 594 939 q 613 908 613 921 q 603 887 613 896 q 582 878 594 878 l 264 878 z "},"Ų":{"ha":856,"x_min":119,"x_max":736,"o":"m 515 -307 q 399 -290 442 -307 q 338 -248 356 -274 q 321 -193 321 -222 q 328 -150 321 -174 q 360 -93 336 -126 q 435 -12 385 -60 l 425 -12 q 205 68 290 -12 q 119 297 119 149 l 119 708 q 130 733 119 724 q 154 743 140 743 q 179 733 169 743 q 189 708 189 724 l 189 297 q 255 119 189 182 q 425 57 321 57 q 603 120 540 57 q 667 301 667 183 l 667 708 q 677 733 667 724 q 701 743 688 743 q 726 733 717 743 q 736 708 736 724 l 736 301 q 683 102 736 179 q 529 0 629 25 l 486 -43 q 420 -113 443 -86 q 390 -158 397 -140 q 382 -193 382 -176 q 423 -234 382 -222 q 515 -246 464 -246 q 537 -255 528 -246 q 546 -276 546 -264 q 537 -298 546 -289 q 515 -307 528 -307 z "},"Ů":{"ha":856,"x_min":119,"x_max":736,"o":"m 189 297 q 255 119 189 182 q 425 57 321 57 q 603 120 540 57 q 667 301 667 183 l 667 708 q 677 733 667 724 q 701 743 688 743 q 726 733 717 743 q 736 708 736 724 l 736 301 q 655 69 736 150 q 425 -12 574 -12 q 205 68 290 -12 q 119 297 119 149 l 119 708 q 130 733 119 724 q 154 743 140 743 q 179 733 169 743 q 189 708 189 724 l 189 297 m 581 858 q 541 763 581 806 q 429 719 501 719 q 350 740 383 719 q 299 793 317 761 q 282 858 282 825 q 299 924 282 892 q 350 976 317 956 q 429 997 383 997 q 541 954 501 997 q 581 858 581 911 m 519 858 q 494 913 519 890 q 429 936 469 936 q 367 912 390 936 q 343 858 343 888 q 367 805 343 829 q 429 781 390 781 q 494 803 469 781 q 519 858 519 826 z "},"V":{"ha":813,"x_min":69,"x_max":743,"o":"m 407 -14 q 372 13 386 -14 q 326 106 356 44 q 262 245 297 168 q 191 401 226 322 q 127 549 156 481 q 83 661 99 618 q 74 690 78 676 q 69 710 69 704 q 78 733 69 722 q 104 744 86 744 q 125 738 115 744 q 138 721 135 732 q 176 613 151 676 q 232 479 201 550 q 294 337 263 408 q 356 203 326 265 q 407 97 385 142 q 472 234 435 154 q 548 401 510 314 q 620 572 586 489 q 675 719 654 656 q 710 743 683 743 q 733 733 724 743 q 743 707 743 722 q 740 690 743 703 q 726 651 736 678 q 680 536 708 604 q 617 390 651 468 q 549 238 583 313 q 485 101 514 163 q 438 4 456 40 q 407 -14 429 -14 z "},"W":{"ha":1246,"x_min":92,"x_max":1156,"o":"m 879 -14 q 861 -8 871 -14 q 844 14 851 -1 q 800 114 828 47 q 741 265 772 181 q 678 434 710 349 q 624 590 647 519 q 565 428 597 514 q 501 260 533 343 q 442 112 469 178 q 399 8 415 46 q 365 -12 389 -12 q 342 -3 351 -12 q 329 15 333 6 q 292 108 315 46 q 240 247 268 169 q 186 402 213 324 q 138 547 160 481 q 106 651 117 613 q 94 692 97 681 q 92 707 92 703 q 102 731 92 721 q 126 742 113 742 q 160 717 153 742 q 200 583 175 663 q 255 415 225 503 q 314 247 285 328 q 365 110 343 167 q 421 246 390 168 q 483 408 451 324 q 544 572 515 492 q 590 713 572 651 q 624 738 597 738 q 663 696 649 738 q 708 563 681 640 q 765 401 735 485 q 826 240 796 317 q 878 107 856 163 q 930 244 901 165 q 988 408 958 322 q 1043 574 1017 493 q 1088 717 1069 654 q 1121 742 1094 742 q 1144 731 1133 742 q 1156 707 1156 721 q 1149 678 1156 701 q 1109 551 1133 624 q 1058 398 1085 478 q 1003 242 1031 318 q 951 103 975 165 q 913 7 928 42 q 879 -14 903 -14 z "},"X":{"ha":782,"x_min":83,"x_max":700,"o":"m 665 0 q 638 15 649 0 q 539 143 607 60 q 392 324 471 226 q 252 149 318 232 q 146 14 186 67 q 118 0 136 0 q 94 10 104 0 q 83 35 83 21 q 90 56 83 46 q 201 199 132 113 q 346 379 269 285 q 214 545 278 464 q 107 689 150 626 q 101 707 101 696 q 112 733 101 722 q 135 743 122 743 q 165 728 154 743 q 266 592 206 668 q 390 433 326 515 q 512 592 454 515 q 608 728 569 668 q 638 743 617 743 q 662 733 651 743 q 672 708 672 722 q 667 689 672 696 q 565 546 628 628 q 435 378 503 464 q 541 248 490 311 q 632 135 592 185 q 693 54 672 85 q 700 35 700 44 q 690 10 700 21 q 665 0 679 0 z "},"Y":{"ha":778,"x_min":69,"x_max":708,"o":"m 392 0 q 367 10 378 0 q 357 35 357 21 l 357 268 q 294 354 333 299 q 213 474 256 410 q 133 596 171 538 q 74 690 94 654 q 69 708 69 699 q 78 731 69 721 q 103 742 86 742 q 132 726 124 742 q 184 644 151 694 q 255 536 217 593 q 330 426 293 479 q 393 336 367 374 q 458 430 422 376 q 529 540 493 483 q 597 645 565 596 q 646 726 628 694 q 675 742 654 742 q 708 708 708 742 q 704 690 708 699 q 648 599 683 656 q 571 480 613 543 q 491 360 529 417 q 426 265 453 303 l 426 35 q 417 10 426 21 q 392 0 407 0 z "},"Ý":{"ha":778,"x_min":69,"x_max":708,"o":"m 392 0 q 367 10 378 0 q 357 35 357 21 l 357 268 q 294 354 333 299 q 213 474 256 410 q 133 596 171 538 q 74 690 94 654 q 69 708 69 699 q 78 731 69 721 q 103 742 86 742 q 132 726 124 742 q 184 644 151 694 q 255 536 217 593 q 330 426 293 479 q 393 336 367 374 q 458 430 422 376 q 529 540 493 483 q 597 645 565 596 q 646 726 628 694 q 675 742 654 742 q 708 708 708 742 q 704 690 708 699 q 648 599 683 656 q 571 480 613 543 q 491 360 529 417 q 426 265 453 303 l 426 35 q 417 10 426 21 q 392 0 407 0 m 561 946 q 468 889 514 918 q 393 838 422 860 q 375 832 386 832 q 353 842 361 832 q 344 864 344 851 q 357 889 344 881 q 436 940 389 910 q 531 1000 483 969 q 544 1004 538 1004 q 568 994 560 1004 q 576 974 576 985 q 561 946 576 954 z "},"Ÿ":{"ha":778,"x_min":69,"x_max":708,"o":"m 392 0 q 367 10 378 0 q 357 35 357 21 l 357 268 q 294 354 333 299 q 213 474 256 410 q 133 596 171 538 q 74 690 94 654 q 69 708 69 699 q 78 731 69 721 q 103 742 86 742 q 132 726 124 742 q 184 644 151 694 q 255 536 217 593 q 330 426 293 479 q 393 336 367 374 q 458 430 422 376 q 529 540 493 483 q 597 645 565 596 q 646 726 628 694 q 675 742 654 742 q 708 708 708 742 q 704 690 708 699 q 648 599 683 656 q 571 480 613 543 q 491 360 529 417 q 426 265 453 303 l 426 35 q 417 10 426 21 q 392 0 407 0 m 522 976 q 558 959 542 976 q 575 910 575 942 q 558 859 575 875 q 522 843 542 843 q 485 860 501 843 q 468 910 468 876 q 485 959 468 942 q 522 976 501 976 m 254 976 q 290 959 274 976 q 307 910 307 942 q 290 859 307 875 q 254 843 274 843 q 216 860 233 843 q 199 910 199 878 q 216 958 199 940 q 254 976 233 976 z "},"Z":{"ha":782,"x_min":89,"x_max":693,"o":"m 124 0 q 99 10 110 0 q 89 35 89 21 q 93 53 89 44 q 100 65 97 61 q 162 151 119 96 q 259 275 204 206 q 372 417 314 344 q 483 557 431 490 q 574 674 536 624 l 142 674 q 117 684 128 674 q 107 708 107 694 q 117 733 107 724 q 142 743 128 743 l 643 743 q 667 733 657 743 q 676 707 676 722 q 671 689 676 696 q 601 594 647 654 q 499 463 556 535 q 383 319 442 392 q 274 181 325 246 q 189 69 222 115 l 658 69 q 683 60 674 69 q 693 35 693 50 q 683 10 693 21 q 658 0 674 0 l 124 0 z "},"Ź":{"ha":782,"x_min":89,"x_max":693,"o":"m 124 0 q 99 10 110 0 q 89 35 89 21 q 93 53 89 44 q 100 65 97 61 q 162 151 119 96 q 259 275 204 206 q 372 417 314 344 q 483 557 431 490 q 574 674 536 624 l 142 674 q 117 684 128 674 q 107 708 107 694 q 117 733 107 724 q 142 743 128 743 l 643 743 q 667 733 657 743 q 676 707 676 722 q 671 689 676 696 q 601 594 647 654 q 499 463 556 535 q 383 319 442 392 q 274 181 325 246 q 189 69 222 115 l 658 69 q 683 60 674 69 q 693 35 693 50 q 683 10 693 21 q 658 0 674 0 l 124 0 m 567 983 q 474 926 519 956 q 399 875 428 897 q 381 869 392 869 q 358 879 367 869 q 350 901 350 889 q 363 926 350 918 q 442 977 394 947 q 536 1038 489 1007 q 550 1042 543 1042 q 574 1032 565 1042 q 582 1011 582 1022 q 567 983 582 992 z "},"Ž":{"ha":782,"x_min":89,"x_max":693,"o":"m 124 0 q 99 10 110 0 q 89 35 89 21 q 93 53 89 44 q 100 65 97 61 q 162 151 119 96 q 259 275 204 206 q 372 417 314 344 q 483 557 431 490 q 574 674 536 624 l 142 674 q 117 684 128 674 q 107 708 107 694 q 117 733 107 724 q 142 743 128 743 l 643 743 q 667 733 657 743 q 676 707 676 722 q 671 689 676 696 q 601 594 647 654 q 499 463 556 535 q 383 319 442 392 q 274 181 325 246 q 189 69 222 115 l 658 69 q 683 60 674 69 q 693 35 693 50 q 683 10 693 21 q 658 0 674 0 l 124 0 m 397 879 l 394 879 q 372 886 382 879 q 301 936 336 911 q 239 983 267 961 q 226 1008 226 994 q 235 1028 226 1019 q 257 1038 243 1038 q 267 1036 261 1038 q 281 1028 272 1035 q 333 990 303 1011 q 394 946 364 969 q 457 990 426 969 q 510 1028 488 1011 q 524 1036 518 1035 q 533 1038 529 1038 q 556 1028 547 1038 q 564 1008 564 1019 q 551 983 564 994 q 490 936 525 961 q 418 886 454 911 q 397 879 408 879 z "},"Ż":{"ha":782,"x_min":89,"x_max":693,"o":"m 124 0 q 99 10 110 0 q 89 35 89 21 q 93 53 89 44 q 100 65 97 61 q 162 151 119 96 q 259 275 204 206 q 372 417 314 344 q 483 557 431 490 q 574 674 536 624 l 142 674 q 117 684 128 674 q 107 708 107 694 q 117 733 107 724 q 142 743 128 743 l 643 743 q 667 733 657 743 q 676 707 676 722 q 671 689 676 696 q 601 594 647 654 q 499 463 556 535 q 383 319 442 392 q 274 181 325 246 q 189 69 222 115 l 658 69 q 683 60 674 69 q 693 35 693 50 q 683 10 693 21 q 658 0 674 0 l 124 0 m 401 1026 q 440 1008 422 1026 q 457 957 457 989 q 440 909 457 926 q 401 892 424 892 q 359 910 376 892 q 342 957 342 929 q 360 1007 342 988 q 401 1026 378 1026 z "},"a":{"ha":625,"x_min":69,"x_max":571,"o":"m 511 13 q 464 93 481 44 q 360 24 417 49 q 239 0 304 0 q 138 24 175 0 q 85 82 100 47 q 69 147 69 117 q 81 212 69 181 q 118 267 93 243 q 211 321 153 299 q 354 343 269 343 q 449 339 399 343 q 407 438 443 401 q 299 475 371 475 q 242 470 271 475 q 197 460 213 465 q 171 453 179 453 q 146 463 157 453 q 135 486 135 474 q 158 521 135 513 q 222 536 182 528 q 299 544 261 544 q 466 482 413 544 q 519 319 519 419 l 519 193 q 530 115 519 146 q 561 60 540 83 q 571 36 571 50 q 560 12 571 22 q 536 1 550 1 q 511 13 522 1 m 239 69 q 353 97 299 69 q 450 179 407 124 l 450 269 q 354 274 399 274 q 168 219 222 274 q 145 185 151 203 q 139 147 139 167 q 163 94 139 119 q 239 69 188 69 z "},"á":{"ha":625,"x_min":69,"x_max":571,"o":"m 511 13 q 464 93 481 44 q 360 24 417 49 q 239 0 304 0 q 138 24 175 0 q 85 82 100 47 q 69 147 69 117 q 81 212 69 181 q 118 267 93 243 q 211 321 153 299 q 354 343 269 343 q 449 339 399 343 q 407 438 443 401 q 299 475 371 475 q 242 470 271 475 q 197 460 213 465 q 171 453 179 453 q 146 463 157 453 q 135 486 135 474 q 158 521 135 513 q 222 536 182 528 q 299 544 261 544 q 466 482 413 544 q 519 319 519 419 l 519 193 q 530 115 519 146 q 561 60 540 83 q 571 36 571 50 q 560 12 571 22 q 536 1 550 1 q 511 13 522 1 m 239 69 q 353 97 299 69 q 450 179 407 124 l 450 269 q 354 274 399 274 q 168 219 222 274 q 145 185 151 203 q 139 147 139 167 q 163 94 139 119 q 239 69 188 69 m 429 810 q 372 747 399 779 q 318 681 344 714 q 294 669 310 669 q 272 680 281 669 q 263 701 263 690 q 269 721 263 711 q 325 786 294 754 q 383 853 356 818 q 406 863 392 863 q 428 853 418 863 q 438 831 438 843 q 429 810 438 818 z "},"ă":{"ha":625,"x_min":69,"x_max":571,"o":"m 511 13 q 464 93 481 44 q 360 24 417 49 q 239 0 304 0 q 138 24 175 0 q 85 82 100 47 q 69 147 69 117 q 81 212 69 181 q 118 267 93 243 q 211 321 153 299 q 354 343 269 343 q 449 339 399 343 q 407 438 443 401 q 299 475 371 475 q 242 470 271 475 q 197 460 213 465 q 171 453 179 453 q 146 463 157 453 q 135 486 135 474 q 158 521 135 513 q 222 536 182 528 q 299 544 261 544 q 466 482 413 544 q 519 319 519 419 l 519 193 q 530 115 519 146 q 561 60 540 83 q 571 36 571 50 q 560 12 571 22 q 536 1 550 1 q 511 13 522 1 m 239 69 q 353 97 299 69 q 450 179 407 124 l 450 269 q 354 274 399 274 q 168 219 222 274 q 145 185 151 203 q 139 147 139 167 q 163 94 139 119 q 239 69 188 69 m 182 821 q 233 770 203 790 q 299 750 263 750 q 364 771 339 750 q 410 821 389 792 q 438 835 419 835 q 459 826 451 835 q 467 803 467 817 q 463 788 467 794 q 394 716 432 743 q 299 689 356 689 q 206 717 247 689 q 132 788 164 744 q 126 804 126 794 q 135 826 126 817 q 157 835 144 835 q 182 821 172 835 z "},"â":{"ha":625,"x_min":69,"x_max":571,"o":"m 511 13 q 464 93 481 44 q 360 24 417 49 q 239 0 304 0 q 138 24 175 0 q 85 82 100 47 q 69 147 69 117 q 81 212 69 181 q 118 267 93 243 q 211 321 153 299 q 354 343 269 343 q 449 339 399 343 q 407 438 443 401 q 299 475 371 475 q 242 470 271 475 q 197 460 213 465 q 171 453 179 453 q 146 463 157 453 q 135 486 135 474 q 158 521 135 513 q 222 536 182 528 q 299 544 261 544 q 466 482 413 544 q 519 319 519 419 l 519 193 q 530 115 519 146 q 561 60 540 83 q 571 36 571 50 q 560 12 571 22 q 536 1 550 1 q 511 13 522 1 m 239 69 q 353 97 299 69 q 450 179 407 124 l 450 269 q 354 274 399 274 q 168 219 222 274 q 145 185 151 203 q 139 147 139 167 q 163 94 139 119 q 239 69 188 69 m 296 856 l 300 856 q 329 842 315 856 q 383 788 350 821 q 443 726 417 754 q 451 704 451 718 q 443 683 451 692 q 422 675 435 675 q 399 685 408 675 q 350 733 379 704 q 297 788 321 763 q 246 735 274 764 q 196 685 218 707 q 172 675 186 675 q 152 683 161 675 q 143 704 143 690 q 151 726 143 717 q 210 789 179 757 q 267 843 242 821 q 296 856 279 856 z "},"ä":{"ha":625,"x_min":69,"x_max":571,"o":"m 511 13 q 464 93 481 44 q 360 24 417 49 q 239 0 304 0 q 138 24 175 0 q 85 82 100 47 q 69 147 69 117 q 81 212 69 181 q 118 267 93 243 q 211 321 153 299 q 354 343 269 343 q 449 339 399 343 q 407 438 443 401 q 299 475 371 475 q 242 470 271 475 q 197 460 213 465 q 171 453 179 453 q 146 463 157 453 q 135 486 135 474 q 158 521 135 513 q 222 536 182 528 q 299 544 261 544 q 466 482 413 544 q 519 319 519 419 l 519 193 q 530 115 519 146 q 561 60 540 83 q 571 36 571 50 q 560 12 571 22 q 536 1 550 1 q 511 13 522 1 m 239 69 q 353 97 299 69 q 450 179 407 124 l 450 269 q 354 274 399 274 q 168 219 222 274 q 145 185 151 203 q 139 147 139 167 q 163 94 139 119 q 239 69 188 69 m 417 690 q 378 707 394 690 q 363 754 363 724 q 379 803 363 786 q 417 821 396 821 q 453 803 436 821 q 469 754 469 786 q 453 706 469 722 q 417 690 436 690 m 169 690 q 131 707 147 690 q 115 754 115 724 q 132 803 115 786 q 169 821 149 821 q 206 803 189 821 q 222 754 222 786 q 206 706 222 722 q 169 690 189 690 z "},"à":{"ha":625,"x_min":69,"x_max":571,"o":"m 511 13 q 464 93 481 44 q 360 24 417 49 q 239 0 304 0 q 138 24 175 0 q 85 82 100 47 q 69 147 69 117 q 81 212 69 181 q 118 267 93 243 q 211 321 153 299 q 354 343 269 343 q 449 339 399 343 q 407 438 443 401 q 299 475 371 475 q 242 470 271 475 q 197 460 213 465 q 171 453 179 453 q 146 463 157 453 q 135 486 135 474 q 158 521 135 513 q 222 536 182 528 q 299 544 261 544 q 466 482 413 544 q 519 319 519 419 l 519 193 q 530 115 519 146 q 561 60 540 83 q 571 36 571 50 q 560 12 571 22 q 536 1 550 1 q 511 13 522 1 m 239 69 q 353 97 299 69 q 450 179 407 124 l 450 269 q 354 274 399 274 q 168 219 222 274 q 145 185 151 203 q 139 147 139 167 q 163 94 139 119 q 239 69 188 69 m 225 849 q 274 784 253 813 q 324 715 294 756 q 328 700 328 710 q 319 677 328 688 q 296 667 310 667 q 268 681 278 667 q 222 747 242 719 q 175 811 203 775 q 168 829 168 821 q 178 851 168 840 q 201 861 188 861 q 225 849 215 861 z "},"ā":{"ha":625,"x_min":69,"x_max":571,"o":"m 511 13 q 464 93 481 44 q 360 24 417 49 q 239 0 304 0 q 138 24 175 0 q 85 82 100 47 q 69 147 69 117 q 81 212 69 181 q 118 267 93 243 q 211 321 153 299 q 354 343 269 343 q 449 339 399 343 q 407 438 443 401 q 299 475 371 475 q 242 470 271 475 q 197 460 213 465 q 171 453 179 453 q 146 463 157 453 q 135 486 135 474 q 158 521 135 513 q 222 536 182 528 q 299 544 261 544 q 466 482 413 544 q 519 319 519 419 l 519 193 q 530 115 519 146 q 561 60 540 83 q 571 36 571 50 q 560 12 571 22 q 536 1 550 1 q 511 13 522 1 m 239 69 q 353 97 299 69 q 450 179 407 124 l 450 269 q 354 274 399 274 q 168 219 222 274 q 145 185 151 203 q 139 147 139 167 q 163 94 139 119 q 239 69 188 69 m 157 718 q 135 727 144 718 q 126 749 126 736 q 135 770 126 761 q 157 779 144 779 l 436 779 q 458 770 449 779 q 467 749 467 761 q 458 727 467 736 q 436 718 449 718 l 157 718 z "},"ą":{"ha":625,"x_min":69,"x_max":597,"o":"m 567 -307 q 450 -290 493 -307 q 390 -248 407 -274 q 372 -193 372 -222 q 383 -148 372 -174 q 426 -86 393 -122 q 524 1 458 -50 l 524 4 q 511 13 518 7 q 484 48 496 29 q 464 90 472 67 q 239 0 372 0 q 138 24 175 0 q 85 82 100 47 q 69 147 69 117 q 81 210 69 181 q 118 267 92 240 q 212 322 154 301 q 354 343 269 343 q 449 339 399 343 q 407 438 443 401 q 299 475 371 475 q 242 470 271 475 q 197 460 213 465 q 171 453 179 453 q 146 463 157 453 q 135 486 135 474 q 158 521 135 513 q 222 536 182 528 q 299 544 261 544 q 466 482 413 544 q 519 319 519 419 l 519 193 q 530 115 519 146 q 561 60 540 83 q 588 13 588 32 l 588 -4 q 581 -26 588 -17 q 565 -43 574 -36 q 483 -115 513 -87 q 444 -159 454 -142 q 433 -193 433 -176 q 474 -234 433 -222 q 567 -246 515 -246 q 588 -255 579 -246 q 597 -276 597 -264 q 588 -298 597 -289 q 567 -307 579 -307 m 239 69 q 356 97 306 69 q 450 179 407 124 l 450 269 q 354 274 399 274 q 168 217 225 274 q 145 183 151 200 q 139 147 139 167 q 163 94 139 119 q 239 69 188 69 z "},"å":{"ha":625,"x_min":69,"x_max":571,"o":"m 511 13 q 484 48 496 29 q 464 90 472 67 q 239 0 372 0 q 138 24 175 0 q 85 82 100 47 q 69 147 69 117 q 81 210 69 181 q 118 267 92 240 q 212 322 154 301 q 354 343 269 343 q 449 339 399 343 q 407 438 443 400 q 299 475 371 475 q 242 470 271 475 q 197 460 213 465 q 171 453 179 453 q 146 463 157 453 q 135 486 135 474 q 158 521 135 513 q 177 526 167 524 q 200 532 188 529 q 168 578 179 551 q 157 631 157 604 q 174 696 157 664 q 225 749 192 728 q 304 769 258 769 q 416 726 376 769 q 456 631 456 683 q 406 525 456 567 q 492 447 464 500 q 519 319 519 393 l 519 193 q 530 115 519 146 q 561 60 540 83 q 571 36 571 50 q 560 12 571 22 q 536 1 550 1 q 511 13 522 1 m 394 631 q 369 685 394 663 q 304 708 344 708 q 242 684 265 708 q 218 631 218 660 q 242 577 218 601 q 304 553 265 553 q 369 576 344 553 q 394 631 394 599 m 239 69 q 356 97 306 69 q 450 179 407 124 l 450 269 q 354 274 400 274 q 168 217 222 274 q 145 184 151 201 q 139 147 139 167 q 163 94 139 119 q 239 69 188 69 z "},"ã":{"ha":625,"x_min":69,"x_max":571,"o":"m 511 13 q 464 93 481 44 q 360 24 417 49 q 239 0 304 0 q 138 24 175 0 q 85 82 100 47 q 69 147 69 117 q 81 212 69 181 q 118 267 93 243 q 211 321 153 299 q 354 343 269 343 q 449 339 399 343 q 407 438 443 401 q 299 475 371 475 q 242 470 271 475 q 197 460 213 465 q 171 453 179 453 q 146 463 157 453 q 135 486 135 474 q 158 521 135 513 q 222 536 182 528 q 299 544 261 544 q 466 482 413 544 q 519 319 519 419 l 519 193 q 530 115 519 146 q 561 60 540 83 q 571 36 571 50 q 560 12 571 22 q 536 1 550 1 q 511 13 522 1 m 239 69 q 353 97 299 69 q 450 179 407 124 l 450 269 q 354 274 399 274 q 168 219 222 274 q 145 185 151 203 q 139 147 139 167 q 163 94 139 119 q 239 69 188 69 m 119 742 q 174 800 146 782 q 228 818 201 818 q 270 808 251 818 q 318 779 289 799 q 371 754 354 754 q 397 767 383 754 q 428 801 411 779 q 451 817 438 817 q 473 808 464 817 q 482 786 482 799 q 476 769 482 776 q 423 712 446 731 q 372 693 400 693 q 285 729 338 693 q 253 749 265 743 q 231 756 242 756 q 201 742 217 756 q 169 708 185 728 q 144 694 160 694 q 123 703 132 694 q 114 725 114 713 q 119 742 114 733 z "},"æ":{"ha":1035,"x_min":69,"x_max":956,"o":"m 760 0 q 612 28 676 0 q 510 107 547 56 q 382 30 450 60 q 239 0 314 0 q 138 24 175 0 q 85 82 100 47 q 69 147 69 117 q 81 210 69 181 q 118 267 92 240 q 212 322 154 301 q 354 343 269 343 q 458 339 403 343 q 412 438 453 401 q 299 475 371 475 q 251 472 275 475 q 210 463 226 468 q 185 456 196 458 q 169 453 174 453 q 145 463 156 453 q 135 486 135 474 q 158 521 135 513 q 222 536 182 528 q 299 544 261 544 q 432 513 379 544 q 508 425 485 481 q 603 513 544 482 q 732 544 663 544 q 853 514 803 544 q 929 440 903 483 q 956 357 956 397 q 925 271 956 306 q 807 236 894 236 l 535 236 q 608 111 546 153 q 760 69 669 69 q 823 75 794 69 q 867 86 851 81 q 887 93 882 92 q 894 94 892 94 q 919 84 908 94 q 929 60 929 74 q 907 28 929 36 q 839 8 878 17 q 760 0 800 0 m 732 475 q 603 428 658 475 q 536 306 549 382 l 807 306 q 886 357 886 306 q 866 412 886 385 q 811 457 846 439 q 732 475 776 475 m 239 69 q 366 99 306 69 q 478 172 426 128 q 464 269 464 213 q 408 273 438 272 q 354 274 378 274 q 168 217 225 274 q 145 183 151 200 q 139 147 139 167 q 163 94 139 119 q 239 69 188 69 z "},"b":{"ha":701,"x_min":118,"x_max":635,"o":"m 372 0 q 188 35 271 0 q 176 11 186 21 q 153 1 167 1 q 128 12 139 1 q 118 36 118 22 l 118 744 q 128 769 118 760 q 153 779 139 779 q 178 769 168 779 q 188 744 188 760 l 188 447 q 390 544 282 544 q 513 510 457 544 q 601 415 568 476 q 635 271 635 354 q 601 126 635 188 q 508 33 567 65 q 372 0 449 0 m 372 69 q 512 124 458 69 q 565 271 565 179 q 515 418 565 361 q 390 475 465 475 q 282 439 335 475 q 188 343 229 403 l 188 110 q 275 80 229 90 q 372 69 321 69 z "},"c":{"ha":606,"x_min":68,"x_max":536,"o":"m 458 460 q 361 475 408 475 q 197 415 256 475 q 138 260 138 354 q 196 124 138 178 q 360 69 254 69 q 428 76 399 69 q 474 88 457 82 q 494 94 489 93 q 501 96 499 96 q 526 85 515 96 q 536 61 536 75 q 514 29 536 38 q 445 8 483 17 q 360 0 407 0 q 200 35 265 0 q 101 130 135 71 q 68 260 68 189 q 103 406 68 342 q 203 508 138 471 q 361 544 268 544 q 496 522 432 544 q 519 488 519 514 q 508 465 519 475 q 483 454 497 454 q 458 460 479 454 z "},"ć":{"ha":606,"x_min":68,"x_max":536,"o":"m 458 460 q 361 475 408 475 q 197 415 256 475 q 138 260 138 354 q 196 124 138 178 q 360 69 254 69 q 428 76 399 69 q 474 88 457 82 q 494 94 489 93 q 501 96 499 96 q 526 85 515 96 q 536 61 536 75 q 514 29 536 38 q 445 8 483 17 q 360 0 407 0 q 200 35 265 0 q 101 130 135 71 q 68 260 68 189 q 103 406 68 342 q 203 508 138 471 q 361 544 268 544 q 496 522 432 544 q 519 488 519 514 q 508 465 519 475 q 483 454 497 454 q 458 460 479 454 m 467 810 q 409 747 436 779 q 356 681 382 714 q 332 669 347 669 q 309 680 318 669 q 300 701 300 690 q 307 721 300 711 q 363 786 332 754 q 421 853 393 818 q 443 863 429 863 q 465 853 456 863 q 475 831 475 843 q 467 810 475 818 z "},"č":{"ha":606,"x_min":68,"x_max":536,"o":"m 458 460 q 361 475 408 475 q 197 415 256 475 q 138 260 138 354 q 196 124 138 178 q 360 69 254 69 q 428 76 399 69 q 474 88 457 82 q 494 94 489 93 q 501 96 499 96 q 526 85 515 96 q 536 61 536 75 q 514 29 536 38 q 445 8 483 17 q 360 0 407 0 q 200 35 265 0 q 101 130 135 71 q 68 260 68 189 q 103 406 68 342 q 203 508 138 471 q 361 544 268 544 q 496 522 432 544 q 519 488 519 514 q 508 465 519 475 q 483 454 497 454 q 458 460 479 454 m 329 668 q 300 681 313 668 q 244 735 276 703 q 185 797 211 768 q 176 819 176 808 q 185 841 176 833 q 206 849 194 849 q 229 839 219 849 q 280 788 251 817 q 332 736 308 760 q 384 790 356 760 q 432 839 413 819 q 456 849 442 849 q 476 840 468 849 q 485 819 485 832 q 476 797 485 806 q 418 736 451 771 q 363 682 385 701 q 333 668 349 668 l 329 668 z "},"ç":{"ha":606,"x_min":68,"x_max":536,"o":"m 458 460 q 361 475 408 475 q 197 415 256 475 q 138 260 138 354 q 196 124 138 178 q 360 69 254 69 q 428 76 399 69 q 474 88 457 82 q 494 94 489 93 q 501 96 499 96 q 526 85 515 96 q 536 61 536 75 q 514 29 536 38 q 445 8 483 17 q 360 0 407 0 q 200 35 265 0 q 101 130 135 71 q 68 260 68 189 q 103 406 68 342 q 203 508 138 471 q 361 544 268 544 q 496 522 432 544 q 519 488 519 514 q 508 465 519 475 q 483 454 497 454 q 458 460 479 454 m 388 -171 q 342 -213 368 -186 q 290 -267 315 -240 q 249 -310 265 -293 q 226 -318 240 -318 q 206 -310 215 -318 q 196 -287 196 -301 q 204 -265 196 -274 q 247 -223 221 -249 q 301 -171 274 -197 q 346 -126 328 -144 q 367 -118 354 -118 q 388 -127 378 -118 q 397 -149 397 -136 q 388 -171 397 -162 z "},"d":{"ha":701,"x_min":68,"x_max":583,"o":"m 549 0 q 524 10 535 0 q 514 35 514 21 l 514 93 q 423 25 474 50 q 311 0 372 0 q 188 32 243 0 q 101 123 133 64 q 68 261 68 182 q 103 408 68 344 q 201 508 139 472 q 340 544 263 544 q 433 531 390 544 q 514 494 475 518 l 514 744 q 524 769 514 760 q 549 779 535 779 q 574 769 564 779 q 583 744 583 760 l 583 35 q 574 10 583 21 q 549 0 564 0 m 311 69 q 430 106 381 69 q 514 199 479 142 l 514 411 q 434 458 475 442 q 340 475 393 475 q 236 447 282 475 q 164 372 190 419 q 138 261 138 324 q 187 123 138 176 q 311 69 236 69 z "},"ð":{"ha":672,"x_min":64,"x_max":594,"o":"m 321 -6 q 183 28 240 -6 q 94 117 125 61 q 64 239 64 174 q 97 372 64 315 q 190 460 131 429 q 322 492 249 492 q 414 480 369 492 q 494 449 458 468 q 445 539 476 493 q 368 632 414 585 l 272 575 q 257 571 267 571 q 235 579 244 571 q 226 601 226 588 q 242 628 226 619 l 322 676 q 297 701 310 689 q 268 725 283 713 q 256 751 256 736 q 267 776 256 767 q 290 786 278 786 q 313 778 304 786 q 385 714 353 744 l 469 765 q 485 769 476 769 q 507 760 499 769 q 515 739 515 751 q 500 713 515 721 l 428 669 q 558 477 522 568 q 594 297 594 386 q 521 72 594 150 q 321 -6 447 -6 m 321 64 q 472 126 418 64 q 525 297 525 188 q 525 322 525 311 q 522 349 525 333 q 440 399 496 375 q 322 422 383 422 q 188 372 242 422 q 133 239 133 322 q 184 115 133 167 q 321 64 235 64 z "},"ď":{"ha":876,"x_min":68,"x_max":849,"o":"m 821 583 q 809 563 819 571 q 786 554 799 554 q 762 565 772 554 q 751 589 751 575 q 756 624 751 599 l 779 788 q 792 810 782 803 q 814 817 801 817 q 840 806 831 817 q 849 782 849 794 q 847 760 849 778 q 842 726 844 742 l 821 583 m 549 0 q 524 10 535 0 q 514 35 514 21 l 514 93 q 423 25 474 50 q 311 0 372 0 q 188 32 243 0 q 101 123 133 64 q 68 261 68 182 q 103 408 68 344 q 201 508 139 472 q 340 544 263 544 q 433 531 390 544 q 514 494 475 518 l 514 744 q 524 769 514 760 q 549 779 535 779 q 574 769 564 779 q 583 744 583 760 l 583 35 q 574 10 583 21 q 549 0 564 0 m 311 69 q 431 112 381 69 q 514 211 481 154 l 514 411 q 434 458 475 442 q 340 475 393 475 q 236 447 282 475 q 164 372 190 419 q 138 261 138 324 q 187 123 138 176 q 311 69 236 69 z "},"đ":{"ha":704,"x_min":68,"x_max":650,"o":"m 549 0 q 524 10 535 0 q 514 35 514 21 l 514 93 q 423 25 474 50 q 311 0 372 0 q 188 32 243 0 q 101 123 133 64 q 68 261 68 182 q 103 408 68 344 q 201 508 139 472 q 340 544 263 544 q 433 531 390 544 q 514 494 475 518 l 514 629 l 397 629 q 380 638 388 629 q 372 660 372 647 q 380 681 372 672 q 397 690 388 690 l 514 690 l 514 744 q 524 769 514 760 q 549 779 535 779 q 574 769 564 779 q 583 744 583 760 l 583 690 l 625 690 q 643 681 636 690 q 650 660 650 672 q 643 638 650 647 q 625 629 636 629 l 583 629 l 583 35 q 574 10 583 21 q 549 0 564 0 m 311 69 q 431 112 381 69 q 514 211 481 154 l 514 411 q 434 458 475 442 q 340 475 393 475 q 236 447 282 475 q 164 372 190 419 q 138 261 138 324 q 187 123 138 176 q 311 69 236 69 z "},"e":{"ha":639,"x_min":68,"x_max":560,"o":"m 364 0 q 149 69 231 0 q 68 265 68 139 q 104 413 68 350 q 201 510 140 475 q 335 544 261 544 q 458 515 408 544 q 534 443 508 486 q 560 358 560 400 q 528 272 560 308 q 411 236 497 236 l 139 236 q 212 111 150 153 q 364 69 274 69 q 427 75 399 69 q 471 86 456 81 q 491 93 486 92 q 499 94 496 94 q 523 84 513 94 q 533 60 533 74 q 511 28 533 36 q 443 8 482 17 q 364 0 404 0 m 335 475 q 207 428 261 475 q 140 306 153 382 l 413 306 q 492 358 492 306 q 449 438 492 401 q 335 475 406 475 z "},"é":{"ha":639,"x_min":68,"x_max":560,"o":"m 364 0 q 149 69 231 0 q 68 265 68 139 q 104 413 68 350 q 201 510 140 475 q 335 544 261 544 q 458 515 408 544 q 534 443 508 486 q 560 358 560 400 q 528 272 560 308 q 411 236 497 236 l 139 236 q 212 111 150 153 q 364 69 274 69 q 427 75 399 69 q 471 86 456 81 q 491 93 486 92 q 499 94 496 94 q 523 84 513 94 q 533 60 533 74 q 511 28 533 36 q 443 8 482 17 q 364 0 404 0 m 335 475 q 207 428 261 475 q 140 306 153 382 l 413 306 q 492 358 492 306 q 449 438 492 401 q 335 475 406 475 m 460 810 q 402 747 429 779 q 349 681 375 714 q 325 669 340 669 q 302 680 311 669 q 293 701 293 690 q 300 721 293 711 q 356 786 325 754 q 414 853 386 818 q 436 863 422 863 q 458 853 449 863 q 468 831 468 843 q 460 810 468 818 z "},"ě":{"ha":639,"x_min":68,"x_max":560,"o":"m 364 0 q 149 69 231 0 q 68 265 68 139 q 104 413 68 350 q 201 510 140 475 q 335 544 261 544 q 458 515 408 544 q 534 443 508 486 q 560 358 560 400 q 528 272 560 308 q 411 236 497 236 l 139 236 q 212 111 150 153 q 364 69 274 69 q 427 75 399 69 q 471 86 456 81 q 491 93 486 92 q 499 94 496 94 q 523 84 513 94 q 533 60 533 74 q 511 28 533 36 q 443 8 482 17 q 364 0 404 0 m 335 475 q 207 428 261 475 q 140 306 153 382 l 413 306 q 492 358 492 306 q 449 438 492 401 q 335 475 406 475 m 322 668 q 293 681 306 668 q 237 735 269 703 q 178 797 204 768 q 169 819 169 808 q 178 841 169 833 q 199 849 188 849 q 222 839 213 849 q 273 788 244 817 q 325 736 301 760 q 377 790 349 760 q 425 839 406 819 q 449 849 435 849 q 469 840 461 849 q 478 819 478 832 q 469 797 478 806 q 411 736 444 771 q 356 682 378 701 q 326 668 342 668 l 322 668 z "},"ê":{"ha":639,"x_min":68,"x_max":560,"o":"m 364 0 q 149 69 231 0 q 68 265 68 139 q 104 413 68 350 q 201 510 140 475 q 335 544 261 544 q 458 515 408 544 q 534 443 508 486 q 560 358 560 400 q 528 272 560 308 q 411 236 497 236 l 139 236 q 212 111 150 153 q 364 69 274 69 q 427 75 399 69 q 471 86 456 81 q 491 93 486 92 q 499 94 496 94 q 523 84 513 94 q 533 60 533 74 q 511 28 533 36 q 443 8 482 17 q 364 0 404 0 m 335 475 q 207 428 261 475 q 140 306 153 382 l 413 306 q 492 358 492 306 q 449 438 492 401 q 335 475 406 475 m 326 856 l 331 856 q 360 842 346 856 q 414 788 381 821 q 474 726 447 754 q 482 704 482 718 q 474 683 482 692 q 453 675 465 675 q 429 685 439 675 q 381 733 410 704 q 328 788 351 763 q 276 735 304 764 q 226 685 249 707 q 203 675 217 675 q 183 683 192 675 q 174 704 174 690 q 182 726 174 717 q 241 789 210 757 q 297 843 272 821 q 326 856 310 856 z "},"ë":{"ha":639,"x_min":68,"x_max":560,"o":"m 364 0 q 149 69 231 0 q 68 265 68 139 q 104 413 68 350 q 201 510 140 475 q 335 544 261 544 q 458 515 408 544 q 534 443 508 486 q 560 358 560 400 q 528 272 560 308 q 411 236 497 236 l 139 236 q 212 111 150 153 q 364 69 274 69 q 427 75 399 69 q 471 86 456 81 q 491 93 486 92 q 499 94 496 94 q 523 84 513 94 q 533 60 533 74 q 511 28 533 36 q 443 8 482 17 q 364 0 404 0 m 335 475 q 207 428 261 475 q 140 306 153 382 l 413 306 q 492 358 492 306 q 449 438 492 401 q 335 475 406 475 m 447 690 q 409 707 425 690 q 393 754 393 724 q 410 803 393 786 q 447 821 426 821 q 483 803 467 821 q 500 754 500 786 q 483 706 500 722 q 447 690 467 690 m 200 690 q 162 707 178 690 q 146 754 146 724 q 163 803 146 786 q 200 821 179 821 q 236 803 219 821 q 253 754 253 786 q 236 706 253 722 q 200 690 219 690 z "},"ė":{"ha":639,"x_min":68,"x_max":560,"o":"m 364 0 q 149 69 231 0 q 68 265 68 139 q 104 413 68 350 q 201 510 140 475 q 335 544 261 544 q 458 515 408 544 q 534 443 508 486 q 560 358 560 400 q 528 272 560 308 q 411 236 497 236 l 139 236 q 212 111 150 153 q 364 69 274 69 q 427 75 399 69 q 471 86 456 81 q 491 93 486 92 q 499 94 496 94 q 523 84 513 94 q 533 60 533 74 q 511 28 533 36 q 443 8 482 17 q 364 0 404 0 m 335 475 q 207 428 261 475 q 140 306 153 382 l 413 306 q 492 358 492 306 q 449 438 492 401 q 335 475 406 475 m 329 828 q 367 810 350 828 q 383 761 383 793 q 367 714 383 731 q 329 697 351 697 q 289 715 306 697 q 272 761 272 732 q 290 809 272 790 q 329 828 307 828 z "},"è":{"ha":639,"x_min":68,"x_max":560,"o":"m 364 0 q 149 69 231 0 q 68 265 68 139 q 104 413 68 350 q 201 510 140 475 q 335 544 261 544 q 458 515 408 544 q 534 443 508 486 q 560 358 560 400 q 528 272 560 308 q 411 236 497 236 l 139 236 q 212 111 150 153 q 364 69 274 69 q 427 75 399 69 q 471 86 456 81 q 491 93 486 92 q 499 94 496 94 q 523 84 513 94 q 533 60 533 74 q 511 28 533 36 q 443 8 482 17 q 364 0 404 0 m 335 475 q 207 428 261 475 q 140 306 153 382 l 413 306 q 492 358 492 306 q 449 438 492 401 q 335 475 406 475 m 256 849 q 304 784 283 813 q 354 715 325 756 q 358 700 358 710 q 349 677 358 688 q 326 667 340 667 q 299 681 308 667 q 253 747 272 719 q 206 811 233 775 q 199 829 199 821 q 208 851 199 840 q 232 861 218 861 q 256 849 246 861 z "},"ē":{"ha":639,"x_min":68,"x_max":560,"o":"m 364 0 q 149 69 231 0 q 68 265 68 139 q 104 413 68 350 q 201 510 140 475 q 335 544 261 544 q 458 515 408 544 q 534 443 508 486 q 560 358 560 400 q 528 272 560 308 q 411 236 497 236 l 139 236 q 212 111 150 153 q 364 69 274 69 q 427 75 399 69 q 471 86 456 81 q 491 93 486 92 q 499 94 496 94 q 523 84 513 94 q 533 60 533 74 q 511 28 533 36 q 443 8 482 17 q 364 0 404 0 m 335 475 q 207 428 261 475 q 140 306 153 382 l 413 306 q 492 358 492 306 q 449 438 492 401 q 335 475 406 475 m 188 718 q 166 727 175 718 q 157 749 157 736 q 166 770 157 761 q 188 779 175 779 l 467 779 q 488 770 479 779 q 497 749 497 761 q 488 727 497 736 q 467 718 479 718 l 188 718 z "},"ę":{"ha":639,"x_min":68,"x_max":560,"o":"m 508 -300 q 392 -283 435 -300 q 331 -241 349 -267 q 314 -186 314 -215 q 337 -113 314 -156 q 435 1 360 -71 l 435 7 q 400 2 418 4 q 364 0 382 0 q 149 69 231 0 q 68 265 68 139 q 104 413 68 350 q 201 510 140 475 q 336 544 263 544 q 457 514 407 544 q 533 440 507 483 q 560 357 560 397 q 529 271 560 306 q 411 236 499 236 l 139 236 q 212 111 150 153 q 364 69 274 69 q 427 75 399 69 q 471 86 456 81 q 491 93 486 92 q 499 94 496 94 q 523 84 513 94 q 533 60 533 74 q 519 17 533 42 q 471 -43 504 -7 q 399 -128 422 -96 q 375 -186 375 -161 q 416 -227 375 -215 q 508 -239 457 -239 q 530 -248 521 -239 q 539 -269 539 -257 q 530 -291 539 -282 q 508 -300 521 -300 m 336 475 q 208 428 263 475 q 140 306 153 382 l 411 306 q 490 357 490 306 q 470 412 490 385 q 415 457 450 439 q 336 475 381 475 z "},"f":{"ha":442,"x_min":29,"x_max":413,"o":"m 186 0 q 162 10 172 0 q 151 35 151 21 l 151 475 l 64 475 q 40 485 50 475 q 29 510 29 496 q 40 535 29 525 q 64 544 50 544 l 151 544 l 151 611 q 212 764 151 714 q 376 814 272 814 q 401 804 392 814 q 410 779 410 794 q 400 756 410 767 q 376 746 390 746 q 256 709 292 746 q 221 611 221 672 l 221 544 l 378 544 q 403 535 393 544 q 413 510 413 525 q 403 485 413 496 q 378 475 393 475 l 221 475 l 221 35 q 211 10 221 21 q 186 0 201 0 z "},"g":{"ha":699,"x_min":68,"x_max":581,"o":"m 225 -251 q 201 -241 211 -251 q 190 -217 190 -231 q 201 -192 190 -203 q 225 -182 211 -182 q 442 -105 374 -182 q 511 99 511 -28 l 511 104 q 411 39 465 61 q 300 17 357 17 q 190 42 243 17 q 102 121 136 67 q 68 260 68 175 q 108 411 68 347 q 213 510 149 475 q 347 544 278 544 q 434 536 396 544 q 511 513 472 528 q 524 536 514 528 q 546 544 533 544 q 571 535 561 544 q 581 510 581 525 l 581 99 q 496 -156 581 -60 q 225 -251 411 -251 m 300 86 q 415 117 360 86 q 511 208 471 149 l 511 436 q 432 465 468 456 q 347 475 396 475 q 246 449 294 475 q 167 374 197 422 q 138 260 138 325 q 161 161 138 200 q 222 104 185 122 q 300 86 260 86 z "},"ğ":{"ha":699,"x_min":68,"x_max":581,"o":"m 225 -251 q 201 -241 211 -251 q 190 -217 190 -231 q 201 -192 190 -203 q 225 -182 211 -182 q 442 -105 374 -182 q 511 99 511 -28 l 511 104 q 411 39 465 61 q 300 17 357 17 q 190 42 243 17 q 102 121 136 67 q 68 260 68 175 q 108 411 68 347 q 213 510 149 475 q 347 544 278 544 q 434 536 396 544 q 511 513 472 528 q 524 536 514 528 q 546 544 533 544 q 571 535 561 544 q 581 510 581 525 l 581 99 q 496 -156 581 -60 q 225 -251 411 -251 m 300 86 q 415 117 360 86 q 511 208 471 149 l 511 436 q 432 465 468 456 q 347 475 396 475 q 246 449 294 475 q 167 374 197 422 q 138 260 138 325 q 161 161 138 200 q 222 104 185 122 q 300 86 260 86 m 231 821 q 281 770 251 790 q 347 750 311 750 q 413 771 388 750 q 458 821 438 792 q 486 835 468 835 q 508 826 500 835 q 515 803 515 817 q 511 788 515 794 q 442 716 481 743 q 347 689 404 689 q 254 717 296 689 q 181 788 213 744 q 175 804 175 794 q 184 826 175 817 q 206 835 193 835 q 231 821 221 835 z "},"ģ":{"ha":699,"x_min":68,"x_max":581,"o":"m 331 688 q 314 754 314 719 q 347 843 314 801 q 439 913 379 885 q 451 915 447 915 q 472 906 463 915 q 482 885 482 897 q 464 857 482 867 q 400 813 425 839 q 375 754 375 786 q 383 718 375 733 q 388 703 388 710 q 357 672 388 672 q 331 688 338 672 m 225 -251 q 201 -241 211 -251 q 190 -217 190 -231 q 201 -192 190 -203 q 225 -182 211 -182 q 442 -105 374 -182 q 511 99 511 -28 l 511 104 q 411 39 465 61 q 300 17 357 17 q 190 42 243 17 q 102 121 136 67 q 68 260 68 175 q 108 411 68 347 q 213 510 149 475 q 347 544 278 544 q 434 536 396 544 q 511 513 472 528 q 524 536 514 528 q 546 544 533 544 q 571 535 561 544 q 581 510 581 525 l 581 99 q 496 -156 581 -60 q 225 -251 411 -251 m 300 86 q 415 119 360 86 q 511 211 471 151 l 511 436 q 432 465 468 456 q 347 475 396 475 q 246 449 294 475 q 167 374 197 422 q 138 260 138 325 q 161 161 138 200 q 222 104 185 122 q 300 86 260 86 z "},"h":{"ha":690,"x_min":118,"x_max":586,"o":"m 551 0 q 527 10 538 0 q 517 35 517 21 l 517 313 q 484 437 517 399 q 396 475 451 475 q 285 444 338 475 q 188 368 232 413 l 188 35 q 178 10 188 21 q 153 0 168 0 q 128 10 139 0 q 118 35 118 21 l 118 744 q 128 769 118 760 q 153 779 139 779 q 178 769 168 779 q 188 744 188 760 l 188 460 q 286 520 235 496 q 396 544 338 544 q 492 524 449 544 q 560 452 535 503 q 586 313 586 401 l 586 35 q 576 10 586 21 q 551 0 567 0 z "},"i":{"ha":322,"x_min":101,"x_max":217,"o":"m 160 829 q 200 810 183 829 q 217 760 217 792 q 200 711 217 728 q 161 694 183 694 q 119 712 136 694 q 101 760 101 729 q 118 810 101 792 q 160 829 135 829 m 126 510 q 137 535 126 525 q 161 544 147 544 q 186 535 176 544 q 196 510 196 525 l 196 35 q 186 10 196 21 q 161 0 176 0 q 137 10 147 0 q 126 35 126 21 l 126 510 z "},"ı":{"ha":322,"x_min":126,"x_max":196,"o":"m 126 510 q 137 535 126 525 q 161 544 147 544 q 186 535 176 544 q 196 510 196 525 l 196 35 q 186 10 196 21 q 161 0 176 0 q 137 10 147 0 q 126 35 126 21 l 126 510 z "},"í":{"ha":322,"x_min":126,"x_max":301,"o":"m 126 510 q 137 535 126 525 q 161 544 147 544 q 186 535 176 544 q 196 510 196 525 l 196 35 q 186 10 196 21 q 161 0 176 0 q 137 10 147 0 q 126 35 126 21 l 126 510 m 293 810 q 235 747 263 779 q 182 681 208 714 q 158 669 174 669 q 135 680 144 669 q 126 701 126 690 q 133 721 126 711 q 189 786 158 754 q 247 853 219 818 q 269 863 256 863 q 292 853 282 863 q 301 831 301 843 q 293 810 301 818 z "},"î":{"ha":322,"x_min":7,"x_max":315,"o":"m 126 510 q 137 535 126 525 q 161 544 147 544 q 186 535 176 544 q 196 510 196 525 l 196 35 q 186 10 196 21 q 161 0 176 0 q 137 10 147 0 q 126 35 126 21 l 126 510 m 160 856 l 164 856 q 193 842 179 856 q 247 788 214 821 q 307 726 281 754 q 315 704 315 718 q 307 683 315 692 q 286 675 299 675 q 263 685 272 675 q 214 733 243 704 q 161 788 185 763 q 110 735 138 764 q 60 685 82 707 q 36 675 50 675 q 16 683 25 675 q 7 704 7 690 q 15 726 7 717 q 74 789 43 757 q 131 843 106 821 q 160 856 143 856 z "},"ï":{"ha":322,"x_min":-21,"x_max":333,"o":"m 126 510 q 137 535 126 525 q 161 544 147 544 q 186 535 176 544 q 196 510 196 525 l 196 35 q 186 10 196 21 q 161 0 176 0 q 137 10 147 0 q 126 35 126 21 l 126 510 m 281 690 q 242 707 258 690 q 226 754 226 724 q 243 803 226 786 q 281 821 260 821 q 317 803 300 821 q 333 754 333 786 q 317 706 333 722 q 281 690 300 690 m 33 690 q -5 707 11 690 q -21 754 -21 724 q -4 803 -21 786 q 33 821 13 821 q 69 803 53 821 q 86 754 86 786 q 69 706 86 722 q 33 690 53 690 z "},"ì":{"ha":322,"x_min":32,"x_max":196,"o":"m 126 510 q 137 535 126 525 q 161 544 147 544 q 186 535 176 544 q 196 510 196 525 l 196 35 q 186 10 196 21 q 161 0 176 0 q 137 10 147 0 q 126 35 126 21 l 126 510 m 89 849 q 138 784 117 813 q 188 715 158 756 q 192 700 192 710 q 183 677 192 688 q 160 667 174 667 q 132 681 142 667 q 86 747 106 719 q 39 811 67 775 q 32 829 32 821 q 42 851 32 840 q 65 861 51 861 q 89 849 79 861 z "},"ī":{"ha":288,"x_min":24,"x_max":263,"o":"m 46 718 q 30 727 36 718 q 24 749 24 736 q 30 770 24 761 q 46 779 36 779 l 240 779 q 256 770 250 779 q 263 749 263 761 q 256 727 263 736 q 240 718 250 718 l 46 718 m 108 510 q 119 535 108 525 q 143 544 129 544 q 168 535 158 544 q 178 510 178 525 l 178 35 q 167 10 178 21 q 143 0 157 0 q 119 10 129 0 q 108 35 108 21 l 108 510 z "},"į":{"ha":322,"x_min":-17,"x_max":221,"o":"m 161 833 q 203 814 186 833 q 221 763 221 794 q 203 712 221 729 q 163 694 186 694 q 119 713 138 694 q 101 763 101 732 q 119 814 101 794 q 161 833 136 833 m 178 -307 q 61 -290 104 -307 q 1 -248 18 -274 q -17 -193 -17 -222 q -7 -149 -17 -174 q 33 -91 3 -125 q 126 -6 64 -57 l 126 510 q 137 535 126 525 q 161 544 147 544 q 186 535 176 544 q 196 510 196 525 l 196 -6 q 176 -43 196 -28 q 74 -135 103 -103 q 44 -193 44 -168 q 85 -234 44 -222 q 178 -246 126 -246 q 199 -255 190 -246 q 208 -276 208 -264 q 199 -298 208 -289 q 178 -307 190 -307 z "},"j":{"ha":322,"x_min":-26,"x_max":217,"o":"m 160 829 q 200 810 183 829 q 217 760 217 792 q 200 711 217 728 q 161 694 183 694 q 119 712 136 694 q 101 760 101 729 q 118 810 101 792 q 160 829 135 829 m -4 -153 q 93 -78 60 -128 q 126 61 126 -28 l 126 510 q 137 535 126 525 q 161 544 147 544 q 186 535 176 544 q 196 510 196 525 l 196 61 q 176 -69 196 -17 q 122 -154 156 -122 q 49 -206 89 -186 q 8 -219 19 -219 q -16 -209 -6 -219 q -26 -185 -26 -199 q -4 -153 -26 -161 z "},"k":{"ha":651,"x_min":118,"x_max":583,"o":"m 549 0 q 521 14 529 0 l 318 299 l 188 196 l 188 35 q 178 10 188 21 q 153 0 168 0 q 128 10 139 0 q 118 35 118 21 l 118 744 q 128 769 118 760 q 153 779 139 779 q 178 769 168 779 q 188 744 188 760 l 188 285 l 510 538 q 529 544 519 544 q 555 535 544 544 q 565 511 565 526 q 551 482 565 492 l 372 342 l 576 56 q 583 35 583 46 q 573 10 583 21 q 549 0 563 0 z "},"ķ":{"ha":651,"x_min":118,"x_max":583,"o":"m 549 0 q 521 14 529 0 l 318 299 l 188 196 l 188 35 q 178 10 188 21 q 153 0 168 0 q 128 10 139 0 q 118 35 118 21 l 118 744 q 128 769 118 760 q 153 779 139 779 q 178 769 168 779 q 188 744 188 760 l 188 285 l 510 538 q 529 544 519 544 q 555 535 544 544 q 565 511 565 526 q 551 482 565 492 l 372 342 l 576 56 q 583 35 583 46 q 573 10 583 21 q 549 0 563 0 m 367 -106 q 383 -172 383 -136 q 352 -265 383 -219 q 258 -331 321 -310 q 246 -333 250 -333 q 225 -324 235 -333 q 215 -303 215 -315 q 233 -275 215 -283 q 297 -230 271 -256 q 322 -172 322 -204 q 314 -136 322 -150 q 310 -121 310 -128 q 340 -90 310 -90 q 367 -106 358 -90 z "},"l":{"ha":322,"x_min":126,"x_max":196,"o":"m 126 744 q 137 769 126 760 q 161 779 147 779 q 186 769 176 779 q 196 744 196 760 l 196 35 q 186 10 196 21 q 161 0 176 0 q 137 10 147 0 q 126 35 126 21 l 126 744 z "},"ĺ":{"ha":322,"x_min":125,"x_max":299,"o":"m 290 1013 q 235 948 263 981 q 179 883 207 915 q 156 872 171 872 q 134 883 143 872 q 125 903 125 893 q 132 922 125 913 q 188 988 160 954 q 246 1054 215 1022 q 268 1064 254 1064 q 289 1054 279 1064 q 299 1033 299 1044 q 290 1013 299 1021 m 126 744 q 137 769 126 760 q 161 779 147 779 q 186 769 176 779 q 196 744 196 760 l 196 35 q 186 10 196 21 q 161 0 176 0 q 137 10 147 0 q 126 35 126 21 l 126 744 z "},"ľ":{"ha":488,"x_min":126,"x_max":460,"o":"m 432 583 q 420 563 431 571 q 397 554 410 554 q 373 565 383 554 q 363 589 363 575 q 367 624 363 599 l 390 788 q 403 810 393 803 q 425 817 413 817 q 451 806 442 817 q 460 782 460 794 q 458 760 460 778 q 453 726 456 742 l 432 583 m 126 744 q 137 769 126 760 q 161 779 147 779 q 186 769 176 779 q 196 744 196 760 l 196 35 q 186 10 196 21 q 161 0 176 0 q 137 10 147 0 q 126 35 126 21 l 126 744 z "},"ļ":{"ha":322,"x_min":40,"x_max":208,"o":"m 126 744 q 137 769 126 760 q 161 779 147 779 q 186 769 176 779 q 196 744 196 760 l 196 35 q 186 10 196 21 q 161 0 176 0 q 137 10 147 0 q 126 35 126 21 l 126 744 m 192 -126 q 208 -193 208 -157 q 177 -285 208 -240 q 83 -351 146 -331 q 71 -354 75 -354 q 50 -345 60 -354 q 40 -324 40 -336 q 58 -296 40 -304 q 122 -251 96 -276 q 147 -193 147 -225 q 139 -157 147 -171 q 135 -142 135 -149 q 165 -111 135 -111 q 192 -126 183 -111 z "},"ł":{"ha":339,"x_min":28,"x_max":314,"o":"m 169 0 q 145 10 156 0 q 135 35 135 21 l 135 349 l 83 311 q 63 304 74 304 q 38 315 49 304 q 28 339 28 325 q 42 367 28 357 l 135 433 l 135 744 q 145 769 135 760 q 169 779 156 779 q 194 769 185 779 q 204 744 204 760 l 204 483 l 258 522 q 279 529 268 529 q 304 519 294 529 q 314 494 314 510 q 300 467 314 476 l 204 397 l 204 35 q 194 10 204 21 q 169 0 185 0 z "},"m":{"ha":1044,"x_min":118,"x_max":940,"o":"m 906 0 q 881 10 892 0 q 871 35 871 21 l 871 326 q 838 442 871 408 q 754 475 806 475 q 654 446 703 475 q 565 372 606 417 l 565 35 q 556 10 565 21 q 531 0 546 0 q 506 10 517 0 q 496 35 496 21 l 496 326 q 463 442 496 408 q 379 475 431 475 q 278 444 328 475 q 188 368 228 413 l 188 35 q 178 10 188 21 q 153 0 168 0 q 128 10 139 0 q 118 35 118 21 l 118 510 q 128 535 118 525 q 153 544 139 544 q 178 535 168 544 q 188 510 188 525 l 188 463 q 281 522 232 499 q 379 544 329 544 q 478 525 433 544 q 546 449 522 506 q 647 518 593 492 q 754 544 700 544 q 847 526 806 544 q 915 462 889 508 q 940 326 940 415 l 940 35 q 931 10 940 21 q 906 0 921 0 z "},"n":{"ha":690,"x_min":118,"x_max":586,"o":"m 551 0 q 527 10 538 0 q 517 35 517 21 l 517 313 q 484 437 517 399 q 396 475 451 475 q 285 444 338 475 q 188 368 232 413 l 188 35 q 178 10 188 21 q 153 0 168 0 q 128 10 139 0 q 118 35 118 21 l 118 510 q 128 535 118 525 q 153 544 139 544 q 178 535 168 544 q 188 510 188 525 l 188 460 q 286 521 235 497 q 396 544 338 544 q 492 524 449 544 q 560 452 535 503 q 586 313 586 401 l 586 35 q 576 10 586 21 q 551 0 567 0 z "},"ń":{"ha":690,"x_min":118,"x_max":586,"o":"m 551 0 q 527 10 538 0 q 517 35 517 21 l 517 313 q 484 437 517 399 q 396 475 451 475 q 285 444 338 475 q 188 368 232 413 l 188 35 q 178 10 188 21 q 153 0 168 0 q 128 10 139 0 q 118 35 118 21 l 118 510 q 128 535 118 525 q 153 544 139 544 q 178 535 168 544 q 188 510 188 525 l 188 460 q 286 521 235 497 q 396 544 338 544 q 492 524 449 544 q 560 452 535 503 q 586 313 586 401 l 586 35 q 576 10 586 21 q 551 0 567 0 m 482 810 q 424 747 451 779 q 371 681 397 714 q 347 669 363 669 q 324 680 333 669 q 315 701 315 690 q 322 721 315 711 q 378 786 347 754 q 436 853 408 818 q 458 863 444 863 q 481 853 471 863 q 490 831 490 843 q 482 810 490 818 z "},"ň":{"ha":690,"x_min":118,"x_max":586,"o":"m 551 0 q 527 10 538 0 q 517 35 517 21 l 517 313 q 484 437 517 399 q 396 475 451 475 q 285 444 338 475 q 188 368 232 413 l 188 35 q 178 10 188 21 q 153 0 168 0 q 128 10 139 0 q 118 35 118 21 l 118 510 q 128 535 118 525 q 153 544 139 544 q 178 535 168 544 q 188 510 188 525 l 188 460 q 286 521 235 497 q 396 544 338 544 q 492 524 449 544 q 560 452 535 503 q 586 313 586 401 l 586 35 q 576 10 586 21 q 551 0 567 0 m 344 668 q 315 681 328 668 q 259 735 292 703 q 200 797 226 768 q 192 819 192 808 q 201 841 192 833 q 221 849 210 849 q 244 839 235 849 q 295 788 267 817 q 347 736 324 760 q 399 790 371 760 q 447 839 428 819 q 471 849 457 849 q 492 840 483 849 q 500 819 500 832 q 492 797 500 806 q 433 736 467 771 q 378 682 400 701 q 349 668 364 668 l 344 668 z "},"ņ":{"ha":690,"x_min":118,"x_max":586,"o":"m 551 0 q 527 10 538 0 q 517 35 517 21 l 517 313 q 484 437 517 399 q 396 475 451 475 q 285 444 338 475 q 188 368 232 413 l 188 35 q 178 10 188 21 q 153 0 168 0 q 128 10 139 0 q 118 35 118 21 l 118 510 q 128 535 118 525 q 153 544 139 544 q 178 535 168 544 q 188 510 188 525 l 188 460 q 286 521 235 497 q 396 544 338 544 q 492 524 449 544 q 560 452 535 503 q 586 313 586 401 l 586 35 q 576 10 586 21 q 551 0 567 0 m 381 -126 q 397 -193 397 -157 q 366 -285 397 -240 q 272 -351 335 -331 q 260 -354 264 -354 q 239 -345 249 -354 q 229 -324 229 -336 q 247 -296 229 -304 q 310 -251 285 -276 q 336 -193 336 -225 q 328 -157 336 -171 q 324 -142 324 -149 q 354 -111 324 -111 q 381 -126 372 -111 z "},"ñ":{"ha":690,"x_min":118,"x_max":586,"o":"m 551 0 q 527 10 538 0 q 517 35 517 21 l 517 313 q 484 437 517 399 q 396 475 451 475 q 285 444 338 475 q 188 368 232 413 l 188 35 q 178 10 188 21 q 153 0 168 0 q 128 10 139 0 q 118 35 118 21 l 118 510 q 128 535 118 525 q 153 544 139 544 q 178 535 168 544 q 188 510 188 525 l 188 460 q 286 521 235 497 q 396 544 338 544 q 492 524 449 544 q 560 452 535 503 q 586 313 586 401 l 586 35 q 576 10 586 21 q 551 0 567 0 m 172 742 q 226 800 199 782 q 281 818 254 818 q 323 808 304 818 q 371 779 342 799 q 424 754 407 754 q 450 767 436 754 q 481 801 464 779 q 504 817 490 817 q 526 808 517 817 q 535 786 535 799 q 529 769 535 776 q 476 712 499 731 q 425 693 453 693 q 338 729 390 693 q 306 749 318 743 q 283 756 294 756 q 253 742 269 756 q 222 708 238 728 q 197 694 213 694 q 176 703 185 694 q 167 725 167 713 q 172 742 167 733 z "},"o":{"ha":688,"x_min":67,"x_max":619,"o":"m 343 550 q 490 512 428 550 q 585 409 551 474 q 619 265 619 344 q 585 128 619 189 q 490 31 551 67 q 343 -6 428 -6 q 197 31 260 -6 q 101 129 135 67 q 67 268 67 192 q 100 410 67 346 q 196 512 133 474 q 343 550 258 550 m 343 481 q 233 451 279 481 q 161 374 186 422 q 136 268 136 326 q 192 123 136 182 q 343 64 249 64 q 494 122 438 64 q 550 265 550 181 q 525 374 550 325 q 453 451 500 422 q 343 481 407 481 z "},"ó":{"ha":688,"x_min":67,"x_max":619,"o":"m 343 550 q 490 512 428 550 q 585 409 551 474 q 619 265 619 344 q 585 128 619 189 q 490 31 551 67 q 343 -6 428 -6 q 197 31 260 -6 q 101 129 135 67 q 67 268 67 192 q 100 410 67 346 q 196 512 133 474 q 343 550 258 550 m 343 481 q 233 451 279 481 q 161 374 186 422 q 136 268 136 326 q 192 123 136 182 q 343 64 249 64 q 494 122 438 64 q 550 265 550 181 q 525 374 550 325 q 453 451 500 422 q 343 481 407 481 m 474 815 q 416 752 443 785 q 363 686 389 719 q 339 675 354 675 q 316 685 325 675 q 307 707 307 696 q 314 726 307 717 q 369 792 339 760 q 428 858 400 824 q 450 868 436 868 q 472 858 463 868 q 482 836 482 849 q 474 815 482 824 z "},"ô":{"ha":688,"x_min":67,"x_max":619,"o":"m 343 550 q 490 512 428 550 q 585 409 551 474 q 619 265 619 344 q 585 128 619 189 q 490 31 551 67 q 343 -6 428 -6 q 197 31 260 -6 q 101 129 135 67 q 67 268 67 192 q 100 410 67 346 q 196 512 133 474 q 343 550 258 550 m 343 481 q 233 451 279 481 q 161 374 186 422 q 136 268 136 326 q 192 123 136 182 q 343 64 249 64 q 494 122 438 64 q 550 265 550 181 q 525 374 550 325 q 453 451 500 422 q 343 481 407 481 m 340 861 l 344 861 q 374 847 360 861 q 428 793 394 826 q 488 732 461 760 q 496 710 496 724 q 488 689 496 697 q 467 681 479 681 q 443 690 453 681 q 394 739 424 710 q 342 793 365 768 q 290 741 318 769 q 240 690 263 713 q 217 681 231 681 q 197 688 206 681 q 188 710 188 696 q 196 732 188 722 q 255 794 224 763 q 311 849 286 826 q 340 861 324 861 z "},"ö":{"ha":688,"x_min":67,"x_max":619,"o":"m 343 550 q 490 512 428 550 q 585 409 551 474 q 619 265 619 344 q 585 128 619 189 q 490 31 551 67 q 343 -6 428 -6 q 197 31 260 -6 q 101 129 135 67 q 67 268 67 192 q 100 410 67 346 q 196 512 133 474 q 343 550 258 550 m 343 481 q 233 451 279 481 q 161 374 186 422 q 136 268 136 326 q 192 123 136 182 q 343 64 249 64 q 494 122 438 64 q 550 265 550 181 q 525 374 550 325 q 453 451 500 422 q 343 481 407 481 m 461 696 q 423 713 439 696 q 407 760 407 729 q 424 809 407 792 q 461 826 440 826 q 497 809 481 826 q 514 760 514 792 q 497 712 514 728 q 461 696 481 696 m 214 696 q 176 713 192 696 q 160 760 160 729 q 176 809 160 792 q 214 826 193 826 q 250 809 233 826 q 267 760 267 792 q 250 712 267 728 q 214 696 233 696 z "},"ò":{"ha":688,"x_min":67,"x_max":619,"o":"m 343 550 q 490 512 428 550 q 585 409 551 474 q 619 265 619 344 q 585 128 619 189 q 490 31 551 67 q 343 -6 428 -6 q 197 31 260 -6 q 101 129 135 67 q 67 268 67 192 q 100 410 67 346 q 196 512 133 474 q 343 550 258 550 m 343 481 q 233 451 279 481 q 161 374 186 422 q 136 268 136 326 q 192 123 136 182 q 343 64 249 64 q 494 122 438 64 q 550 265 550 181 q 525 374 550 325 q 453 451 500 422 q 343 481 407 481 m 269 854 q 318 790 297 818 q 368 721 339 761 q 372 706 372 715 q 363 683 372 693 q 340 672 354 672 q 313 686 322 672 q 267 753 286 725 q 219 817 247 781 q 213 835 213 826 q 222 856 213 846 q 246 867 232 867 q 269 854 260 867 z "},"ő":{"ha":688,"x_min":67,"x_max":619,"o":"m 343 550 q 490 512 428 550 q 585 409 551 474 q 619 265 619 344 q 585 128 619 189 q 490 31 551 67 q 343 -6 428 -6 q 197 31 260 -6 q 101 129 135 67 q 67 268 67 192 q 100 410 67 346 q 196 512 133 474 q 343 550 258 550 m 343 481 q 233 451 279 481 q 161 374 186 422 q 136 268 136 326 q 192 123 136 182 q 343 64 249 64 q 494 122 438 64 q 550 265 550 181 q 525 374 550 325 q 453 451 500 422 q 343 481 407 481 m 543 811 q 504 746 521 776 q 476 685 488 715 q 449 665 469 665 q 426 674 436 665 q 417 696 417 683 q 428 728 417 703 q 452 777 438 749 q 489 844 467 806 q 517 858 497 858 q 540 849 532 858 q 547 826 547 839 q 543 811 547 818 m 314 811 q 275 746 292 776 q 247 685 258 715 q 219 665 240 665 q 197 674 207 665 q 188 696 188 683 q 190 706 188 699 q 197 725 192 713 q 222 775 207 744 q 260 844 238 806 q 288 858 268 858 q 310 849 303 858 q 318 826 318 839 q 314 811 318 818 z "},"ō":{"ha":688,"x_min":67,"x_max":619,"o":"m 343 550 q 490 512 428 550 q 585 409 551 474 q 619 265 619 344 q 585 128 619 189 q 490 31 551 67 q 343 -6 428 -6 q 197 31 260 -6 q 101 129 135 67 q 67 268 67 192 q 100 410 67 346 q 196 512 133 474 q 343 550 258 550 m 343 481 q 233 451 279 481 q 161 374 186 422 q 136 268 136 326 q 192 123 136 182 q 343 64 249 64 q 494 122 438 64 q 550 265 550 181 q 525 374 550 325 q 453 451 500 422 q 343 481 407 481 m 201 724 q 180 733 189 724 q 171 754 171 742 q 180 776 171 767 q 201 785 189 785 l 481 785 q 502 776 493 785 q 511 754 511 767 q 502 733 511 742 q 481 724 493 724 l 201 724 z "},"ø":{"ha":694,"x_min":71,"x_max":624,"o":"m 347 -6 q 251 9 296 -6 q 174 50 207 24 l 133 10 q 108 0 124 0 q 84 10 94 0 q 74 35 74 21 q 83 60 74 50 l 124 100 q 71 268 71 169 q 104 410 71 346 q 200 512 138 474 q 347 550 263 550 q 441 535 399 550 q 518 496 483 521 l 557 535 q 582 544 567 544 q 607 535 597 544 q 617 510 617 525 q 607 485 617 494 l 567 444 q 624 265 624 371 q 590 128 624 189 q 494 31 556 67 q 347 -6 432 -6 m 140 268 q 149 205 140 235 q 174 150 158 175 l 467 444 q 413 471 443 461 q 347 481 383 481 q 237 451 283 481 q 165 374 190 422 q 140 268 140 326 m 347 64 q 498 122 442 64 q 554 265 554 181 q 517 394 554 340 l 224 100 q 280 74 249 83 q 347 64 311 64 z "},"õ":{"ha":688,"x_min":67,"x_max":619,"o":"m 343 550 q 490 512 428 550 q 585 409 551 474 q 619 265 619 344 q 585 128 619 189 q 490 31 551 67 q 343 -6 428 -6 q 197 31 260 -6 q 101 129 135 67 q 67 268 67 192 q 100 410 67 346 q 196 512 133 474 q 343 550 258 550 m 343 481 q 233 451 279 481 q 161 374 186 422 q 136 268 136 326 q 192 123 136 182 q 343 64 249 64 q 494 122 438 64 q 550 265 550 181 q 525 374 550 325 q 453 451 500 422 q 343 481 407 481 m 164 747 q 218 806 190 788 q 272 824 246 824 q 315 814 296 824 q 363 785 333 804 q 415 760 399 760 q 442 772 428 760 q 472 807 456 785 q 496 822 482 822 q 517 813 508 822 q 526 792 526 804 q 521 775 526 782 q 467 717 490 736 q 417 699 444 699 q 329 735 382 699 q 298 755 310 749 q 275 761 286 761 q 245 747 261 761 q 214 714 229 733 q 189 700 204 700 q 167 709 176 700 q 158 731 158 718 q 164 747 158 739 z "},"œ":{"ha":1121,"x_min":67,"x_max":1039,"o":"m 843 0 q 685 33 751 0 q 583 128 618 65 q 490 31 551 68 q 343 -6 429 -6 q 197 31 260 -6 q 101 129 135 67 q 67 268 67 192 q 100 410 67 346 q 196 512 133 474 q 343 550 258 550 q 491 511 429 550 q 585 407 553 472 q 679 508 618 472 q 815 544 740 544 q 936 514 886 544 q 1013 440 986 483 q 1039 357 1039 397 q 1008 271 1039 306 q 890 236 978 236 l 618 236 q 691 111 629 153 q 843 69 753 69 q 909 76 878 69 q 965 92 940 82 q 978 94 974 94 q 1002 84 992 94 q 1013 60 1013 74 q 990 28 1013 36 q 922 8 961 17 q 843 0 883 0 m 343 481 q 233 451 279 481 q 161 374 186 422 q 136 268 136 326 q 192 123 136 182 q 343 64 249 64 q 494 122 438 64 q 550 265 550 181 q 525 374 550 325 q 453 451 500 422 q 343 481 407 481 m 815 475 q 687 428 742 475 q 619 306 632 382 l 890 306 q 969 357 969 306 q 949 412 969 385 q 894 457 929 439 q 815 475 860 475 z "},"p":{"ha":699,"x_min":118,"x_max":632,"o":"m 188 -231 q 178 -255 188 -244 q 153 -265 168 -265 q 128 -255 139 -265 q 118 -231 118 -244 l 118 510 q 128 535 118 525 q 153 544 139 544 q 178 535 168 544 q 188 510 188 525 l 188 454 q 281 521 232 497 q 385 544 331 544 q 506 514 450 544 q 597 423 563 483 q 632 272 632 363 q 599 133 632 194 q 506 35 565 71 q 368 0 446 0 q 276 15 322 0 q 188 57 231 31 l 188 -231 m 368 69 q 509 128 456 69 q 563 272 563 188 q 510 422 563 369 q 385 475 457 475 q 277 441 326 475 q 188 351 228 407 l 188 140 q 274 90 228 110 q 368 69 321 69 z "},"þ":{"ha":699,"x_min":118,"x_max":632,"o":"m 188 -231 q 178 -255 188 -244 q 153 -265 168 -265 q 128 -255 139 -265 q 118 -231 118 -244 l 118 743 q 128 768 118 758 q 153 778 139 778 q 178 768 168 778 q 188 743 188 758 l 188 454 q 281 521 232 497 q 385 544 331 544 q 506 514 450 544 q 597 423 563 483 q 632 272 632 363 q 599 133 632 194 q 506 35 565 71 q 368 0 446 0 q 276 15 322 0 q 188 57 231 31 l 188 -231 m 368 69 q 509 128 456 69 q 563 272 563 188 q 510 422 563 369 q 385 475 457 475 q 277 440 326 475 q 188 350 228 406 l 188 140 q 274 90 228 110 q 368 69 321 69 z "},"q":{"ha":701,"x_min":68,"x_max":583,"o":"m 549 -265 q 524 -255 535 -265 q 514 -231 514 -244 l 514 88 q 415 22 468 43 q 308 0 363 0 q 192 30 247 0 q 103 115 138 60 q 68 251 68 171 q 107 409 68 343 q 210 510 146 475 q 349 544 274 544 q 514 511 442 544 q 526 535 515 526 q 549 544 536 544 q 574 535 564 544 q 583 510 583 525 l 583 -231 q 574 -255 583 -244 q 549 -265 564 -265 m 308 69 q 419 99 367 69 q 514 192 472 129 l 514 433 q 438 464 478 453 q 349 475 397 475 q 244 448 292 475 q 167 371 196 421 q 138 251 138 321 q 162 155 138 196 q 225 92 186 114 q 308 69 264 69 z "},"r":{"ha":481,"x_min":118,"x_max":454,"o":"m 153 0 q 128 10 139 0 q 118 35 118 21 l 118 510 q 128 535 118 525 q 153 544 139 544 q 178 535 168 544 q 188 510 188 525 l 188 428 q 303 514 242 485 q 421 543 364 543 q 445 534 436 543 q 454 511 454 525 q 424 475 454 479 q 288 424 343 465 q 188 315 232 382 l 188 35 q 178 10 188 21 q 153 0 168 0 z "},"ŕ":{"ha":481,"x_min":118,"x_max":454,"o":"m 153 0 q 128 10 139 0 q 118 35 118 21 l 118 510 q 128 535 118 525 q 153 544 139 544 q 178 535 168 544 q 188 510 188 525 l 188 428 q 303 514 242 485 q 421 543 364 543 q 445 534 436 543 q 454 511 454 525 q 424 475 454 479 q 288 424 343 465 q 188 315 232 382 l 188 35 q 178 10 188 21 q 153 0 168 0 m 390 810 q 333 747 360 779 q 279 681 306 714 q 256 669 271 669 q 233 680 242 669 q 224 701 224 690 q 231 721 224 711 q 286 786 256 754 q 344 853 317 818 q 367 863 353 863 q 389 853 379 863 q 399 831 399 843 q 390 810 399 818 z "},"ř":{"ha":481,"x_min":100,"x_max":454,"o":"m 153 0 q 128 10 139 0 q 118 35 118 21 l 118 510 q 128 535 118 525 q 153 544 139 544 q 178 535 168 544 q 188 510 188 525 l 188 428 q 303 514 242 485 q 421 543 364 543 q 445 534 436 543 q 454 511 454 525 q 424 475 454 479 q 288 424 343 465 q 188 315 232 382 l 188 35 q 178 10 188 21 q 153 0 168 0 m 253 668 q 224 681 236 668 q 167 735 200 703 q 108 797 135 768 q 100 819 100 808 q 109 841 100 833 q 129 849 118 849 q 153 839 143 849 q 203 788 175 817 q 256 736 232 760 q 308 790 279 760 q 356 839 336 819 q 379 849 365 849 q 400 840 392 849 q 408 819 408 832 q 400 797 408 806 q 342 736 375 771 q 286 682 308 701 q 257 668 272 668 l 253 668 z "},"ŗ":{"ha":481,"x_min":32,"x_max":454,"o":"m 153 0 q 128 10 139 0 q 118 35 118 21 l 118 510 q 128 535 118 525 q 153 544 139 544 q 178 535 168 544 q 188 510 188 525 l 188 428 q 303 514 242 485 q 421 543 364 543 q 445 534 436 543 q 454 511 454 525 q 424 475 454 479 q 288 424 343 465 q 188 315 232 382 l 188 35 q 178 10 188 21 q 153 0 168 0 m 183 -126 q 200 -193 200 -157 q 169 -285 200 -240 q 75 -351 138 -331 q 63 -354 67 -354 q 42 -345 51 -354 q 32 -324 32 -336 q 50 -296 32 -304 q 113 -251 88 -276 q 139 -193 139 -225 q 131 -157 139 -171 q 126 -142 126 -149 q 157 -111 126 -111 q 183 -126 175 -111 z "},"s":{"ha":625,"x_min":94,"x_max":547,"o":"m 438 464 q 390 474 424 468 q 315 479 356 479 q 210 456 247 479 q 172 397 172 432 q 203 348 172 367 q 307 322 235 329 l 363 317 q 474 285 433 310 q 531 226 514 260 q 547 154 547 192 q 528 80 547 117 q 460 19 508 43 q 324 -6 413 -6 q 218 5 272 -6 q 115 36 164 15 q 94 69 94 46 q 106 92 94 82 q 131 103 117 103 q 140 100 133 103 q 165 90 147 97 q 235 72 192 81 q 324 64 278 64 q 438 90 399 64 q 478 154 478 115 q 450 216 478 190 q 357 247 422 242 l 301 253 q 176 284 219 261 q 118 338 133 307 q 103 399 103 368 q 122 467 103 433 q 187 525 140 501 q 315 549 233 549 q 403 542 363 549 q 476 526 444 536 q 494 515 488 525 q 501 493 501 504 q 491 468 501 478 q 467 458 481 458 q 438 464 458 458 z "},"ś":{"ha":625,"x_min":94,"x_max":547,"o":"m 438 464 q 390 474 424 468 q 315 479 356 479 q 210 456 247 479 q 172 397 172 432 q 203 348 172 367 q 307 322 235 329 l 363 317 q 474 285 433 310 q 531 226 514 260 q 547 154 547 192 q 528 80 547 117 q 460 19 508 43 q 324 -6 413 -6 q 218 5 272 -6 q 115 36 164 15 q 94 69 94 46 q 106 92 94 82 q 131 103 117 103 q 140 100 133 103 q 165 90 147 97 q 235 72 192 81 q 324 64 278 64 q 438 90 399 64 q 478 154 478 115 q 450 216 478 190 q 357 247 422 242 l 301 253 q 176 284 219 261 q 118 338 133 307 q 103 399 103 368 q 122 467 103 433 q 187 525 140 501 q 315 549 233 549 q 403 542 363 549 q 476 526 444 536 q 494 515 488 525 q 501 493 501 504 q 491 468 501 478 q 467 458 481 458 q 438 464 458 458 m 446 814 q 388 751 415 783 q 335 685 361 718 q 311 674 326 674 q 288 684 297 674 q 279 706 279 694 q 286 725 279 715 q 342 790 311 758 q 400 857 372 822 q 422 867 408 867 q 444 857 435 867 q 454 835 454 847 q 446 814 454 822 z "},"š":{"ha":625,"x_min":94,"x_max":547,"o":"m 438 464 q 390 474 424 468 q 315 479 356 479 q 210 456 247 479 q 172 397 172 432 q 203 348 172 367 q 307 322 235 329 l 363 317 q 474 285 433 310 q 531 226 514 260 q 547 154 547 192 q 528 80 547 117 q 460 19 508 43 q 324 -6 413 -6 q 218 5 272 -6 q 115 36 164 15 q 94 69 94 46 q 106 92 94 82 q 131 103 117 103 q 140 100 133 103 q 165 90 147 97 q 235 72 192 81 q 324 64 278 64 q 438 90 399 64 q 478 154 478 115 q 450 216 478 190 q 357 247 422 242 l 301 253 q 176 284 219 261 q 118 338 133 307 q 103 399 103 368 q 122 467 103 433 q 187 525 140 501 q 315 549 233 549 q 403 542 363 549 q 476 526 444 536 q 494 515 488 525 q 501 493 501 504 q 491 468 501 478 q 467 458 481 458 q 438 464 458 458 m 308 672 q 279 685 292 672 q 223 740 256 707 q 164 801 190 772 q 156 824 156 813 q 165 845 156 838 q 185 853 174 853 q 208 843 199 853 q 259 792 231 821 q 311 740 288 764 q 363 794 335 764 q 411 843 392 824 q 435 853 421 853 q 456 844 447 853 q 464 824 464 836 q 456 801 464 810 q 397 740 431 775 q 342 686 364 706 q 313 672 328 672 l 308 672 z "},"ş":{"ha":625,"x_min":94,"x_max":547,"o":"m 438 464 q 390 474 424 468 q 315 479 356 479 q 210 456 247 479 q 172 397 172 432 q 203 348 172 367 q 307 322 235 329 l 363 317 q 474 285 433 310 q 531 226 514 260 q 547 154 547 192 q 528 80 547 117 q 460 19 508 43 q 324 -6 413 -6 q 218 5 272 -6 q 115 36 164 15 q 94 69 94 46 q 106 92 94 82 q 131 103 117 103 q 140 100 133 103 q 165 90 147 97 q 235 72 192 81 q 324 64 278 64 q 438 90 399 64 q 478 154 478 115 q 450 216 478 190 q 357 247 422 242 l 301 253 q 176 284 219 261 q 118 338 133 307 q 103 399 103 368 q 122 467 103 433 q 187 525 140 501 q 315 549 233 549 q 403 542 363 549 q 476 526 444 536 q 494 515 488 525 q 501 493 501 504 q 491 468 501 478 q 467 458 481 458 q 438 464 458 458 m 350 -176 q 304 -219 331 -192 q 253 -272 278 -246 q 211 -315 228 -299 q 189 -324 203 -324 q 168 -315 178 -324 q 158 -293 158 -307 q 167 -271 158 -279 q 210 -228 183 -254 q 263 -176 236 -203 q 308 -132 290 -150 q 329 -124 317 -124 q 350 -133 340 -124 q 360 -154 360 -142 q 350 -176 360 -168 z "},"ș":{"ha":625,"x_min":94,"x_max":547,"o":"m 438 464 q 390 474 424 468 q 315 479 356 479 q 210 456 247 479 q 172 397 172 432 q 203 348 172 367 q 307 322 235 329 l 363 317 q 474 285 433 310 q 531 226 514 260 q 547 154 547 192 q 528 80 547 117 q 460 19 508 43 q 324 -6 413 -6 q 218 5 272 -6 q 115 36 164 15 q 94 69 94 46 q 106 92 94 82 q 131 103 117 103 q 140 100 133 103 q 165 90 147 97 q 235 72 192 81 q 324 64 278 64 q 438 90 399 64 q 478 154 478 115 q 450 216 478 190 q 357 247 422 242 l 301 253 q 176 284 219 261 q 118 338 133 307 q 103 399 103 368 q 122 467 103 433 q 187 525 140 501 q 315 549 233 549 q 403 542 363 549 q 476 526 444 536 q 494 515 488 525 q 501 493 501 504 q 491 468 501 478 q 467 458 481 458 q 438 464 458 458 m 353 -132 q 369 -199 369 -162 q 338 -291 369 -246 q 244 -357 307 -336 q 232 -360 236 -360 q 211 -351 221 -360 q 201 -329 201 -342 q 219 -301 201 -310 q 283 -256 257 -282 q 308 -199 308 -231 q 300 -162 308 -176 q 296 -147 296 -154 q 326 -117 296 -117 q 353 -132 344 -117 z "},"ß":{"ha":707,"x_min":126,"x_max":643,"o":"m 447 -6 q 388 0 415 -6 q 342 13 360 6 q 319 44 319 21 q 330 69 319 58 q 354 79 340 79 q 375 74 360 79 q 403 67 382 71 q 447 64 424 64 q 540 94 507 64 q 574 174 574 124 q 461 319 574 264 l 346 374 q 326 407 326 382 l 326 410 q 342 440 326 429 q 422 503 394 476 q 460 558 450 531 q 471 619 471 586 q 437 707 471 668 q 329 746 403 746 q 228 706 261 746 q 196 606 196 665 l 196 35 q 186 10 196 21 q 161 0 176 0 q 137 10 147 0 q 126 35 126 21 l 126 606 q 176 754 126 694 q 329 815 226 814 q 449 788 403 815 q 518 715 496 760 q 540 619 540 669 q 532 548 540 581 q 499 483 524 515 q 425 414 475 451 l 492 381 q 608 288 574 342 q 643 174 643 235 q 594 46 643 97 q 447 -6 544 -6 z "},"t":{"ha":492,"x_min":29,"x_max":440,"o":"m 388 0 q 206 53 260 0 q 151 197 151 107 l 151 475 l 64 475 q 40 485 50 475 q 29 510 29 496 q 40 535 29 525 q 64 544 50 544 l 151 544 l 151 685 q 162 710 151 700 q 186 719 172 719 q 211 710 201 719 q 221 685 221 700 l 221 544 l 406 544 q 431 535 421 544 q 440 510 440 525 q 431 485 440 496 q 406 475 421 475 l 221 475 l 221 197 q 388 69 221 69 q 413 59 403 69 q 422 35 422 49 q 412 10 422 21 q 388 0 401 0 z "},"ť":{"ha":492,"x_min":29,"x_max":449,"o":"m 418 693 q 386 664 414 664 q 363 674 372 664 q 354 696 354 683 q 356 710 354 700 q 360 736 357 719 l 385 879 q 417 910 389 910 q 442 898 435 910 q 449 875 449 886 q 446 855 449 871 q 440 822 443 839 l 418 693 m 388 0 q 206 55 260 3 q 151 197 151 107 l 151 475 l 64 475 q 40 485 50 475 q 29 510 29 496 q 40 535 29 525 q 64 544 50 544 l 151 544 l 151 685 q 162 710 151 700 q 186 719 172 719 q 211 710 201 719 q 221 685 221 700 l 221 544 l 406 544 q 431 535 421 544 q 440 510 440 525 q 431 485 440 496 q 406 475 421 475 l 221 475 l 221 197 q 388 69 221 74 q 413 59 403 69 q 422 35 422 49 q 412 10 422 21 q 388 0 401 0 z "},"ţ":{"ha":492,"x_min":29,"x_max":440,"o":"m 388 0 q 206 53 260 0 q 151 197 151 107 l 151 475 l 64 475 q 40 485 50 475 q 29 510 29 496 q 40 535 29 525 q 64 544 50 544 l 151 544 l 151 685 q 162 710 151 700 q 186 719 172 719 q 211 710 201 719 q 221 685 221 700 l 221 544 l 406 544 q 431 535 421 544 q 440 510 440 525 q 431 485 440 496 q 406 475 421 475 l 221 475 l 221 197 q 388 69 221 69 q 413 59 403 69 q 422 35 422 49 q 412 10 422 21 q 388 0 401 0 m 308 -171 q 263 -213 289 -186 q 211 -267 236 -240 q 169 -310 186 -293 q 147 -318 161 -318 q 126 -310 136 -318 q 117 -287 117 -301 q 125 -265 117 -274 q 168 -223 142 -249 q 222 -171 194 -197 q 267 -126 249 -144 q 288 -118 275 -118 q 308 -127 299 -118 q 318 -149 318 -136 q 308 -171 318 -162 z "},"ț":{"ha":492,"x_min":29,"x_max":440,"o":"m 388 0 q 206 53 260 0 q 151 197 151 107 l 151 475 l 64 475 q 40 485 50 475 q 29 510 29 496 q 40 535 29 525 q 64 544 50 544 l 151 544 l 151 685 q 162 710 151 700 q 186 719 172 719 q 211 710 201 719 q 221 685 221 700 l 221 544 l 406 544 q 431 535 421 544 q 440 510 440 525 q 431 485 440 496 q 406 475 421 475 l 221 475 l 221 197 q 388 69 221 69 q 413 59 403 69 q 422 35 422 49 q 412 10 422 21 q 388 0 401 0 m 311 -126 q 328 -193 328 -157 q 297 -285 328 -240 q 203 -351 265 -331 q 190 -354 194 -354 q 169 -345 179 -354 q 160 -324 160 -336 q 178 -296 160 -304 q 241 -251 215 -276 q 267 -193 267 -225 q 258 -157 267 -171 q 254 -142 254 -149 q 285 -111 254 -111 q 311 -126 303 -111 z "},"u":{"ha":690,"x_min":104,"x_max":572,"o":"m 538 0 q 513 10 524 0 q 503 35 503 21 l 503 97 q 403 27 457 54 q 294 0 349 0 q 199 21 243 0 q 130 92 156 42 q 104 232 104 143 l 104 510 q 115 535 104 525 q 139 544 125 544 q 164 535 154 544 q 174 510 174 525 l 174 232 q 206 108 174 147 q 294 69 239 69 q 408 106 351 69 q 503 194 464 142 l 503 510 q 513 535 503 525 q 538 544 524 544 q 563 535 553 544 q 572 510 572 525 l 572 35 q 563 10 572 21 q 538 0 553 0 z "},"ú":{"ha":690,"x_min":104,"x_max":572,"o":"m 538 0 q 513 10 524 0 q 503 35 503 21 l 503 97 q 403 27 457 54 q 294 0 349 0 q 199 21 243 0 q 130 92 156 42 q 104 232 104 143 l 104 510 q 115 535 104 525 q 139 544 125 544 q 164 535 154 544 q 174 510 174 525 l 174 232 q 206 108 174 147 q 294 69 239 69 q 408 106 351 69 q 503 194 464 142 l 503 510 q 513 535 503 525 q 538 544 524 544 q 563 535 553 544 q 572 510 572 525 l 572 35 q 563 10 572 21 q 538 0 553 0 m 467 810 q 409 747 436 779 q 356 681 382 714 q 332 669 347 669 q 309 680 318 669 q 300 701 300 690 q 307 721 300 711 q 363 786 332 754 q 421 853 393 818 q 443 863 429 863 q 465 853 456 863 q 475 831 475 843 q 467 810 475 818 z "},"û":{"ha":690,"x_min":104,"x_max":572,"o":"m 538 0 q 513 10 524 0 q 503 35 503 21 l 503 97 q 403 27 457 54 q 294 0 349 0 q 199 21 243 0 q 130 92 156 42 q 104 232 104 143 l 104 510 q 115 535 104 525 q 139 544 125 544 q 164 535 154 544 q 174 510 174 525 l 174 232 q 206 108 174 147 q 294 69 239 69 q 408 106 351 69 q 503 194 464 142 l 503 510 q 513 535 503 525 q 538 544 524 544 q 563 535 553 544 q 572 510 572 525 l 572 35 q 563 10 572 21 q 538 0 553 0 m 333 856 l 338 856 q 367 842 353 856 q 421 788 388 821 q 481 726 454 754 q 489 704 489 718 q 481 683 489 692 q 460 675 472 675 q 436 685 446 675 q 388 733 417 704 q 335 788 358 763 q 283 735 311 764 q 233 685 256 707 q 210 675 224 675 q 190 683 199 675 q 181 704 181 690 q 189 726 181 717 q 248 789 217 757 q 304 843 279 821 q 333 856 317 856 z "},"ü":{"ha":690,"x_min":104,"x_max":572,"o":"m 538 0 q 513 10 524 0 q 503 35 503 21 l 503 97 q 403 27 457 54 q 294 0 349 0 q 199 21 243 0 q 130 92 156 42 q 104 232 104 143 l 104 510 q 115 535 104 525 q 139 544 125 544 q 164 535 154 544 q 174 510 174 525 l 174 232 q 206 108 174 147 q 294 69 239 69 q 408 106 351 69 q 503 194 464 142 l 503 510 q 513 535 503 525 q 538 544 524 544 q 563 535 553 544 q 572 510 572 525 l 572 35 q 563 10 572 21 q 538 0 553 0 m 454 690 q 416 707 432 690 q 400 754 400 724 q 417 803 400 786 q 454 821 433 821 q 490 803 474 821 q 507 754 507 786 q 490 706 507 722 q 454 690 474 690 m 207 690 q 169 707 185 690 q 153 754 153 724 q 169 803 153 786 q 207 821 186 821 q 243 803 226 821 q 260 754 260 786 q 243 706 260 722 q 207 690 226 690 z "},"ù":{"ha":690,"x_min":104,"x_max":572,"o":"m 538 0 q 513 10 524 0 q 503 35 503 21 l 503 97 q 403 27 457 54 q 294 0 349 0 q 199 21 243 0 q 130 92 156 42 q 104 232 104 143 l 104 510 q 115 535 104 525 q 139 544 125 544 q 164 535 154 544 q 174 510 174 525 l 174 232 q 206 108 174 147 q 294 69 239 69 q 408 106 351 69 q 503 194 464 142 l 503 510 q 513 535 503 525 q 538 544 524 544 q 563 535 553 544 q 572 510 572 525 l 572 35 q 563 10 572 21 q 538 0 553 0 m 263 849 q 311 784 290 813 q 361 715 332 756 q 365 700 365 710 q 356 677 365 688 q 333 667 347 667 q 306 681 315 667 q 260 747 279 719 q 213 811 240 775 q 206 829 206 821 q 215 851 206 840 q 239 861 225 861 q 263 849 253 861 z "},"ű":{"ha":690,"x_min":104,"x_max":572,"o":"m 538 0 q 513 10 524 0 q 503 35 503 21 l 503 97 q 403 27 457 54 q 294 0 349 0 q 199 21 243 0 q 130 92 156 42 q 104 232 104 143 l 104 510 q 115 535 104 525 q 139 544 125 544 q 164 535 154 544 q 174 510 174 525 l 174 232 q 206 108 174 147 q 294 69 239 69 q 408 106 351 69 q 503 194 464 142 l 503 510 q 513 535 503 525 q 538 544 524 544 q 563 535 553 544 q 572 510 572 525 l 572 35 q 563 10 572 21 q 538 0 553 0 m 536 806 q 497 740 514 771 q 469 679 481 710 q 442 660 463 660 q 419 669 429 660 q 410 690 410 678 q 421 722 410 697 q 445 772 431 743 q 482 839 460 800 q 510 853 490 853 q 533 843 525 853 q 540 821 540 833 q 536 806 540 813 m 307 806 q 268 740 285 771 q 240 679 251 710 q 213 660 233 660 q 190 669 200 660 q 181 690 181 678 q 183 700 181 693 q 190 719 185 707 q 215 769 200 739 q 253 839 231 800 q 281 853 261 853 q 303 843 296 853 q 311 821 311 833 q 307 806 311 813 z "},"ū":{"ha":690,"x_min":104,"x_max":572,"o":"m 538 0 q 513 10 524 0 q 503 35 503 21 l 503 97 q 403 27 457 54 q 294 0 349 0 q 199 21 243 0 q 130 92 156 42 q 104 232 104 143 l 104 510 q 115 535 104 525 q 139 544 125 544 q 164 535 154 544 q 174 510 174 525 l 174 232 q 206 108 174 147 q 294 69 239 69 q 408 106 351 69 q 503 194 464 142 l 503 510 q 513 535 503 525 q 538 544 524 544 q 563 535 553 544 q 572 510 572 525 l 572 35 q 563 10 572 21 q 538 0 553 0 m 194 718 q 173 727 182 718 q 164 749 164 736 q 173 770 164 761 q 194 779 182 779 l 474 779 q 495 770 486 779 q 504 749 504 761 q 495 727 504 736 q 474 718 486 718 l 194 718 z "},"ų":{"ha":690,"x_min":104,"x_max":585,"o":"m 554 -307 q 438 -290 481 -307 q 377 -248 394 -274 q 360 -193 360 -222 q 369 -149 360 -174 q 410 -91 379 -125 q 503 -6 440 -57 l 503 97 q 403 27 457 54 q 294 0 349 0 q 199 21 243 0 q 130 92 156 42 q 104 232 104 143 l 104 510 q 115 535 104 525 q 139 544 125 544 q 164 535 154 544 q 174 510 174 525 l 174 232 q 206 108 174 147 q 294 69 239 69 q 408 110 351 69 q 503 203 464 150 l 503 510 q 513 535 503 525 q 538 544 524 544 q 563 535 553 544 q 572 510 572 525 l 572 -6 q 553 -43 572 -28 q 450 -135 479 -103 q 421 -193 421 -168 q 462 -234 421 -222 q 554 -246 503 -246 q 576 -255 567 -246 q 585 -276 585 -264 q 576 -298 585 -289 q 554 -307 567 -307 z "},"ů":{"ha":690,"x_min":104,"x_max":572,"o":"m 538 0 q 513 10 524 0 q 503 35 503 21 l 503 97 q 403 27 457 54 q 294 0 349 0 q 199 21 243 0 q 130 92 156 42 q 104 232 104 143 l 104 510 q 115 535 104 525 q 139 544 125 544 q 164 535 154 544 q 174 510 174 525 l 174 232 q 206 108 174 147 q 294 69 239 69 q 408 106 351 69 q 503 194 464 142 l 503 510 q 513 535 503 525 q 538 544 524 544 q 563 535 553 544 q 572 510 572 525 l 572 35 q 563 10 572 21 q 538 0 553 0 m 488 706 q 448 610 488 653 q 336 567 408 567 q 257 588 290 567 q 206 640 224 608 q 189 706 189 672 q 206 771 189 739 q 257 824 224 803 q 336 844 290 844 q 448 801 408 844 q 488 706 488 758 m 426 706 q 401 760 426 738 q 336 783 376 783 q 274 759 297 783 q 250 706 250 735 q 274 652 250 676 q 336 628 297 628 q 401 651 376 628 q 426 706 426 674 z "},"v":{"ha":626,"x_min":53,"x_max":575,"o":"m 318 -6 q 289 11 299 -6 q 182 206 233 101 q 88 413 131 311 q 60 483 68 460 q 53 510 53 507 q 63 534 53 524 q 88 544 74 544 q 119 522 111 544 q 222 281 172 385 q 319 94 272 176 q 387 228 353 154 q 453 379 421 303 q 508 522 485 456 q 540 544 515 544 q 565 534 554 544 q 575 510 575 524 q 546 424 575 497 q 493 297 525 371 q 425 148 461 224 q 351 11 389 72 q 322 -6 342 -6 l 318 -6 z "},"w":{"ha":971,"x_min":67,"x_max":906,"o":"m 693 -6 q 663 13 672 -6 q 576 190 621 90 q 486 404 531 289 q 429 265 461 336 q 366 130 397 194 q 310 15 335 65 q 279 -4 300 -4 l 276 -4 q 244 15 254 -4 q 167 197 201 106 q 97 397 132 289 q 74 476 81 450 q 67 508 67 503 q 76 533 67 522 q 101 543 86 543 q 135 518 128 543 q 205 299 167 404 q 279 108 243 193 q 340 235 308 167 q 399 372 371 303 q 447 504 428 442 q 460 522 450 515 q 481 529 471 529 l 489 529 q 510 523 500 529 q 524 506 519 517 q 608 290 564 392 q 692 107 651 189 q 769 304 729 194 q 838 517 810 414 q 871 542 844 542 q 896 531 886 542 q 906 507 906 521 q 903 494 906 504 q 897 472 900 483 q 815 228 863 350 q 728 15 768 106 q 696 -6 718 -6 l 693 -6 z "},"x":{"ha":621,"x_min":53,"x_max":568,"o":"m 533 0 q 507 13 518 0 q 413 117 464 61 q 310 231 363 174 q 199 108 251 167 q 114 13 147 50 q 88 0 104 0 q 63 10 74 0 q 53 35 53 21 q 61 57 53 49 q 149 156 94 96 q 263 282 203 215 q 163 392 211 339 q 79 488 115 444 q 71 508 71 496 q 81 534 71 524 q 104 544 92 544 q 132 532 122 544 q 213 440 168 490 q 310 333 258 389 q 402 439 358 388 q 478 532 446 490 q 506 544 489 544 q 531 533 521 544 q 540 510 540 522 q 533 488 540 496 q 453 392 500 444 q 356 282 406 339 q 464 165 411 222 q 560 57 517 107 q 568 35 568 49 q 558 11 568 22 q 533 0 549 0 z "},"y":{"ha":625,"x_min":53,"x_max":571,"o":"m 89 -242 q 65 -232 76 -242 q 53 -208 53 -222 q 71 -176 53 -187 q 183 -97 129 -143 q 289 33 238 -50 q 177 226 236 117 q 74 454 118 336 q 59 497 63 486 q 56 513 56 507 q 65 535 56 524 q 89 546 75 546 q 110 540 100 546 q 124 522 119 533 q 226 283 172 388 q 328 101 281 179 q 394 232 361 161 q 455 377 426 303 q 503 519 483 451 q 536 544 510 544 q 561 534 551 544 q 571 510 571 524 q 566 489 571 506 q 557 460 561 472 q 506 320 538 399 q 437 162 474 242 q 363 18 400 82 q 238 -142 301 -86 q 104 -237 174 -197 q 89 -242 99 -242 z "},"ý":{"ha":625,"x_min":53,"x_max":571,"o":"m 89 -242 q 65 -232 76 -242 q 53 -208 53 -222 q 71 -176 53 -187 q 183 -97 129 -143 q 289 33 238 -50 q 177 226 236 117 q 74 454 118 336 q 59 497 63 486 q 56 513 56 507 q 65 535 56 524 q 89 546 75 546 q 110 540 100 546 q 124 522 119 533 q 226 283 172 388 q 328 101 281 179 q 394 232 361 161 q 455 377 426 303 q 503 519 483 451 q 536 544 510 544 q 561 534 551 544 q 571 510 571 524 q 566 489 571 506 q 557 460 561 472 q 506 320 538 399 q 437 162 474 242 q 363 18 400 82 q 238 -142 301 -86 q 104 -237 174 -197 q 89 -242 99 -242 m 442 810 q 384 747 411 779 q 331 681 357 714 q 307 669 322 669 q 284 680 293 669 q 275 701 275 690 q 282 721 275 711 q 338 786 307 754 q 396 853 368 818 q 418 863 404 863 q 440 853 431 863 q 450 831 450 843 q 442 810 450 818 z "},"ÿ":{"ha":625,"x_min":53,"x_max":571,"o":"m 89 -242 q 65 -232 76 -242 q 53 -208 53 -222 q 71 -176 53 -187 q 183 -97 129 -143 q 289 33 238 -50 q 177 226 236 117 q 74 454 118 336 q 59 497 63 486 q 56 513 56 507 q 65 535 56 524 q 89 546 75 546 q 110 540 100 546 q 124 522 119 533 q 226 283 172 388 q 328 101 281 179 q 394 232 361 161 q 455 377 426 303 q 503 519 483 451 q 536 544 510 544 q 561 534 551 544 q 571 510 571 524 q 566 489 571 506 q 557 460 561 472 q 506 320 538 399 q 437 162 474 242 q 363 18 400 82 q 238 -142 301 -86 q 104 -237 174 -197 q 89 -242 99 -242 m 429 690 q 391 707 407 690 q 375 754 375 724 q 392 803 375 786 q 429 821 408 821 q 465 803 449 821 q 482 754 482 786 q 465 706 482 722 q 429 690 449 690 m 182 690 q 144 707 160 690 q 128 754 128 724 q 144 803 128 786 q 182 821 161 821 q 218 803 201 821 q 235 754 235 786 q 218 706 235 722 q 182 690 201 690 z "},"z":{"ha":617,"x_min":64,"x_max":551,"o":"m 99 0 q 74 10 85 0 q 64 35 64 21 q 81 68 64 50 l 426 475 l 119 475 q 95 485 106 475 q 85 510 85 496 q 95 535 85 525 q 119 544 106 544 l 501 544 q 526 534 515 544 q 536 508 536 524 q 528 488 536 496 l 172 69 l 517 69 q 542 60 532 69 q 551 35 551 50 q 542 10 551 21 q 517 0 532 0 l 99 0 z "},"ź":{"ha":617,"x_min":64,"x_max":551,"o":"m 99 0 q 74 10 85 0 q 64 35 64 21 q 81 68 64 50 l 426 475 l 119 475 q 95 485 106 475 q 85 510 85 496 q 95 535 85 525 q 119 544 106 544 l 501 544 q 526 534 515 544 q 536 508 536 524 q 528 488 536 496 l 172 69 l 517 69 q 542 60 532 69 q 551 35 551 50 q 542 10 551 21 q 517 0 532 0 l 99 0 m 433 810 q 376 747 403 779 q 322 681 349 714 q 299 669 314 669 q 276 680 285 669 q 267 701 267 690 q 274 721 267 711 q 329 786 299 754 q 388 853 360 818 q 410 863 396 863 q 432 853 422 863 q 442 831 442 843 q 433 810 442 818 z "},"ž":{"ha":617,"x_min":64,"x_max":551,"o":"m 99 0 q 74 10 85 0 q 64 35 64 21 q 81 68 64 50 l 426 475 l 119 475 q 95 485 106 475 q 85 510 85 496 q 95 535 85 525 q 119 544 106 544 l 501 544 q 526 534 515 544 q 536 508 536 524 q 528 488 536 496 l 172 69 l 517 69 q 542 60 532 69 q 551 35 551 50 q 542 10 551 21 q 517 0 532 0 l 99 0 m 296 668 q 267 681 279 668 q 210 735 243 703 q 151 797 178 768 q 143 819 143 808 q 152 841 143 833 q 172 849 161 849 q 196 839 186 849 q 247 788 218 817 q 299 736 275 760 q 351 790 322 760 q 399 839 379 819 q 422 849 408 849 q 443 840 435 849 q 451 819 451 832 q 443 797 451 806 q 385 736 418 771 q 329 682 351 701 q 300 668 315 668 l 296 668 z "},"ż":{"ha":617,"x_min":64,"x_max":551,"o":"m 99 0 q 74 10 85 0 q 64 35 64 21 q 81 68 64 50 l 426 475 l 119 475 q 95 485 106 475 q 85 510 85 496 q 95 535 85 525 q 119 544 106 544 l 501 544 q 526 534 515 544 q 536 508 536 524 q 528 488 536 496 l 172 69 l 517 69 q 542 60 532 69 q 551 35 551 50 q 542 10 551 21 q 517 0 532 0 l 99 0 m 303 828 q 340 810 324 828 q 357 761 357 793 q 341 714 357 731 q 303 697 325 697 q 263 715 279 697 q 246 761 246 732 q 263 809 246 790 q 303 828 281 828 z "},"ﬁ":{"ha":764,"x_min":29,"x_max":658,"o":"m 186 0 q 162 10 172 0 q 151 35 151 21 l 151 475 l 64 475 q 40 485 50 475 q 29 510 29 496 q 40 535 29 525 q 64 544 50 544 l 151 544 l 151 611 q 212 764 151 714 q 376 814 272 814 q 401 804 392 814 q 410 779 410 794 q 400 756 410 767 q 376 746 390 746 q 256 709 292 746 q 221 611 221 672 l 221 544 l 378 544 q 403 535 393 544 q 413 510 413 525 q 403 485 413 496 q 378 475 393 475 l 221 475 l 221 35 q 211 10 221 21 q 186 0 201 0 m 601 829 q 642 810 625 829 q 658 760 658 792 q 642 711 658 728 q 603 694 625 694 q 560 712 578 694 q 543 760 543 729 q 560 810 543 792 q 601 829 576 829 m 568 510 q 578 535 568 525 q 603 544 589 544 q 628 535 618 544 q 638 510 638 525 l 638 35 q 628 10 638 21 q 603 0 618 0 q 578 10 589 0 q 568 35 568 21 l 568 510 z "},"ﬂ":{"ha":764,"x_min":29,"x_max":638,"o":"m 186 0 q 162 10 172 0 q 151 35 151 21 l 151 475 l 64 475 q 40 485 50 475 q 29 510 29 496 q 40 535 29 525 q 64 544 50 544 l 151 544 l 151 611 q 212 764 151 714 q 376 814 272 814 q 401 804 392 814 q 410 779 410 794 q 400 756 410 767 q 376 746 390 746 q 256 709 292 746 q 221 611 221 672 l 221 544 l 378 544 q 403 535 393 544 q 413 510 413 525 q 403 485 413 496 q 378 475 393 475 l 221 475 l 221 35 q 211 10 221 21 q 186 0 201 0 m 568 744 q 578 769 568 760 q 603 779 589 779 q 628 769 618 779 q 638 744 638 760 l 638 35 q 628 10 638 21 q 603 0 618 0 q 578 10 589 0 q 568 35 568 21 l 568 744 z "},"ª":{"ha":617,"x_min":106,"x_max":525,"o":"m 451 358 q 429 368 439 358 q 400 414 411 389 q 331 373 368 388 q 249 358 294 358 q 176 376 203 358 q 139 417 150 393 q 128 464 128 442 q 138 513 128 492 q 163 549 147 533 q 224 585 182 568 q 328 603 265 603 q 386 599 356 603 q 357 656 381 635 q 290 676 333 676 q 253 674 269 676 q 229 668 236 671 q 203 661 208 661 q 182 669 192 661 q 172 692 172 678 q 193 721 172 714 q 238 732 211 726 q 290 738 264 738 q 410 693 372 738 q 449 578 449 649 l 449 494 q 455 444 449 464 q 474 410 461 425 q 482 389 482 401 q 472 367 482 376 q 451 358 463 358 m 249 419 q 325 437 290 419 q 388 485 360 454 l 388 538 q 328 542 357 542 q 206 506 242 542 q 189 464 189 489 q 204 433 189 447 q 249 419 219 419 m 494 261 q 516 252 507 261 q 525 231 525 243 q 516 209 525 218 q 494 200 507 200 l 136 200 q 115 209 124 200 q 106 231 106 218 q 115 252 106 243 q 136 261 124 261 l 494 261 z "},"º":{"ha":608,"x_min":106,"x_max":513,"o":"m 304 738 q 403 711 361 738 q 469 642 446 685 q 492 546 492 599 q 441 413 492 467 q 304 360 390 360 q 167 413 218 360 q 115 546 115 467 q 138 642 115 599 q 203 711 161 685 q 304 738 246 738 m 304 676 q 210 638 244 676 q 176 546 176 599 q 212 456 176 492 q 304 421 247 421 q 396 456 361 421 q 431 546 431 492 q 397 638 431 599 q 304 676 363 676 m 482 261 q 503 252 494 261 q 513 231 513 243 q 503 209 513 218 q 482 200 494 200 l 136 200 q 115 209 124 200 q 106 231 106 218 q 115 252 106 243 q 136 261 124 261 l 482 261 z "},"π":{"ha":879,"x_min":92,"x_max":786,"o":"m 304 35 q 294 10 304 21 q 269 0 283 0 q 245 10 256 0 q 235 35 235 21 l 235 528 l 126 528 q 102 538 113 528 q 92 563 92 549 q 102 588 92 578 q 126 597 113 597 l 751 597 q 776 588 765 597 q 786 563 786 578 q 776 538 786 549 q 751 528 765 528 l 638 528 l 638 307 q 660 149 638 201 q 732 64 682 96 q 749 35 749 54 q 738 9 749 18 q 714 0 726 0 q 704 2 708 0 q 696 6 700 4 q 626 66 654 31 q 583 159 597 101 q 568 307 568 217 l 568 528 l 304 528 l 304 35 z "},"ಅ":{"ha":1074,"x_min":100,"x_max":981,"o":"m 981 360 q 935 181 981 263 q 790 49 890 99 q 522 0 689 0 q 288 48 382 0 q 147 175 194 96 q 100 346 100 254 q 130 500 100 431 q 208 612 160 569 q 311 654 256 654 q 429 608 388 654 q 471 499 471 563 q 426 392 471 433 q 314 351 382 351 q 169 413 238 351 q 166 380 168 397 q 164 346 164 363 q 206 203 164 268 q 328 101 249 139 q 522 64 408 64 q 747 103 660 64 q 876 209 835 142 q 917 360 917 276 q 896 477 917 429 q 842 550 875 525 q 774 575 810 575 q 703 545 726 575 q 679 476 679 515 q 708 391 679 431 q 782 310 736 351 q 796 283 796 296 q 786 261 796 271 q 764 251 776 251 l 469 251 q 447 261 457 251 q 438 283 438 271 q 447 306 438 296 q 469 315 457 315 l 688 315 q 634 394 653 356 q 615 476 615 433 q 656 590 615 540 q 774 639 697 639 q 868 610 821 639 q 948 521 915 582 q 981 360 981 460 m 314 415 q 380 438 353 415 q 407 499 407 460 q 381 564 407 538 q 311 590 356 590 q 241 560 272 590 q 190 483 210 531 q 249 434 218 453 q 314 415 279 415 z "},"ಆ":{"ha":1069,"x_min":100,"x_max":1000,"o":"m 881 217 q 863 144 881 182 q 806 73 846 106 q 700 20 767 40 q 535 0 633 0 q 291 48 388 0 q 147 175 194 96 q 100 346 100 254 q 130 500 100 431 q 208 612 160 569 q 311 654 256 654 q 429 608 388 654 q 471 499 471 563 q 426 392 471 433 q 314 351 382 351 q 169 413 238 351 q 166 380 168 397 q 164 346 164 363 q 207 203 164 268 q 333 101 250 139 q 535 64 415 64 q 745 111 674 64 q 817 217 817 158 q 799 279 817 247 q 672 267 744 267 l 514 267 q 492 276 501 267 q 482 299 482 286 q 492 321 482 311 q 514 331 501 331 l 672 331 q 715 332 694 331 q 753 336 735 333 q 709 400 726 368 q 692 478 692 432 q 733 589 692 544 q 842 633 775 633 q 957 588 914 633 q 1000 474 1000 542 q 968 376 1000 425 q 861 297 936 328 q 881 217 881 258 m 314 415 q 380 438 353 415 q 407 499 407 460 q 381 564 407 538 q 311 590 356 590 q 241 560 272 590 q 190 483 210 531 q 249 434 218 453 q 314 415 279 415 m 808 372 q 817 363 813 368 q 825 354 821 358 q 908 406 879 374 q 936 474 936 438 q 910 542 936 514 q 842 569 885 569 q 779 542 803 569 q 756 478 756 515 q 771 419 756 443 q 808 372 786 396 z "},"ಇ":{"ha":985,"x_min":90,"x_max":899,"o":"m 793 -64 q 774 -58 783 -64 q 763 -42 765 -51 q 731 34 749 -1 q 694 100 714 69 q 590 48 647 68 q 467 28 532 28 q 362 50 401 28 q 305 105 322 72 q 288 169 288 138 q 305 234 288 201 q 362 290 322 267 q 465 313 401 313 q 593 280 531 313 q 707 189 656 247 q 801 309 767 242 q 835 433 835 376 q 800 538 835 499 q 706 578 765 578 q 603 538 643 578 q 526 438 563 499 q 500 421 517 421 l 493 421 q 465 438 475 421 q 388 539 433 499 q 276 579 343 579 q 187 542 219 579 q 154 456 154 506 q 182 369 154 413 q 186 353 186 361 q 178 331 186 340 q 154 321 169 321 q 126 336 138 321 q 90 456 90 396 q 140 588 90 533 q 276 643 190 643 q 402 606 349 643 q 497 508 456 569 q 588 606 538 571 q 706 642 638 642 q 844 587 790 642 q 899 433 899 532 q 858 285 899 365 q 746 139 817 204 q 810 17 782 86 q 825 -32 825 -22 q 817 -53 825 -43 q 793 -64 808 -64 m 467 92 q 568 108 519 92 q 657 150 617 124 q 465 249 571 249 q 382 224 413 249 q 351 169 351 200 q 382 115 351 139 q 467 92 413 92 z "},"ಈ":{"ha":1351,"x_min":67,"x_max":1274,"o":"m 531 -6 q 370 29 440 -6 q 258 126 300 64 q 210 272 217 189 l 99 272 q 76 282 86 272 q 67 304 67 292 q 76 326 67 317 q 99 336 86 336 l 210 336 q 253 466 218 404 q 344 569 289 528 l 210 569 q 188 579 197 569 q 178 601 178 589 q 188 624 178 614 q 210 633 197 633 l 686 633 q 793 656 751 633 q 864 726 835 679 q 892 742 875 742 q 915 733 907 742 q 924 710 924 724 q 919 693 924 701 q 836 606 885 638 q 714 571 788 575 q 806 466 771 528 q 850 336 842 404 l 986 336 q 976 376 981 357 q 972 413 972 396 q 1019 543 972 499 q 1125 588 1065 588 q 1232 541 1190 588 q 1274 431 1274 494 q 1232 319 1274 367 q 1101 272 1190 272 l 1079 272 q 1085 258 1082 265 q 1094 240 1089 250 q 1134 146 1118 194 q 1150 33 1150 97 q 1140 11 1150 21 q 1118 1 1131 1 q 1096 11 1106 1 q 1086 33 1086 21 q 1072 134 1086 90 q 1038 213 1057 178 q 1023 242 1031 226 q 1008 272 1015 257 l 850 272 q 801 128 843 190 q 690 30 760 65 q 531 -6 621 -6 m 531 569 q 410 536 465 569 q 319 450 354 503 q 275 336 283 397 l 785 336 q 742 449 776 396 q 652 536 707 503 q 531 569 597 569 m 1036 413 q 1041 376 1036 396 q 1051 336 1046 356 l 1101 336 q 1182 363 1154 336 q 1210 431 1210 390 q 1187 495 1210 467 q 1125 524 1164 524 q 1061 493 1086 524 q 1036 413 1036 463 m 531 58 q 707 117 638 58 q 786 272 776 176 l 274 272 q 355 117 285 175 q 531 58 425 58 z "},"ಉ":{"ha":1461,"x_min":107,"x_max":1368,"o":"m 1368 243 q 1337 107 1368 161 q 1256 26 1306 53 q 1151 0 1206 0 q 1053 17 1096 0 q 982 64 1010 35 q 945 113 964 83 q 911 197 926 143 q 886 340 896 251 q 853 485 876 431 q 774 539 831 539 q 701 489 728 539 q 654 353 674 439 q 594 158 626 224 q 531 64 561 93 q 458 17 500 33 q 371 0 415 0 q 240 40 300 0 q 143 154 179 81 q 107 328 107 228 q 137 505 107 432 q 215 616 167 578 q 319 654 264 654 q 438 608 396 654 q 479 499 479 563 q 435 392 479 433 q 322 351 390 351 q 178 414 244 351 q 173 372 175 393 q 171 328 171 351 q 197 192 171 251 q 269 98 224 132 q 371 64 314 64 q 433 75 403 64 q 486 108 464 86 q 540 194 513 136 q 593 367 567 253 q 667 551 621 499 q 774 603 714 603 q 891 546 847 603 q 950 346 935 489 q 983 183 963 233 q 1026 108 1003 132 q 1080 76 1049 88 q 1151 64 1111 64 q 1258 110 1213 64 q 1304 243 1304 156 q 1264 420 1304 338 q 1163 565 1224 503 q 1154 588 1154 574 q 1163 610 1154 601 q 1186 619 1172 619 q 1210 610 1200 619 q 1324 444 1279 539 q 1368 243 1368 350 m 322 415 q 388 438 361 415 q 415 499 415 460 q 390 564 415 538 q 319 590 364 590 q 249 562 281 590 q 199 485 218 533 q 256 434 225 453 q 322 415 288 415 z "},"ಊ":{"ha":1881,"x_min":107,"x_max":1788,"o":"m 1788 232 q 1733 55 1788 115 q 1603 -6 1679 -6 q 1488 41 1529 -6 q 1447 147 1447 88 q 1492 267 1447 215 q 1632 318 1538 318 q 1717 307 1672 318 q 1657 449 1701 390 q 1555 539 1613 508 q 1442 569 1497 569 q 1351 543 1388 569 q 1295 478 1314 517 q 1276 400 1276 439 q 1294 283 1276 338 q 1311 174 1311 229 q 1266 48 1311 96 q 1138 0 1221 0 q 1048 17 1085 0 q 982 64 1011 35 q 945 113 964 83 q 911 197 926 143 q 886 340 896 251 q 853 485 876 431 q 774 539 831 539 q 701 489 728 539 q 654 353 674 439 q 594 158 626 224 q 531 64 561 93 q 458 17 500 33 q 371 0 415 0 q 240 40 300 0 q 143 154 179 81 q 107 328 107 228 q 137 505 107 432 q 215 616 167 578 q 319 654 264 654 q 438 608 396 654 q 479 499 479 563 q 435 392 479 433 q 322 351 390 351 q 178 414 244 351 q 173 372 175 393 q 171 328 171 351 q 197 192 171 251 q 269 98 224 132 q 371 64 314 64 q 433 75 403 64 q 486 108 464 86 q 540 194 513 136 q 593 367 567 253 q 667 551 621 499 q 774 603 714 603 q 891 546 847 603 q 950 346 935 489 q 983 183 963 233 q 1026 108 1003 132 q 1073 76 1047 88 q 1138 64 1099 64 q 1219 94 1190 64 q 1247 174 1247 125 q 1230 283 1247 229 q 1213 400 1213 338 q 1238 508 1213 454 q 1315 598 1264 563 q 1442 633 1367 633 q 1560 607 1499 633 q 1672 530 1621 581 q 1756 404 1724 479 q 1788 232 1788 329 m 322 415 q 388 438 361 415 q 415 499 415 460 q 390 564 415 538 q 319 590 364 590 q 249 562 281 590 q 199 485 218 533 q 256 434 225 453 q 322 415 288 415 m 1603 58 q 1691 107 1658 58 q 1724 232 1724 156 l 1724 239 q 1679 250 1703 246 q 1632 254 1656 254 q 1542 223 1572 254 q 1511 147 1511 192 q 1535 85 1511 113 q 1603 58 1560 58 z "},"ಋ":{"ha":1486,"x_min":107,"x_max":1393,"o":"m 772 0 q 644 23 704 0 q 519 97 583 46 q 421 23 479 51 q 289 -6 363 -6 q 179 16 219 -6 q 123 70 139 38 q 107 135 107 103 q 125 197 107 165 q 180 252 143 229 q 274 275 217 275 q 394 251 335 275 q 508 188 454 228 q 540 259 529 222 q 550 331 550 296 q 518 458 550 400 q 429 551 486 517 q 431 535 431 543 q 432 518 432 526 q 389 411 432 454 q 268 368 346 368 q 164 409 206 368 q 122 507 122 450 q 140 574 122 540 q 194 631 157 608 q 289 653 231 653 q 459 609 386 653 q 573 492 532 565 q 614 331 614 419 q 560 149 614 238 q 663 85 613 106 q 772 64 714 64 q 877 110 836 64 q 918 243 918 157 q 878 422 918 338 q 776 569 838 507 l 661 569 q 639 579 649 569 q 629 601 629 589 q 639 624 629 614 q 661 633 649 633 l 790 633 q 805 628 799 633 q 817 618 811 624 q 934 448 886 544 q 982 243 982 351 q 920 60 982 119 q 772 0 858 0 m 268 432 q 340 456 313 432 q 368 518 368 479 q 364 553 368 538 q 356 582 360 569 q 324 587 340 585 q 289 589 307 589 q 213 564 240 589 q 186 507 186 539 q 210 453 186 475 q 268 432 235 432 m 289 58 q 392 80 346 58 q 471 136 438 101 q 376 190 425 169 q 274 211 326 211 q 199 187 228 211 q 171 135 171 163 q 201 81 171 104 q 289 58 232 58 m 790 633 q 897 656 856 633 q 968 726 939 679 q 996 742 979 742 q 1019 733 1010 742 q 1028 710 1028 724 q 1024 693 1028 701 q 931 601 985 632 q 790 569 876 569 q 758 601 758 569 q 790 633 758 633 m 1171 64 q 1289 112 1249 64 q 1329 235 1329 160 q 1289 401 1329 314 q 1190 551 1249 488 q 1182 572 1182 560 q 1191 595 1182 586 q 1214 604 1200 604 q 1238 593 1229 604 q 1317 484 1282 544 q 1373 359 1353 424 q 1393 235 1393 294 q 1336 65 1393 131 q 1168 0 1279 0 q 1038 36 1104 0 q 915 157 972 72 l 935 246 q 1053 103 992 142 q 1171 64 1115 64 z "},"ೠ":{"ha":1906,"x_min":107,"x_max":1813,"o":"m 772 0 q 644 23 704 0 q 519 97 583 46 q 421 23 479 51 q 289 -6 363 -6 q 179 16 219 -6 q 123 70 139 38 q 107 135 107 103 q 125 197 107 165 q 180 252 143 229 q 274 275 217 275 q 394 251 335 275 q 508 188 454 228 q 540 259 529 222 q 550 331 550 296 q 518 458 550 400 q 429 551 486 517 q 431 535 431 543 q 432 518 432 526 q 389 411 432 454 q 268 368 346 368 q 164 409 206 368 q 122 507 122 450 q 140 574 122 540 q 194 631 157 608 q 289 653 231 653 q 459 609 386 653 q 573 492 532 565 q 614 331 614 419 q 560 149 614 238 q 663 85 613 106 q 772 64 714 64 q 877 110 836 64 q 918 243 918 157 q 878 422 918 338 q 776 569 838 507 l 661 569 q 639 579 649 569 q 629 601 629 589 q 639 624 629 614 q 661 633 649 633 l 790 633 q 805 628 799 633 q 817 618 811 624 q 934 448 886 544 q 982 243 982 351 q 920 60 982 119 q 772 0 858 0 m 268 432 q 340 456 313 432 q 368 518 368 479 q 364 553 368 538 q 356 582 360 569 q 324 587 340 585 q 289 589 307 589 q 213 564 240 589 q 186 507 186 539 q 210 453 186 475 q 268 432 235 432 m 289 58 q 392 80 346 58 q 471 136 438 101 q 376 190 425 169 q 274 211 326 211 q 199 187 228 211 q 171 135 171 163 q 201 81 171 104 q 289 58 232 58 m 790 633 q 897 656 856 633 q 968 726 939 679 q 996 742 979 742 q 1019 733 1010 742 q 1028 710 1028 724 q 1024 693 1028 701 q 931 601 985 632 q 790 569 876 569 q 758 601 758 569 q 790 633 758 633 m 1472 147 q 1517 267 1472 215 q 1657 318 1563 318 q 1742 307 1697 318 q 1682 449 1726 390 q 1580 539 1638 508 q 1467 569 1522 569 q 1376 543 1413 569 q 1320 478 1339 517 q 1301 400 1301 439 q 1319 283 1301 338 q 1336 174 1336 229 q 1293 48 1336 96 q 1164 0 1250 0 q 1042 38 1101 0 q 929 160 983 75 l 949 240 q 1164 64 1050 64 q 1246 94 1219 64 q 1272 174 1272 125 q 1255 283 1272 229 q 1238 400 1238 338 q 1263 508 1238 454 q 1340 598 1289 563 q 1467 633 1392 633 q 1585 607 1524 633 q 1697 530 1646 581 q 1781 404 1749 479 q 1813 232 1813 329 q 1758 55 1813 115 q 1628 -6 1704 -6 q 1513 41 1554 -6 q 1472 147 1472 88 m 1749 232 l 1749 239 q 1704 250 1728 246 q 1657 254 1681 254 q 1567 223 1597 254 q 1536 147 1536 192 q 1560 85 1536 113 q 1628 58 1585 58 q 1716 107 1683 58 q 1749 232 1749 156 z "},"ಌ":{"ha":1263,"x_min":96,"x_max":1169,"o":"m 821 0 q 672 19 725 0 q 593 64 619 38 q 551 156 551 106 q 574 230 551 196 q 661 303 596 264 q 729 345 700 326 q 775 381 758 364 q 800 417 790 396 q 810 469 810 439 q 780 544 810 511 q 699 578 750 578 q 595 538 639 578 q 515 438 551 499 q 488 421 506 421 l 481 421 q 453 438 463 421 q 378 539 421 499 q 276 579 335 579 q 190 544 221 579 q 160 464 160 508 q 167 415 160 438 q 188 368 175 392 q 192 353 192 363 q 183 331 192 342 q 160 321 174 321 q 132 338 140 321 q 106 398 115 367 q 96 464 96 429 q 117 551 96 511 q 178 617 138 592 q 276 643 218 643 q 392 606 340 643 q 485 508 443 569 q 581 606 528 571 q 699 642 633 642 q 793 617 754 642 q 853 553 832 593 q 874 469 874 514 q 858 392 874 425 q 819 336 843 358 q 692 247 779 296 q 633 203 651 224 q 615 156 615 183 q 622 130 615 142 q 639 107 629 118 q 701 78 656 92 q 821 64 746 64 q 959 83 907 64 q 1042 133 1011 103 q 1087 203 1068 161 q 1106 304 1106 244 q 1084 442 1106 369 q 1018 585 1063 514 q 1013 601 1013 592 q 1023 624 1013 615 q 1044 633 1033 633 q 1071 618 1063 633 q 1146 458 1122 539 q 1169 304 1169 378 q 1145 175 1169 228 q 1086 89 1121 122 q 988 26 1049 51 q 821 0 926 0 z "},"ೡ":{"ha":1703,"x_min":96,"x_max":1610,"o":"m 1269 147 q 1315 267 1269 215 q 1454 318 1360 318 q 1540 307 1496 318 q 1435 501 1519 433 q 1229 569 1350 569 l 1100 569 q 1153 433 1136 501 q 1169 304 1169 365 q 1145 175 1169 228 q 1086 89 1121 122 q 988 26 1049 51 q 821 0 926 0 q 672 19 725 0 q 593 64 619 38 q 551 156 551 106 q 574 230 551 196 q 661 303 596 264 q 729 345 700 326 q 775 381 758 364 q 800 417 790 396 q 810 469 810 439 q 780 544 810 511 q 699 578 750 578 q 595 538 639 578 q 515 438 551 499 q 488 421 506 421 l 481 421 q 453 438 463 421 q 378 539 421 499 q 276 579 335 579 q 190 544 221 579 q 160 464 160 508 q 167 415 160 438 q 188 368 175 392 q 192 353 192 363 q 183 331 192 342 q 160 321 174 321 q 132 338 140 321 q 106 398 115 367 q 96 464 96 429 q 117 551 96 511 q 178 617 138 592 q 276 643 218 643 q 392 606 340 643 q 485 508 443 569 q 581 606 528 571 q 699 642 633 642 q 793 617 754 642 q 853 553 832 593 q 874 469 874 514 q 858 392 874 425 q 819 336 843 358 q 692 247 779 296 q 633 203 651 224 q 615 156 615 183 q 622 130 615 142 q 639 107 629 118 q 701 78 656 92 q 821 64 746 64 q 959 83 907 64 q 1042 133 1011 103 q 1087 203 1068 161 q 1106 304 1106 244 q 1085 440 1106 369 q 1019 582 1064 511 q 1013 601 1013 593 q 1020 624 1013 615 q 1044 633 1028 633 l 1229 633 q 1426 587 1340 633 q 1560 451 1511 540 q 1610 232 1610 361 q 1556 55 1610 115 q 1425 -6 1501 -6 q 1310 41 1351 -6 q 1269 147 1269 88 m 1546 232 l 1546 239 q 1501 250 1525 246 q 1454 254 1478 254 q 1364 223 1394 254 q 1333 147 1333 192 q 1358 85 1333 113 q 1425 58 1382 58 q 1513 107 1481 58 q 1546 232 1546 156 z "},"ಎ":{"ha":1014,"x_min":97,"x_max":924,"o":"m 710 0 q 597 27 646 0 q 506 117 549 54 q 413 28 465 57 q 283 0 361 0 q 147 49 196 0 q 97 164 97 97 q 122 253 97 215 q 186 310 147 290 q 264 331 225 331 q 294 300 294 331 q 267 268 294 272 q 190 233 218 261 q 161 164 161 204 q 195 92 161 121 q 283 64 229 64 q 397 94 353 64 q 474 188 442 125 q 501 204 483 204 l 508 204 q 536 189 526 204 q 613 94 572 125 q 710 64 653 64 q 815 107 771 64 q 860 231 860 150 q 797 416 860 331 q 611 553 735 501 q 303 606 488 606 q 281 615 290 606 q 271 638 271 625 q 281 660 271 650 q 303 669 290 669 q 581 633 464 669 q 774 533 699 596 q 887 392 850 469 q 924 231 924 314 q 894 103 924 154 q 815 26 864 53 q 710 0 767 0 z "},"ಏ":{"ha":1014,"x_min":97,"x_max":924,"o":"m 710 0 q 597 27 646 0 q 506 117 549 54 q 413 28 465 57 q 283 0 361 0 q 147 49 196 0 q 97 164 97 97 q 122 252 97 215 q 185 310 146 289 q 264 331 224 331 q 286 322 278 331 q 294 300 294 313 q 267 268 294 272 q 190 233 218 261 q 161 164 161 204 q 195 92 161 121 q 283 64 229 64 q 397 94 353 64 q 474 188 442 125 q 501 204 483 204 l 508 204 q 536 189 526 204 q 613 94 572 125 q 710 64 653 64 q 815 107 771 64 q 860 231 860 150 q 827 378 860 307 q 726 504 794 449 q 549 589 657 560 q 476 484 522 521 q 363 447 431 447 q 221 507 275 447 q 167 657 167 567 q 176 679 167 669 q 199 689 186 689 q 221 679 211 689 q 231 657 231 669 q 267 553 231 596 q 363 511 303 511 q 446 543 415 511 q 494 626 476 575 q 529 658 506 658 q 544 656 532 658 q 578 647 556 654 q 769 551 692 615 q 885 405 846 488 q 924 233 924 322 q 894 103 924 156 q 815 26 864 51 q 710 0 767 0 z "},"ಐ":{"ha":1031,"x_min":97,"x_max":938,"o":"m 714 0 q 600 28 650 0 q 506 117 550 56 q 413 28 465 57 q 283 0 361 0 q 147 49 196 0 q 97 164 97 97 q 122 252 97 215 q 185 310 147 289 q 265 331 224 331 q 287 321 279 331 q 294 300 294 311 q 267 268 294 272 q 190 233 218 261 q 161 164 161 204 q 195 92 161 121 q 283 64 229 64 q 397 94 353 64 q 474 188 442 125 q 501 204 483 204 l 508 204 q 536 189 526 204 q 714 64 607 64 q 828 122 783 64 q 874 308 874 181 q 849 458 874 400 q 785 542 824 515 q 703 569 746 569 q 617 538 654 569 q 540 442 581 507 q 513 426 531 426 l 506 426 q 478 442 488 426 q 402 539 439 507 q 313 571 365 571 q 228 540 264 571 q 178 453 193 508 q 147 429 171 429 q 124 439 133 429 q 115 461 115 449 q 117 470 115 464 q 125 494 119 476 q 196 596 147 557 q 313 635 244 635 q 419 606 374 635 q 510 513 464 578 q 603 606 557 579 q 703 633 649 633 q 784 617 743 633 q 860 565 825 601 q 916 465 894 528 q 938 308 938 403 q 906 122 938 189 q 824 27 875 54 q 714 0 772 0 z "},"ಒ":{"ha":1031,"x_min":96,"x_max":949,"o":"m 757 0 q 629 31 683 0 q 531 121 575 61 q 431 28 483 57 q 308 0 378 0 q 168 53 215 0 q 121 174 121 106 q 153 280 121 231 q 243 376 186 329 q 317 449 293 417 q 340 515 340 481 q 316 569 340 547 q 254 590 292 590 q 198 576 224 590 q 151 538 172 561 q 128 526 143 526 q 106 535 117 526 q 96 558 96 544 q 104 579 96 571 q 173 635 136 615 q 254 654 210 654 q 365 613 325 654 q 404 515 404 572 q 378 426 404 469 q 282 326 351 382 q 212 255 239 292 q 185 174 185 218 q 217 96 185 128 q 308 64 249 64 q 414 94 369 64 q 499 189 458 124 q 526 204 508 204 l 533 204 q 560 189 550 204 q 643 97 597 129 q 757 64 689 64 q 851 99 817 64 q 885 181 885 133 q 871 249 885 218 q 832 301 857 279 q 822 325 822 311 q 831 349 822 340 q 854 357 840 357 q 876 349 868 357 q 929 276 910 318 q 949 181 949 233 q 898 54 949 108 q 757 0 847 0 z "},"ಓ":{"ha":1031,"x_min":96,"x_max":949,"o":"m 949 181 q 898 54 949 108 q 757 0 847 0 q 629 31 683 0 q 531 121 575 61 q 431 28 483 57 q 308 0 378 0 q 168 53 215 0 q 121 174 121 106 q 153 280 121 231 q 243 376 186 329 q 317 449 293 417 q 340 515 340 481 q 316 569 340 547 q 254 590 292 590 q 198 576 224 590 q 151 538 172 561 q 128 526 143 526 q 106 535 117 526 q 96 558 96 544 q 104 579 96 571 q 156 625 128 607 q 215 650 183 643 q 208 683 211 665 q 206 719 206 700 q 247 838 206 794 q 350 881 288 881 q 402 874 381 881 q 442 858 424 867 q 461 829 461 850 q 451 806 461 815 q 429 797 442 797 q 407 804 425 797 q 378 814 392 811 q 350 817 365 817 q 291 789 313 817 q 269 719 269 761 q 272 683 269 700 q 279 653 275 667 q 372 607 339 646 q 404 515 404 568 q 378 426 404 469 q 282 326 351 382 q 212 255 239 292 q 185 174 185 218 q 217 96 185 128 q 308 64 249 64 q 414 94 369 64 q 499 189 458 124 q 526 204 508 204 l 533 204 q 560 189 550 204 q 643 97 597 129 q 757 64 689 64 q 851 99 817 64 q 885 181 885 133 q 871 249 885 218 q 832 301 857 279 q 822 325 822 311 q 831 349 822 340 q 854 357 840 357 q 876 349 868 357 q 929 276 910 318 q 949 181 949 233 z "},"ಔ":{"ha":1042,"x_min":99,"x_max":951,"o":"m 760 0 q 632 31 686 0 q 533 121 578 61 q 433 28 486 57 q 311 0 381 0 q 171 53 218 0 q 124 174 124 106 q 156 280 124 231 q 246 376 189 329 q 319 449 296 417 q 343 515 343 481 q 319 569 343 547 q 257 590 294 590 q 201 576 226 590 q 154 538 175 561 q 131 526 146 526 q 109 535 119 526 q 99 558 99 544 q 107 579 99 571 q 144 614 122 599 q 123 624 132 615 q 114 646 114 633 q 124 668 114 658 q 146 678 133 678 l 251 678 q 388 724 342 678 q 438 847 433 769 l 139 847 q 117 857 126 847 q 107 879 107 867 q 117 901 107 892 q 139 911 126 911 l 624 911 q 812 878 740 911 q 916 788 883 844 q 949 661 949 731 q 897 501 949 556 q 775 446 846 446 q 662 489 701 446 q 622 586 622 532 q 642 665 622 628 q 702 726 663 703 q 801 750 742 750 q 864 746 833 750 q 778 820 838 793 q 624 847 718 847 l 501 847 q 461 707 499 764 q 350 628 424 650 q 407 515 407 588 q 381 426 407 469 q 285 326 354 382 q 215 255 242 292 q 188 174 188 218 q 219 96 188 128 q 311 64 251 64 q 417 94 372 64 q 501 189 461 124 q 529 204 511 204 l 536 204 q 563 189 553 204 q 646 97 600 129 q 760 64 692 64 q 853 99 819 64 q 888 181 888 133 q 874 249 888 218 q 835 301 860 279 q 825 325 825 311 q 834 349 825 340 q 857 357 843 357 q 879 349 871 357 q 932 276 913 318 q 951 181 951 233 q 901 54 951 108 q 760 0 850 0 m 775 510 q 855 552 825 510 q 885 661 885 594 l 885 678 q 844 685 865 683 q 801 686 822 686 q 717 656 747 686 q 686 586 686 626 q 710 533 686 556 q 775 510 735 510 z "},"ಕ":{"ha":956,"x_min":99,"x_max":904,"o":"m 488 -11 q 331 22 388 -11 q 249 104 274 54 q 225 204 225 154 q 292 354 225 292 l 131 354 q 108 364 118 354 q 99 386 99 374 q 108 408 99 399 q 131 418 118 418 l 457 418 l 457 569 l 136 569 q 114 579 124 569 q 104 601 104 589 q 114 624 104 614 q 136 633 124 633 l 667 633 q 689 624 679 633 q 699 601 699 614 q 689 579 699 589 q 667 569 679 569 l 521 569 l 521 418 l 843 418 q 865 408 856 418 q 875 386 875 399 q 865 364 875 374 q 843 354 856 354 l 685 354 q 753 204 753 293 q 729 105 753 154 q 648 22 706 56 q 488 -11 590 -11 m 488 53 q 604 75 560 53 q 669 132 649 97 q 689 204 689 167 q 649 300 689 256 q 531 354 608 344 l 454 354 q 336 307 383 349 q 289 204 289 265 q 309 131 289 165 q 373 75 329 97 q 488 53 417 53 m 667 633 q 774 656 732 633 q 844 726 815 679 q 872 742 856 742 q 895 733 886 742 q 904 710 904 724 q 900 693 904 701 q 807 601 861 632 q 667 569 753 569 q 635 601 635 569 q 667 633 635 633 z "},"ಖ":{"ha":1075,"x_min":107,"x_max":982,"o":"m 772 0 q 644 23 704 0 q 519 97 583 46 q 421 23 479 51 q 289 -6 363 -6 q 179 16 219 -6 q 123 70 139 38 q 107 135 107 103 q 125 197 107 165 q 180 252 143 229 q 274 275 217 275 q 394 251 335 275 q 508 188 454 228 q 540 259 529 222 q 550 331 550 296 q 518 458 550 400 q 429 551 486 517 q 431 535 431 543 q 432 518 432 526 q 389 411 432 454 q 268 368 346 368 q 164 409 206 368 q 122 507 122 450 q 140 574 122 540 q 194 631 157 608 q 289 653 231 653 q 459 609 386 653 q 573 492 532 565 q 614 331 614 419 q 560 149 614 238 q 663 85 613 106 q 772 64 714 64 q 877 110 836 64 q 918 243 918 157 q 874 429 918 342 q 767 579 831 517 q 757 601 757 589 q 767 624 757 615 q 789 633 776 633 q 811 624 801 633 q 933 453 885 551 q 982 243 982 354 q 920 60 982 119 q 772 0 858 0 m 268 432 q 340 456 313 432 q 368 518 368 479 q 364 553 368 538 q 356 582 360 569 q 324 587 340 585 q 289 589 307 589 q 213 564 240 589 q 186 507 186 539 q 210 453 186 475 q 268 432 235 432 m 289 58 q 392 80 346 58 q 471 136 438 101 q 376 190 425 169 q 274 211 326 211 q 199 187 228 211 q 171 135 171 163 q 201 81 171 104 q 289 58 232 58 z "},"ಗ":{"ha":901,"x_min":96,"x_max":867,"o":"m 697 0 q 676 10 686 0 q 667 32 667 19 q 675 57 667 40 q 704 140 693 94 q 715 244 715 185 q 692 365 715 304 q 620 479 669 425 q 493 569 571 533 l 429 569 q 306 480 353 533 q 238 365 260 426 q 217 244 217 304 q 228 138 217 185 q 261 47 239 90 q 265 32 265 42 q 256 10 265 21 q 233 0 247 0 q 206 17 214 0 q 167 121 181 65 q 153 244 153 176 q 189 415 153 328 q 308 569 225 503 l 128 569 q 106 579 115 569 q 96 601 96 589 q 106 624 96 614 q 128 633 115 633 l 629 633 q 651 624 642 633 q 661 601 661 614 q 651 579 661 589 q 629 569 642 569 l 615 569 q 740 415 701 501 q 779 244 779 328 q 765 123 779 176 q 728 18 751 69 q 697 0 719 0 m 629 633 q 736 656 694 633 q 807 726 778 679 q 835 742 818 742 q 858 733 849 742 q 867 710 867 724 q 863 693 867 701 q 769 601 824 632 q 629 569 715 569 q 597 601 597 569 q 629 633 597 633 z "},"ಘ":{"ha":1079,"x_min":111,"x_max":1072,"o":"m 372 489 q 377 528 372 508 q 393 569 382 549 l 147 569 q 125 579 135 569 q 115 601 115 589 q 125 624 115 614 q 147 633 135 633 l 751 633 q 858 656 817 633 q 929 726 900 679 q 957 742 940 742 q 981 733 972 742 q 989 710 989 724 q 985 693 989 701 q 892 601 946 632 q 751 569 838 569 l 672 569 q 688 530 683 550 q 692 490 692 510 q 651 387 692 432 q 532 342 611 342 q 414 388 456 342 q 372 489 372 433 m 628 490 q 621 530 628 510 q 594 569 614 550 l 472 569 q 444 530 453 551 q 436 489 436 508 q 463 431 436 456 q 532 406 489 406 q 603 431 578 406 q 628 490 628 456 m 532 122 q 431 28 483 58 q 308 -3 378 -3 q 161 48 211 -3 q 111 164 111 99 q 135 251 111 214 q 198 310 160 289 q 278 331 236 331 q 301 321 293 331 q 308 300 308 311 q 281 268 308 272 q 203 233 232 261 q 175 164 175 204 q 212 90 175 119 q 308 61 249 61 q 416 94 372 61 q 503 190 460 126 q 529 204 514 204 l 536 204 q 563 189 553 204 q 646 97 600 129 q 760 64 692 64 q 853 97 818 64 q 888 174 888 131 q 867 247 888 214 q 815 301 846 281 q 803 328 803 313 q 812 350 803 340 q 835 360 821 360 q 868 344 849 360 q 938 318 901 318 q 988 339 968 318 q 1008 386 1008 360 q 1004 422 1008 408 q 992 449 1000 435 q 988 464 988 457 q 997 488 988 479 q 1018 497 1006 497 q 1047 482 1039 497 q 1066 440 1060 460 q 1072 386 1072 421 q 1054 323 1072 353 q 1006 274 1036 293 q 938 254 976 254 l 935 254 q 951 174 951 217 q 929 90 951 129 q 864 25 907 50 q 760 0 821 0 q 631 31 685 0 q 532 122 576 63 m 565 -272 q 556 -294 565 -285 q 533 -304 546 -304 q 511 -294 521 -304 q 501 -272 501 -285 l 501 -129 q 511 -107 501 -117 q 533 -97 521 -97 q 556 -107 546 -97 q 565 -129 565 -117 l 565 -272 z "},"ಙ":{"ha":1031,"x_min":96,"x_max":949,"o":"m 949 182 q 898 56 949 110 q 757 1 847 1 q 629 32 683 1 q 531 122 575 63 q 431 30 483 58 q 308 1 378 1 q 168 54 215 1 q 121 175 121 107 q 153 281 121 232 q 243 378 186 331 q 317 450 293 418 q 340 517 340 482 q 316 570 340 549 q 254 592 292 592 q 198 577 224 592 q 151 539 172 563 q 128 528 143 528 q 106 537 117 528 q 96 560 96 546 q 104 581 96 572 q 173 636 136 617 q 254 656 210 656 q 333 638 300 656 q 383 592 365 619 q 491 697 431 667 q 615 728 551 728 q 760 691 693 728 q 886 564 826 654 q 892 546 892 557 q 882 523 892 532 q 860 514 872 514 q 833 528 843 514 q 732 633 785 601 q 615 664 679 664 q 491 619 549 664 q 397 469 433 574 q 360 403 388 438 q 282 328 333 368 q 212 256 239 293 q 185 175 185 219 q 217 97 185 129 q 308 65 249 65 q 414 95 369 65 q 499 190 458 125 q 526 206 508 206 l 533 206 q 560 190 550 206 q 643 98 597 131 q 757 65 689 65 q 851 100 817 65 q 885 182 885 135 q 871 250 885 219 q 832 303 857 281 q 822 326 822 313 q 831 350 822 342 q 854 358 840 358 q 876 350 868 358 q 929 277 910 319 q 949 182 949 235 m 594 506 q 647 482 626 506 q 667 435 667 458 q 647 385 667 407 q 594 364 626 364 q 545 385 567 364 q 524 436 524 406 q 544 483 524 460 q 594 506 565 506 z "},"ಚ":{"ha":1083,"x_min":96,"x_max":1050,"o":"m 757 0 q 629 31 683 0 q 531 121 575 61 q 431 28 483 57 q 308 0 378 0 q 168 53 215 0 q 121 174 121 106 q 153 280 121 231 q 243 376 186 329 q 317 449 293 417 q 340 515 340 481 q 316 569 340 547 q 254 590 292 590 q 198 576 224 590 q 151 538 172 561 q 128 526 143 526 q 106 535 117 526 q 96 558 96 544 q 104 579 96 571 q 173 635 136 615 q 254 654 210 654 q 365 613 325 654 q 404 515 404 572 q 378 426 404 469 q 282 326 351 382 q 212 255 239 292 q 185 174 185 218 q 217 96 185 128 q 308 64 249 64 q 414 94 369 64 q 499 189 458 124 q 526 204 508 204 l 533 204 q 560 189 550 204 q 643 97 597 129 q 757 64 689 64 q 851 101 817 64 q 885 185 885 138 q 861 277 885 231 q 785 365 838 324 l 608 365 q 586 375 596 365 q 576 397 576 385 q 586 419 576 410 q 608 429 596 429 l 788 429 l 788 569 l 611 569 q 589 579 599 569 q 579 601 579 589 q 589 624 579 614 q 611 633 599 633 l 829 633 q 851 624 842 633 q 861 601 861 614 q 851 579 861 589 l 851 429 l 993 429 q 1015 419 1006 429 q 1025 397 1025 410 q 1015 375 1025 385 q 993 365 1006 365 l 876 365 q 933 275 917 321 q 949 185 949 229 q 926 94 949 136 q 860 26 903 51 q 757 0 818 0 m 813 633 q 919 656 878 633 q 990 726 961 679 q 1018 742 1001 742 q 1041 733 1032 742 q 1050 710 1050 724 q 1046 693 1050 701 q 953 601 1007 632 q 813 569 899 569 q 781 601 781 569 q 813 633 781 633 z "},"ಛ":{"ha":1067,"x_min":113,"x_max":1035,"o":"m 363 0 q 233 40 289 1 q 144 150 176 79 q 113 313 113 221 q 144 490 113 414 q 226 610 175 567 q 333 654 276 654 q 440 613 400 654 q 479 506 479 571 q 434 400 479 440 q 325 360 389 360 q 252 376 286 360 q 189 424 218 393 q 176 313 176 372 q 199 188 176 244 q 263 99 221 132 q 363 64 304 65 q 463 96 424 64 q 532 188 501 128 q 560 204 542 204 l 567 204 q 594 188 585 204 q 672 96 629 128 q 774 64 715 64 q 881 116 839 64 q 922 249 922 168 q 881 420 922 339 q 746 569 840 501 l 653 569 q 631 579 640 569 q 621 601 621 589 q 631 624 621 614 q 653 633 640 633 l 797 633 q 819 624 810 633 q 829 601 829 614 q 825 588 829 594 q 949 428 911 513 q 986 249 986 343 q 958 117 986 172 q 881 31 929 61 q 774 0 832 0 q 564 117 647 0 q 478 28 525 57 q 363 0 431 0 m 325 424 q 388 445 361 424 q 415 506 415 467 q 392 567 415 543 q 333 590 369 590 q 263 564 293 590 q 214 494 233 538 q 264 443 238 463 q 325 424 290 424 m 596 -272 q 586 -294 596 -285 q 564 -304 576 -304 q 542 -294 551 -304 q 532 -272 532 -285 l 532 -129 q 542 -107 532 -117 q 564 -97 551 -97 q 586 -107 576 -97 q 596 -129 596 -117 l 596 -272 m 797 633 q 904 656 863 633 q 975 726 946 679 q 1003 742 986 742 q 1026 733 1017 742 q 1035 710 1035 724 q 1031 693 1035 701 q 938 601 992 632 q 797 569 883 569 q 765 601 765 569 q 797 633 765 633 z "},"ಜ":{"ha":1031,"x_min":96,"x_max":949,"o":"m 949 181 q 898 54 949 108 q 757 0 847 0 q 629 31 683 0 q 531 121 575 61 q 431 28 483 57 q 308 0 378 0 q 168 53 215 0 q 121 174 121 106 q 153 280 121 231 q 243 376 186 329 q 317 449 293 417 q 340 515 340 481 q 316 569 340 547 q 254 590 292 590 q 198 576 224 590 q 151 538 172 561 q 128 526 143 526 q 106 535 117 526 q 96 558 96 544 q 104 579 96 571 q 173 635 136 615 q 254 654 210 654 q 321 642 292 654 q 368 610 350 629 l 385 593 q 513 481 450 522 q 654 440 576 440 q 736 469 707 440 q 765 538 765 497 q 759 575 765 561 q 753 600 753 589 q 761 623 753 613 q 783 633 769 633 q 815 613 806 633 q 829 538 829 574 q 785 425 829 474 q 654 376 742 376 q 522 405 582 376 q 401 486 461 433 q 367 410 396 449 q 282 326 339 372 q 212 255 239 292 q 185 174 185 218 q 217 96 185 128 q 308 64 249 64 q 414 94 369 64 q 499 189 458 124 q 526 204 508 204 l 533 204 q 560 189 550 204 q 643 97 597 129 q 757 64 689 64 q 851 99 817 64 q 885 181 885 133 q 871 249 885 218 q 832 301 857 279 q 822 325 822 311 q 831 349 822 340 q 854 357 840 357 q 876 349 868 357 q 929 276 910 318 q 949 181 949 233 z "},"ಝ":{"ha":1729,"x_min":99,"x_max":1636,"o":"m 461 -6 q 290 35 361 -6 q 179 148 218 76 q 140 310 140 219 q 176 456 140 388 q 275 569 213 525 l 131 569 q 108 579 118 569 q 99 601 99 589 q 108 624 99 614 q 131 633 118 633 l 628 633 q 735 656 693 633 q 806 726 776 679 q 833 742 817 742 q 856 733 847 742 q 865 710 865 724 q 861 693 865 701 q 776 605 825 636 q 651 569 726 574 q 746 456 711 525 q 781 310 781 386 q 767 208 781 256 q 875 95 819 126 q 981 64 931 64 q 1099 112 1058 64 q 1139 235 1139 160 q 1099 401 1139 314 q 1000 551 1058 488 q 992 572 992 560 q 1001 595 992 586 q 1024 604 1010 604 q 1047 593 1039 604 q 1127 484 1092 544 q 1183 359 1163 424 q 1203 235 1203 294 q 1201 206 1203 219 q 1309 94 1254 125 q 1414 64 1364 64 q 1532 112 1492 64 q 1572 235 1572 160 q 1532 401 1572 314 q 1433 551 1492 488 q 1425 572 1425 560 q 1434 595 1425 586 q 1457 604 1443 604 q 1481 593 1472 604 q 1560 484 1525 544 q 1616 359 1596 424 q 1636 235 1636 294 q 1579 65 1636 131 q 1411 0 1522 0 q 1294 28 1353 0 q 1182 124 1235 57 q 1107 33 1158 67 q 978 0 1056 0 q 854 32 917 0 q 738 139 792 64 q 628 34 699 74 q 461 -6 558 -6 m 204 310 q 235 181 204 238 q 324 91 267 124 q 461 58 382 58 q 599 92 542 58 q 686 182 656 125 q 717 310 717 239 q 684 437 717 378 q 594 533 651 496 q 464 569 538 569 q 329 533 388 569 q 238 438 271 497 q 204 310 204 379 m 1200 -272 q 1190 -294 1200 -285 q 1168 -304 1181 -304 q 1146 -294 1156 -304 q 1136 -272 1136 -285 l 1136 -129 q 1146 -107 1136 -117 q 1168 -97 1156 -97 q 1190 -107 1181 -97 q 1200 -129 1200 -117 l 1200 -272 z "},"ಞ":{"ha":1281,"x_min":90,"x_max":1201,"o":"m 793 -64 q 774 -58 783 -64 q 763 -42 765 -51 q 731 34 749 -1 q 694 100 714 69 q 590 48 647 68 q 467 28 532 28 q 362 50 401 28 q 305 105 322 72 q 288 169 288 138 q 305 234 288 201 q 362 290 322 267 q 465 313 401 313 q 593 280 531 313 q 707 189 656 247 q 801 309 767 242 q 835 433 835 376 q 800 538 835 499 q 706 578 765 578 q 603 538 643 578 q 528 438 564 499 q 500 421 518 421 l 493 421 q 465 438 475 421 q 388 539 433 499 q 276 579 343 579 q 187 542 219 579 q 154 456 154 506 q 182 369 154 413 q 186 353 186 361 q 178 331 186 340 q 154 321 169 321 q 126 336 138 321 q 90 456 90 396 q 140 588 90 533 q 276 643 190 643 q 402 606 349 643 q 497 508 456 569 q 588 606 538 571 q 706 642 638 642 q 808 616 763 642 q 876 542 853 590 q 951 608 910 582 q 1044 633 993 633 q 1137 609 1103 633 q 1186 549 1171 585 q 1201 481 1201 514 q 1190 407 1201 443 q 1161 335 1178 371 q 1132 317 1153 317 q 1110 326 1121 317 q 1100 349 1100 336 q 1104 365 1100 356 q 1128 422 1118 393 q 1138 481 1138 450 q 1117 540 1138 510 q 1044 569 1096 569 q 960 536 996 569 q 897 458 924 503 q 899 447 899 453 q 899 433 899 440 q 858 285 899 365 q 746 139 817 204 q 810 17 782 86 q 825 -32 825 -22 q 817 -53 825 -43 q 793 -64 808 -64 m 467 92 q 568 108 519 92 q 657 150 617 124 q 465 249 571 249 q 382 224 413 249 q 351 169 351 200 q 382 115 351 139 q 467 92 413 92 z "},"ಟ":{"ha":1060,"x_min":110,"x_max":961,"o":"m 961 190 q 910 52 961 104 q 768 0 860 0 q 640 31 694 0 q 544 117 586 61 q 454 31 507 61 q 331 0 401 0 q 218 30 268 0 q 139 114 168 60 q 110 242 110 168 q 140 376 110 315 q 218 468 171 436 q 183 521 192 492 q 174 576 174 550 q 194 640 174 610 q 248 690 215 671 q 317 710 281 710 q 338 701 329 710 q 346 681 346 693 q 339 660 346 669 q 321 647 332 650 q 260 619 282 639 q 238 574 238 599 q 250 530 238 551 q 301 497 263 508 l 310 497 q 420 457 378 497 q 463 356 463 417 q 423 253 463 293 q 313 214 383 214 q 241 227 276 214 q 175 268 206 240 q 174 256 174 263 q 174 242 174 249 q 217 113 174 163 q 331 64 261 64 q 439 97 396 64 q 510 186 482 131 q 539 204 519 204 l 546 204 q 574 189 564 204 q 655 98 608 132 q 768 64 701 64 q 863 99 829 64 q 897 190 897 133 q 887 249 897 222 q 853 300 876 276 q 794 338 832 319 q 725 356 757 356 q 703 365 713 356 q 693 388 693 375 q 703 410 693 400 q 725 419 713 419 l 728 419 q 731 420 731 419 q 733 421 732 421 q 830 462 803 432 q 857 531 857 492 q 828 596 857 568 q 754 646 800 624 q 736 676 736 656 q 746 697 736 688 q 769 707 756 707 q 788 701 775 707 q 921 531 921 638 q 904 451 921 490 q 838 386 888 413 q 897 344 878 367 q 947 274 932 310 q 961 190 961 238 m 313 278 q 376 299 353 278 q 399 356 399 321 q 372 413 399 392 q 310 433 346 433 q 241 408 271 433 q 194 343 211 382 q 249 294 217 310 q 313 278 281 278 z "},"ಠ":{"ha":914,"x_min":110,"x_max":892,"o":"m 481 -14 q 299 29 375 -14 q 181 146 222 72 q 140 310 140 219 q 177 456 140 388 q 278 569 214 525 l 142 569 q 119 579 129 569 q 110 601 110 589 q 119 624 110 614 q 142 633 129 633 l 654 633 q 761 656 719 633 q 832 726 803 679 q 860 742 843 742 q 883 733 874 742 q 892 710 892 724 q 888 693 892 701 q 804 606 853 636 q 682 571 756 575 q 785 458 746 526 q 824 310 824 390 q 785 147 824 221 q 669 30 746 74 q 481 -14 593 -14 m 204 310 q 238 178 204 238 q 333 85 271 119 q 481 50 396 50 q 634 85 572 50 q 728 180 696 121 q 760 310 760 239 q 725 435 760 375 q 627 532 690 494 q 479 569 564 569 q 342 533 404 569 q 242 438 279 497 q 204 310 204 379 m 479 388 q 531 364 511 388 q 551 317 551 340 q 531 267 551 289 q 479 246 511 246 q 430 267 451 246 q 408 318 408 288 q 429 365 408 342 q 479 388 450 388 z "},"ಡ":{"ha":1049,"x_min":115,"x_max":974,"o":"m 524 117 q 438 28 485 57 q 324 0 390 0 q 222 26 269 0 q 144 103 174 53 q 115 228 115 154 q 163 410 115 318 q 299 569 210 501 l 150 569 q 128 579 138 569 q 118 601 118 589 q 128 624 118 614 q 150 633 138 633 l 733 633 q 756 624 746 633 q 765 601 765 614 q 756 579 765 589 q 885 456 838 518 q 953 335 933 393 q 974 233 974 278 q 912 64 974 128 q 740 0 850 0 q 626 28 683 0 q 524 117 568 57 m 904 282 q 841 233 878 251 q 760 215 804 215 q 653 259 693 215 q 613 358 613 303 q 642 451 613 407 q 736 513 672 496 q 698 542 718 528 q 654 569 678 556 l 422 569 q 290 478 344 533 q 208 358 236 422 q 179 228 179 293 q 222 108 179 151 q 324 64 264 64 q 422 96 382 64 q 492 188 461 128 q 519 204 501 204 l 526 204 q 554 188 544 204 q 638 94 588 124 q 740 64 689 64 q 865 110 821 64 q 910 233 910 157 q 908 257 910 244 q 904 282 907 269 m 878 350 q 843 406 865 375 q 796 461 821 438 l 790 461 q 705 430 736 461 q 674 358 674 399 q 698 302 674 326 q 760 278 722 278 q 831 297 799 278 q 878 350 863 315 m 733 633 q 840 656 799 633 q 911 726 882 679 q 939 742 922 742 q 962 733 953 742 q 971 710 971 724 q 967 693 971 701 q 874 601 928 632 q 733 569 819 569 q 701 601 701 569 q 733 633 701 633 z "},"ಢ":{"ha":1049,"x_min":115,"x_max":974,"o":"m 524 117 q 438 28 485 57 q 324 0 390 0 q 222 26 269 0 q 144 103 174 53 q 115 228 115 154 q 163 410 115 318 q 299 569 210 501 l 150 569 q 128 579 138 569 q 118 601 118 589 q 128 624 118 614 q 150 633 138 633 l 733 633 q 756 624 746 633 q 765 601 765 614 q 756 579 765 589 q 885 456 838 518 q 953 335 933 393 q 974 233 974 278 q 912 64 974 128 q 740 0 850 0 q 626 28 683 0 q 524 117 568 57 m 904 282 q 841 233 878 251 q 760 215 804 215 q 653 259 693 215 q 613 358 613 303 q 642 451 613 407 q 736 513 672 496 q 698 542 718 528 q 654 569 678 556 l 422 569 q 290 478 344 533 q 208 358 236 422 q 179 228 179 293 q 222 108 179 151 q 324 64 264 64 q 422 96 382 64 q 492 188 461 128 q 519 204 501 204 l 526 204 q 554 188 544 204 q 638 94 588 124 q 740 64 689 64 q 865 110 821 64 q 910 233 910 157 q 908 257 910 244 q 904 282 907 269 m 878 350 q 843 406 865 375 q 796 461 821 438 l 790 461 q 705 430 736 461 q 674 358 674 399 q 698 302 674 326 q 760 278 722 278 q 831 297 799 278 q 878 350 863 315 m 733 633 q 840 656 799 633 q 911 726 882 679 q 939 742 922 742 q 962 733 953 742 q 971 710 971 724 q 967 693 971 701 q 874 601 928 632 q 733 569 819 569 q 701 601 701 569 q 733 633 701 633 m 549 -272 q 539 -294 549 -285 q 517 -304 529 -304 q 494 -294 504 -304 q 485 -272 485 -285 l 485 -129 q 494 -107 485 -117 q 517 -97 504 -97 q 539 -107 529 -97 q 549 -129 549 -117 l 549 -272 z "},"ಣ":{"ha":1082,"x_min":110,"x_max":983,"o":"m 767 -7 q 651 37 699 -7 q 604 149 604 81 q 624 226 604 189 q 681 285 643 263 q 774 308 719 308 q 853 294 818 308 q 918 257 889 281 q 919 285 919 271 q 919 314 919 299 q 876 513 919 446 q 756 581 832 581 q 651 542 697 581 q 572 443 604 504 q 544 426 563 426 l 539 426 q 510 444 519 426 q 434 543 481 506 q 319 581 388 581 q 225 547 260 581 q 190 467 190 513 q 233 380 190 415 q 342 344 275 344 l 356 344 q 378 335 368 344 q 388 313 388 325 q 378 290 388 300 q 356 281 368 281 l 315 281 q 249 268 282 281 q 195 231 217 256 q 174 172 174 207 q 215 92 174 119 q 319 65 256 65 q 388 72 357 65 q 405 76 397 75 q 417 78 413 78 q 440 68 431 78 q 449 46 449 58 q 425 15 449 22 q 379 6 406 10 q 319 1 353 1 q 164 49 218 1 q 110 172 110 96 q 137 258 110 221 q 207 318 164 296 q 147 384 168 344 q 126 467 126 424 q 149 553 126 513 q 214 619 171 594 q 319 644 257 644 q 449 611 393 644 q 543 517 504 578 q 638 611 583 578 q 756 644 692 644 q 871 612 819 644 q 953 507 922 579 q 983 314 983 435 q 955 115 983 185 q 878 19 926 46 q 767 -7 829 -7 m 767 57 q 854 87 819 57 q 906 181 889 117 q 849 226 881 208 q 774 244 818 244 q 697 215 725 244 q 668 149 668 186 q 697 83 668 108 q 767 57 726 57 z "},"ತ":{"ha":893,"x_min":107,"x_max":846,"o":"m 475 -12 q 296 7 378 -12 q 161 53 214 26 q 143 79 143 63 q 153 103 143 93 q 174 113 163 113 q 189 108 183 113 q 312 68 238 85 q 475 51 386 51 q 674 101 600 51 q 749 226 749 150 q 656 367 749 317 q 588 253 643 301 q 433 204 532 204 q 331 224 369 204 q 276 274 293 243 q 260 335 260 304 q 279 398 260 367 q 344 450 299 429 q 468 471 390 471 q 592 458 538 471 q 583 514 589 486 q 564 569 576 542 l 139 569 q 117 579 126 569 q 107 601 107 589 q 117 624 107 614 q 139 633 126 633 l 608 633 q 631 624 621 633 q 640 601 640 614 q 629 578 640 589 q 649 508 643 543 q 657 439 656 472 q 776 348 739 406 q 813 226 813 290 q 776 108 813 163 q 664 21 739 54 q 475 -12 589 -12 m 435 268 q 547 304 504 268 q 594 392 590 340 q 468 407 538 407 q 365 387 406 407 q 324 335 324 367 q 356 286 324 304 q 435 268 388 268 m 608 633 q 715 656 674 633 q 786 726 757 679 q 814 742 797 742 q 837 733 828 742 q 846 710 846 724 q 842 693 846 701 q 749 601 803 632 q 608 569 694 569 q 576 601 576 569 q 608 633 576 633 z "},"ಥ":{"ha":1022,"x_min":115,"x_max":951,"o":"m 721 0 q 604 28 651 0 q 518 115 557 56 q 433 28 481 57 q 321 0 386 0 q 174 60 232 0 q 115 233 115 119 q 172 413 115 324 q 321 569 228 503 l 154 569 q 132 579 142 569 q 122 601 122 589 q 132 624 122 614 q 154 633 142 633 l 714 633 q 736 624 726 633 q 746 601 746 614 q 736 579 746 589 q 714 569 726 569 q 870 413 813 503 q 928 233 928 324 q 867 60 928 119 q 721 0 807 0 m 721 64 q 824 110 785 64 q 864 233 864 156 q 827 362 864 299 q 728 479 790 425 q 585 569 665 533 l 449 569 q 310 480 371 533 q 214 363 249 426 q 179 233 179 299 q 218 110 179 156 q 321 64 257 64 q 417 96 379 64 q 486 188 456 128 q 514 204 494 204 l 521 204 q 549 188 539 204 q 620 94 582 125 q 721 64 658 64 m 714 633 q 821 656 779 633 q 892 726 863 679 q 919 742 903 742 q 942 733 933 742 q 951 710 951 724 q 947 693 951 701 q 854 601 908 632 q 714 569 800 569 q 682 601 682 569 q 714 633 682 633 m 550 -272 q 540 -294 550 -285 q 518 -304 531 -304 q 496 -294 506 -304 q 486 -272 486 -285 l 486 -129 q 496 -107 486 -117 q 518 -97 506 -97 q 540 -107 531 -97 q 550 -129 550 -117 l 550 -272 m 519 443 q 572 419 551 443 q 592 372 592 396 q 572 323 592 344 q 519 301 551 301 q 470 322 492 301 q 449 374 449 343 q 469 420 449 397 q 519 443 490 443 z "},"ದ":{"ha":1022,"x_min":115,"x_max":951,"o":"m 721 0 q 604 28 651 0 q 518 115 557 56 q 433 28 481 57 q 321 0 386 0 q 174 60 232 0 q 115 233 115 119 q 172 413 115 324 q 321 569 228 503 l 154 569 q 132 579 142 569 q 122 601 122 589 q 132 624 122 614 q 154 633 142 633 l 714 633 q 736 624 726 633 q 746 601 746 614 q 736 579 746 589 q 714 569 726 569 q 870 413 813 503 q 928 233 928 324 q 867 60 928 119 q 721 0 807 0 m 721 64 q 824 110 785 64 q 864 233 864 156 q 827 362 864 299 q 728 479 790 425 q 585 569 665 533 l 449 569 q 310 480 371 533 q 214 363 249 426 q 179 233 179 299 q 218 110 179 156 q 321 64 257 64 q 417 96 379 64 q 486 188 456 128 q 514 204 494 204 l 521 204 q 549 188 539 204 q 620 94 582 125 q 721 64 658 64 m 714 633 q 821 656 779 633 q 892 726 863 679 q 919 742 903 742 q 942 733 933 742 q 951 710 951 724 q 947 693 951 701 q 854 601 908 632 q 714 569 800 569 q 682 601 682 569 q 714 633 682 633 z "},"ಧ":{"ha":1022,"x_min":115,"x_max":951,"o":"m 721 0 q 604 28 651 0 q 518 115 557 56 q 433 28 481 57 q 321 0 386 0 q 174 60 232 0 q 115 233 115 119 q 172 413 115 324 q 321 569 228 503 l 154 569 q 132 579 142 569 q 122 601 122 589 q 132 624 122 614 q 154 633 142 633 l 714 633 q 736 624 726 633 q 746 601 746 614 q 736 579 746 589 q 714 569 726 569 q 870 413 813 503 q 928 233 928 324 q 867 60 928 119 q 721 0 807 0 m 721 64 q 824 110 785 64 q 864 233 864 156 q 827 362 864 299 q 728 479 790 425 q 585 569 665 533 l 449 569 q 310 480 371 533 q 214 363 249 426 q 179 233 179 299 q 218 110 179 156 q 321 64 257 64 q 417 96 379 64 q 486 188 456 128 q 514 204 494 204 l 521 204 q 549 188 539 204 q 620 94 582 125 q 721 64 658 64 m 714 633 q 821 656 779 633 q 892 726 863 679 q 919 742 903 742 q 942 733 933 742 q 951 710 951 724 q 947 693 951 701 q 854 601 908 632 q 714 569 800 569 q 682 601 682 569 q 714 633 682 633 m 550 -272 q 540 -294 550 -285 q 518 -304 531 -304 q 496 -294 506 -304 q 486 -272 486 -285 l 486 -129 q 496 -107 486 -117 q 518 -97 506 -97 q 540 -107 531 -97 q 550 -129 550 -117 l 550 -272 z "},"ನ":{"ha":889,"x_min":115,"x_max":839,"o":"m 192 18 q 182 -4 192 6 q 160 -14 172 -14 q 138 -4 147 -14 q 128 18 128 6 q 145 174 128 108 q 194 269 163 239 q 242 303 214 289 q 306 317 269 317 q 402 288 353 317 q 497 186 451 260 q 560 99 529 133 q 643 64 590 64 q 727 106 689 64 q 765 233 765 149 q 735 358 765 297 q 651 474 704 419 q 531 569 597 528 l 147 569 q 125 579 135 569 q 115 601 115 589 q 125 624 115 614 q 147 633 135 633 l 611 633 q 633 624 624 633 q 643 601 643 614 q 631 578 643 588 q 775 416 721 506 q 829 233 829 326 q 800 97 829 149 q 728 23 771 46 q 643 0 685 0 q 530 40 574 0 q 442 153 486 79 q 376 229 411 206 q 306 253 340 253 q 267 244 283 253 q 239 225 250 236 q 202 144 213 199 q 192 18 192 89 m 601 633 q 708 656 667 633 q 779 726 750 679 q 807 742 790 742 q 830 733 821 742 q 839 710 839 724 q 835 693 839 701 q 742 601 796 632 q 601 569 688 569 q 569 601 569 569 q 601 633 569 633 z "},"ಪ":{"ha":1007,"x_min":111,"x_max":961,"o":"m 532 342 q 414 388 456 342 q 372 489 372 433 q 377 528 372 508 q 393 569 382 549 l 147 569 q 125 579 135 569 q 115 601 115 589 q 125 624 115 614 q 147 633 135 633 l 724 633 q 746 624 736 633 q 756 601 756 614 q 746 579 756 589 q 724 569 736 569 l 672 569 q 688 530 683 550 q 692 490 692 510 q 651 387 692 432 q 532 342 611 342 m 532 406 q 603 431 578 406 q 628 490 628 456 q 621 530 628 510 q 594 569 614 550 l 472 569 q 444 530 453 551 q 436 489 436 508 q 463 431 436 456 q 532 406 489 406 m 760 0 q 631 31 685 0 q 532 122 576 63 q 431 28 483 58 q 308 -3 378 -3 q 161 48 211 -3 q 111 164 111 99 q 135 250 111 213 q 196 309 158 288 q 276 331 233 331 q 308 300 308 331 q 281 268 308 272 q 203 233 232 261 q 175 164 175 204 q 212 90 175 119 q 308 61 249 61 q 416 94 372 61 q 503 190 460 126 q 529 204 513 204 l 536 204 q 563 189 554 204 q 647 97 601 129 q 760 64 692 64 q 854 101 821 64 q 888 196 888 139 q 880 258 888 228 q 864 306 872 288 q 857 328 857 321 q 865 350 857 340 q 889 360 874 360 q 918 342 910 360 q 942 274 932 311 q 951 196 951 236 q 901 55 951 110 q 760 0 850 0 m 724 633 q 831 656 789 633 q 901 726 872 679 q 929 742 913 742 q 952 733 943 742 q 961 710 961 724 q 957 693 961 701 q 864 601 918 632 q 724 569 810 569 q 692 601 692 569 q 724 633 692 633 z "},"ಫ":{"ha":1007,"x_min":111,"x_max":961,"o":"m 532 342 q 414 388 456 342 q 372 489 372 433 q 377 528 372 508 q 393 569 382 549 l 147 569 q 125 579 135 569 q 115 601 115 589 q 125 624 115 614 q 147 633 135 633 l 724 633 q 746 624 736 633 q 756 601 756 614 q 746 579 756 589 q 724 569 736 569 l 672 569 q 688 530 683 550 q 692 490 692 510 q 651 387 692 432 q 532 342 611 342 m 532 406 q 603 431 578 406 q 628 490 628 456 q 621 530 628 510 q 594 569 614 550 l 472 569 q 444 530 453 551 q 436 489 436 508 q 463 431 436 456 q 532 406 489 406 m 760 0 q 631 31 685 0 q 532 122 576 63 q 431 28 483 58 q 308 -3 378 -3 q 161 48 211 -3 q 111 164 111 99 q 135 250 111 213 q 196 309 158 288 q 276 331 233 331 q 308 300 308 331 q 281 268 308 272 q 203 233 232 261 q 175 164 175 204 q 212 90 175 119 q 308 61 249 61 q 416 94 372 61 q 503 190 460 126 q 529 204 513 204 l 536 204 q 563 189 554 204 q 647 97 601 129 q 760 64 692 64 q 854 101 821 64 q 888 196 888 139 q 880 258 888 228 q 864 306 872 288 q 857 328 857 321 q 865 350 857 340 q 889 360 874 360 q 918 342 910 360 q 942 274 932 311 q 951 196 951 236 q 901 55 951 110 q 760 0 850 0 m 724 633 q 831 656 789 633 q 901 726 872 679 q 929 742 913 742 q 952 733 943 742 q 961 710 961 724 q 957 693 961 701 q 864 601 918 632 q 724 569 810 569 q 692 601 692 569 q 724 633 692 633 m 564 -272 q 554 -294 564 -285 q 532 -304 544 -304 q 510 -294 519 -304 q 500 -272 500 -285 l 500 -129 q 510 -107 500 -117 q 532 -97 519 -97 q 554 -107 544 -97 q 564 -129 564 -117 l 564 -272 z "},"ಬ":{"ha":1046,"x_min":96,"x_max":949,"o":"m 744 0 q 529 119 613 0 q 308 0 442 0 q 168 53 215 0 q 121 174 121 106 q 153 280 121 231 q 243 376 186 329 q 317 449 293 417 q 340 515 340 481 q 316 569 340 547 q 254 590 292 590 q 198 576 224 590 q 151 538 172 561 q 128 526 143 526 q 106 535 115 526 q 96 558 96 544 q 104 579 96 571 q 173 635 136 615 q 254 654 210 654 q 365 613 325 654 q 404 515 404 572 q 378 426 404 469 q 282 326 351 382 q 212 255 239 292 q 185 174 185 218 q 217 96 185 128 q 308 64 249 64 q 415 96 369 64 q 499 189 461 128 q 526 204 508 204 l 533 204 q 561 188 551 204 q 641 95 597 126 q 744 64 685 64 q 845 111 806 64 q 885 243 885 158 q 838 427 885 340 q 708 576 790 514 q 696 601 696 585 q 705 624 696 614 q 728 633 714 633 q 747 626 738 633 q 895 455 842 556 q 949 243 949 354 q 920 108 949 163 q 845 27 892 54 q 744 0 799 0 z "},"ಭ":{"ha":1001,"x_min":96,"x_max":975,"o":"m 744 0 q 529 119 613 0 q 308 0 442 0 q 168 53 215 0 q 121 174 121 106 q 153 280 121 231 q 243 376 186 329 q 317 449 293 417 q 340 515 340 481 q 316 569 340 547 q 254 590 292 590 q 198 576 224 590 q 151 538 172 561 q 128 526 143 526 q 106 535 117 526 q 96 558 96 544 q 104 579 96 571 q 173 635 136 615 q 254 654 210 654 q 365 613 325 654 q 404 515 404 572 q 378 426 404 469 q 282 326 351 382 q 212 255 239 292 q 185 174 185 218 q 217 96 185 128 q 308 64 249 64 q 415 96 369 64 q 499 189 461 128 q 526 204 508 204 l 533 204 q 561 188 551 204 q 641 95 597 126 q 744 64 685 64 q 842 110 804 64 q 881 233 881 156 q 826 417 881 325 q 682 569 771 508 l 610 569 q 588 579 597 569 q 578 601 578 589 q 588 624 578 614 q 610 633 597 633 l 738 633 q 760 624 750 633 q 769 601 769 614 q 765 586 769 593 q 896 421 847 514 q 944 233 944 328 q 885 60 944 119 q 744 0 826 0 m 738 633 q 844 656 803 633 q 915 726 886 679 q 943 742 926 742 q 966 733 957 742 q 975 710 975 724 q 971 693 975 701 q 878 601 932 632 q 738 569 824 569 q 706 601 706 569 q 738 633 706 633 m 563 -272 q 553 -294 563 -285 q 531 -304 543 -304 q 508 -294 518 -304 q 499 -272 499 -285 l 499 -129 q 508 -107 499 -117 q 531 -97 518 -97 q 553 -107 543 -97 q 563 -129 563 -117 l 563 -272 z "},"ಮ":{"ha":1422,"x_min":97,"x_max":1329,"o":"m 719 0 q 601 30 651 0 q 507 119 551 60 q 414 29 467 58 q 283 0 361 0 q 147 49 196 0 q 97 164 97 97 q 120 249 97 211 q 182 308 143 286 q 267 331 221 331 q 287 322 279 331 q 294 300 294 313 q 267 268 294 272 q 190 233 218 261 q 161 164 161 204 q 195 92 161 121 q 283 64 229 64 q 397 94 353 64 q 474 188 442 125 q 501 204 483 204 l 508 204 q 535 189 525 204 q 615 97 572 131 q 719 64 657 64 q 815 105 776 64 q 854 214 854 146 q 788 395 854 300 q 581 569 721 490 l 164 569 q 142 579 151 569 q 132 601 132 589 q 142 624 132 614 q 164 633 151 633 l 685 633 q 707 624 697 633 q 717 601 717 614 q 696 572 717 581 q 866 393 814 488 q 918 214 918 299 q 891 100 918 149 q 819 26 864 51 q 719 0 774 0 m 671 633 q 778 656 736 633 q 849 726 819 679 q 876 742 860 742 q 899 733 890 742 q 908 710 908 724 q 904 693 908 701 q 811 601 865 632 q 671 569 757 569 q 639 601 639 569 q 671 633 639 633 m 1107 64 q 1225 112 1185 64 q 1265 235 1265 160 q 1225 401 1265 314 q 1126 551 1185 488 q 1118 572 1118 560 q 1127 595 1118 586 q 1150 604 1136 604 q 1174 593 1165 604 q 1253 484 1218 544 q 1309 359 1289 424 q 1329 235 1329 294 q 1272 65 1329 131 q 1104 0 1215 0 q 974 36 1040 0 q 851 157 908 72 l 871 246 q 990 103 928 142 q 1107 64 1051 64 z "},"ಯ":{"ha":1693,"x_min":93,"x_max":1600,"o":"m 418 -6 q 244 35 317 -6 q 132 148 171 76 q 93 310 93 219 q 117 428 93 371 q 185 532 142 486 q 289 606 229 578 q 418 633 349 633 q 549 606 489 633 q 651 531 608 578 q 719 427 694 485 q 743 310 743 369 q 729 213 743 258 q 839 96 782 128 q 946 64 896 64 q 1064 112 1024 64 q 1104 235 1104 160 q 1064 401 1104 314 q 965 551 1024 488 q 958 559 964 554 q 946 569 953 564 l 818 569 q 796 579 806 569 q 786 601 786 589 q 796 624 786 614 q 818 633 806 633 l 969 633 l 972 633 l 974 633 q 1081 656 1039 633 q 1151 726 1122 679 q 1179 742 1163 742 q 1202 733 1193 742 q 1211 710 1211 724 q 1207 693 1211 701 q 1133 613 1175 643 q 1031 574 1092 582 q 1131 410 1094 503 q 1168 235 1168 317 q 1167 204 1168 218 q 1274 94 1218 125 q 1378 64 1329 64 q 1496 112 1456 64 q 1536 235 1536 160 q 1496 401 1536 314 q 1397 551 1456 488 q 1389 572 1389 560 q 1398 595 1389 586 q 1421 604 1407 604 q 1444 593 1436 604 q 1524 484 1489 544 q 1580 359 1560 424 q 1600 235 1600 294 q 1543 65 1600 131 q 1375 0 1486 0 q 1259 28 1318 0 q 1147 122 1200 57 q 1072 33 1124 65 q 943 0 1021 0 q 819 32 882 0 q 701 146 756 64 q 588 35 661 75 q 418 -6 514 -6 m 418 58 q 556 92 497 58 q 647 182 615 125 q 679 310 679 239 q 646 433 679 374 q 553 531 613 493 q 418 569 494 569 q 284 532 343 569 q 191 435 225 494 q 157 310 157 375 q 189 181 157 238 q 279 91 221 124 q 418 58 338 58 z "},"ರ":{"ha":914,"x_min":99,"x_max":879,"o":"m 469 -6 q 295 35 369 -6 q 181 148 221 76 q 140 310 140 219 q 176 456 140 388 q 275 569 213 525 l 131 569 q 108 579 118 569 q 99 601 99 589 q 108 624 99 614 q 131 633 118 633 l 642 633 q 664 624 654 633 q 674 601 674 614 q 658 575 674 583 q 758 460 722 531 q 794 310 794 389 q 755 149 794 221 q 643 36 715 78 q 469 -6 571 -6 m 204 310 q 238 181 204 238 q 331 91 271 124 q 469 58 390 58 q 608 92 550 58 q 699 182 667 125 q 731 310 731 239 q 698 437 731 378 q 607 533 665 496 q 472 569 549 569 q 335 533 396 569 q 240 438 275 497 q 204 310 204 379 m 642 633 q 749 656 707 633 q 819 726 790 679 q 847 742 831 742 q 870 733 861 742 q 879 710 879 724 q 875 693 879 701 q 782 601 836 632 q 642 569 728 569 q 610 601 610 569 q 642 633 610 633 z "}}}
